<?xml version="1.0" encoding="utf-8"?>
<svg xmlns="http://www.w3.org/2000/svg" xmlns:xlink="http://www.w3.org/1999/xlink" width="600" height="400" viewBox="0 0 2400 1600">
<defs>
  <clipPath id="clip420">
    <rect x="0" y="0" width="2400" height="1600"/>
  </clipPath>
</defs>
<path clip-path="url(#clip420)" d="
M0 1600 L2400 1600 L2400 0 L0 0  Z
  " fill="#ffffff" fill-rule="evenodd" fill-opacity="1"/>
<defs>
  <clipPath id="clip421">
    <rect x="480" y="0" width="1681" height="1600"/>
  </clipPath>
</defs>
<path clip-path="url(#clip420)" d="
M192.709 1486.45 L2352.76 1486.45 L2352.76 47.2441 L192.709 47.2441  Z
  " fill="#ffffff" fill-rule="evenodd" fill-opacity="1"/>
<defs>
  <clipPath id="clip422">
    <rect x="192" y="47" width="2161" height="1440"/>
  </clipPath>
</defs>
<polyline clip-path="url(#clip422)" style="stroke:#000000; stroke-linecap:butt; stroke-linejoin:round; stroke-width:2; stroke-opacity:0.1; fill:none" points="
  252.823,1486.45 252.823,47.2441 
  "/>
<polyline clip-path="url(#clip422)" style="stroke:#000000; stroke-linecap:butt; stroke-linejoin:round; stroke-width:2; stroke-opacity:0.1; fill:none" points="
  762.523,1486.45 762.523,47.2441 
  "/>
<polyline clip-path="url(#clip422)" style="stroke:#000000; stroke-linecap:butt; stroke-linejoin:round; stroke-width:2; stroke-opacity:0.1; fill:none" points="
  1272.22,1486.45 1272.22,47.2441 
  "/>
<polyline clip-path="url(#clip422)" style="stroke:#000000; stroke-linecap:butt; stroke-linejoin:round; stroke-width:2; stroke-opacity:0.1; fill:none" points="
  1781.92,1486.45 1781.92,47.2441 
  "/>
<polyline clip-path="url(#clip422)" style="stroke:#000000; stroke-linecap:butt; stroke-linejoin:round; stroke-width:2; stroke-opacity:0.1; fill:none" points="
  2291.62,1486.45 2291.62,47.2441 
  "/>
<polyline clip-path="url(#clip420)" style="stroke:#000000; stroke-linecap:butt; stroke-linejoin:round; stroke-width:4; stroke-opacity:1; fill:none" points="
  192.709,1486.45 2352.76,1486.45 
  "/>
<polyline clip-path="url(#clip420)" style="stroke:#000000; stroke-linecap:butt; stroke-linejoin:round; stroke-width:4; stroke-opacity:1; fill:none" points="
  252.823,1486.45 252.823,1467.55 
  "/>
<polyline clip-path="url(#clip420)" style="stroke:#000000; stroke-linecap:butt; stroke-linejoin:round; stroke-width:4; stroke-opacity:1; fill:none" points="
  762.523,1486.45 762.523,1467.55 
  "/>
<polyline clip-path="url(#clip420)" style="stroke:#000000; stroke-linecap:butt; stroke-linejoin:round; stroke-width:4; stroke-opacity:1; fill:none" points="
  1272.22,1486.45 1272.22,1467.55 
  "/>
<polyline clip-path="url(#clip420)" style="stroke:#000000; stroke-linecap:butt; stroke-linejoin:round; stroke-width:4; stroke-opacity:1; fill:none" points="
  1781.92,1486.45 1781.92,1467.55 
  "/>
<polyline clip-path="url(#clip420)" style="stroke:#000000; stroke-linecap:butt; stroke-linejoin:round; stroke-width:4; stroke-opacity:1; fill:none" points="
  2291.62,1486.45 2291.62,1467.55 
  "/>
<path clip-path="url(#clip420)" d="M252.823 1517.37 Q249.212 1517.37 247.383 1520.93 Q245.578 1524.47 245.578 1531.6 Q245.578 1538.71 247.383 1542.27 Q249.212 1545.82 252.823 1545.82 Q256.457 1545.82 258.263 1542.27 Q260.092 1538.71 260.092 1531.6 Q260.092 1524.47 258.263 1520.93 Q256.457 1517.37 252.823 1517.37 M252.823 1513.66 Q258.633 1513.66 261.689 1518.27 Q264.768 1522.85 264.768 1531.6 Q264.768 1540.33 261.689 1544.94 Q258.633 1549.52 252.823 1549.52 Q247.013 1549.52 243.934 1544.94 Q240.879 1540.33 240.879 1531.6 Q240.879 1522.85 243.934 1518.27 Q247.013 1513.66 252.823 1513.66 Z" fill="#000000" fill-rule="evenodd" fill-opacity="1" /><path clip-path="url(#clip420)" d="M722.141 1514.29 L740.498 1514.29 L740.498 1518.22 L726.424 1518.22 L726.424 1526.7 Q727.442 1526.35 728.461 1526.19 Q729.479 1526 730.498 1526 Q736.285 1526 739.664 1529.17 Q743.044 1532.34 743.044 1537.76 Q743.044 1543.34 739.572 1546.44 Q736.1 1549.52 729.78 1549.52 Q727.604 1549.52 725.336 1549.15 Q723.09 1548.78 720.683 1548.04 L720.683 1543.34 Q722.766 1544.47 724.988 1545.03 Q727.211 1545.58 729.688 1545.58 Q733.692 1545.58 736.03 1543.48 Q738.368 1541.37 738.368 1537.76 Q738.368 1534.15 736.03 1532.04 Q733.692 1529.94 729.688 1529.94 Q727.813 1529.94 725.938 1530.35 Q724.086 1530.77 722.141 1531.65 L722.141 1514.29 Z" fill="#000000" fill-rule="evenodd" fill-opacity="1" /><path clip-path="url(#clip420)" d="M762.257 1517.37 Q758.646 1517.37 756.817 1520.93 Q755.011 1524.47 755.011 1531.6 Q755.011 1538.71 756.817 1542.27 Q758.646 1545.82 762.257 1545.82 Q765.891 1545.82 767.697 1542.27 Q769.525 1538.71 769.525 1531.6 Q769.525 1524.47 767.697 1520.93 Q765.891 1517.37 762.257 1517.37 M762.257 1513.66 Q768.067 1513.66 771.122 1518.27 Q774.201 1522.85 774.201 1531.6 Q774.201 1540.33 771.122 1544.94 Q768.067 1549.52 762.257 1549.52 Q756.447 1549.52 753.368 1544.94 Q750.312 1540.33 750.312 1531.6 Q750.312 1522.85 753.368 1518.27 Q756.447 1513.66 762.257 1513.66 Z" fill="#000000" fill-rule="evenodd" fill-opacity="1" /><path clip-path="url(#clip420)" d="M792.419 1517.37 Q788.808 1517.37 786.979 1520.93 Q785.173 1524.47 785.173 1531.6 Q785.173 1538.71 786.979 1542.27 Q788.808 1545.82 792.419 1545.82 Q796.053 1545.82 797.858 1542.27 Q799.687 1538.71 799.687 1531.6 Q799.687 1524.47 797.858 1520.93 Q796.053 1517.37 792.419 1517.37 M792.419 1513.66 Q798.229 1513.66 801.284 1518.27 Q804.363 1522.85 804.363 1531.6 Q804.363 1540.33 801.284 1544.94 Q798.229 1549.52 792.419 1549.52 Q786.609 1549.52 783.53 1544.94 Q780.474 1540.33 780.474 1531.6 Q780.474 1522.85 783.53 1518.27 Q786.609 1513.66 792.419 1513.66 Z" fill="#000000" fill-rule="evenodd" fill-opacity="1" /><path clip-path="url(#clip420)" d="M1216.75 1544.91 L1224.39 1544.91 L1224.39 1518.55 L1216.08 1520.21 L1216.08 1515.95 L1224.34 1514.29 L1229.02 1514.29 L1229.02 1544.91 L1236.66 1544.91 L1236.66 1548.85 L1216.75 1548.85 L1216.75 1544.91 Z" fill="#000000" fill-rule="evenodd" fill-opacity="1" /><path clip-path="url(#clip420)" d="M1256.1 1517.37 Q1252.49 1517.37 1250.66 1520.93 Q1248.85 1524.47 1248.85 1531.6 Q1248.85 1538.71 1250.66 1542.27 Q1252.49 1545.82 1256.1 1545.82 Q1259.73 1545.82 1261.54 1542.27 Q1263.37 1538.71 1263.37 1531.6 Q1263.37 1524.47 1261.54 1520.93 Q1259.73 1517.37 1256.1 1517.37 M1256.1 1513.66 Q1261.91 1513.66 1264.97 1518.27 Q1268.04 1522.85 1268.04 1531.6 Q1268.04 1540.33 1264.97 1544.94 Q1261.91 1549.52 1256.1 1549.52 Q1250.29 1549.52 1247.21 1544.94 Q1244.16 1540.33 1244.16 1531.6 Q1244.16 1522.85 1247.21 1518.27 Q1250.29 1513.66 1256.1 1513.66 Z" fill="#000000" fill-rule="evenodd" fill-opacity="1" /><path clip-path="url(#clip420)" d="M1286.26 1517.37 Q1282.65 1517.37 1280.82 1520.93 Q1279.02 1524.47 1279.02 1531.6 Q1279.02 1538.71 1280.82 1542.27 Q1282.65 1545.82 1286.26 1545.82 Q1289.9 1545.82 1291.7 1542.27 Q1293.53 1538.71 1293.53 1531.6 Q1293.53 1524.47 1291.7 1520.93 Q1289.9 1517.37 1286.26 1517.37 M1286.26 1513.66 Q1292.07 1513.66 1295.13 1518.27 Q1298.21 1522.85 1298.21 1531.6 Q1298.21 1540.33 1295.13 1544.94 Q1292.07 1549.52 1286.26 1549.52 Q1280.45 1549.52 1277.37 1544.94 Q1274.32 1540.33 1274.32 1531.6 Q1274.32 1522.85 1277.37 1518.27 Q1280.45 1513.66 1286.26 1513.66 Z" fill="#000000" fill-rule="evenodd" fill-opacity="1" /><path clip-path="url(#clip420)" d="M1316.42 1517.37 Q1312.81 1517.37 1310.98 1520.93 Q1309.18 1524.47 1309.18 1531.6 Q1309.18 1538.71 1310.98 1542.27 Q1312.81 1545.82 1316.42 1545.82 Q1320.06 1545.82 1321.86 1542.27 Q1323.69 1538.71 1323.69 1531.6 Q1323.69 1524.47 1321.86 1520.93 Q1320.06 1517.37 1316.42 1517.37 M1316.42 1513.66 Q1322.23 1513.66 1325.29 1518.27 Q1328.37 1522.85 1328.37 1531.6 Q1328.37 1540.33 1325.29 1544.94 Q1322.23 1549.52 1316.42 1549.52 Q1310.61 1549.52 1307.54 1544.94 Q1304.48 1540.33 1304.48 1531.6 Q1304.48 1522.85 1307.54 1518.27 Q1310.61 1513.66 1316.42 1513.66 Z" fill="#000000" fill-rule="evenodd" fill-opacity="1" /><path clip-path="url(#clip420)" d="M1726.45 1544.91 L1734.09 1544.91 L1734.09 1518.55 L1725.78 1520.21 L1725.78 1515.95 L1734.04 1514.29 L1738.72 1514.29 L1738.72 1544.91 L1746.36 1544.91 L1746.36 1548.85 L1726.45 1548.85 L1726.45 1544.91 Z" fill="#000000" fill-rule="evenodd" fill-opacity="1" /><path clip-path="url(#clip420)" d="M1755.85 1514.29 L1774.2 1514.29 L1774.2 1518.22 L1760.13 1518.22 L1760.13 1526.7 Q1761.15 1526.35 1762.17 1526.19 Q1763.18 1526 1764.2 1526 Q1769.99 1526 1773.37 1529.17 Q1776.75 1532.34 1776.75 1537.76 Q1776.75 1543.34 1773.28 1546.44 Q1769.8 1549.52 1763.49 1549.52 Q1761.31 1549.52 1759.04 1549.15 Q1756.8 1548.78 1754.39 1548.04 L1754.39 1543.34 Q1756.47 1544.47 1758.69 1545.03 Q1760.92 1545.58 1763.39 1545.58 Q1767.4 1545.58 1769.74 1543.48 Q1772.07 1541.37 1772.07 1537.76 Q1772.07 1534.15 1769.74 1532.04 Q1767.4 1529.94 1763.39 1529.94 Q1761.52 1529.94 1759.64 1530.35 Q1757.79 1530.77 1755.85 1531.65 L1755.85 1514.29 Z" fill="#000000" fill-rule="evenodd" fill-opacity="1" /><path clip-path="url(#clip420)" d="M1795.96 1517.37 Q1792.35 1517.37 1790.52 1520.93 Q1788.72 1524.47 1788.72 1531.6 Q1788.72 1538.71 1790.52 1542.27 Q1792.35 1545.82 1795.96 1545.82 Q1799.6 1545.82 1801.4 1542.27 Q1803.23 1538.71 1803.23 1531.6 Q1803.23 1524.47 1801.4 1520.93 Q1799.6 1517.37 1795.96 1517.37 M1795.96 1513.66 Q1801.77 1513.66 1804.83 1518.27 Q1807.91 1522.85 1807.91 1531.6 Q1807.91 1540.33 1804.83 1544.94 Q1801.77 1549.52 1795.96 1549.52 Q1790.15 1549.52 1787.07 1544.94 Q1784.02 1540.33 1784.02 1531.6 Q1784.02 1522.85 1787.07 1518.27 Q1790.15 1513.66 1795.96 1513.66 Z" fill="#000000" fill-rule="evenodd" fill-opacity="1" /><path clip-path="url(#clip420)" d="M1826.12 1517.37 Q1822.51 1517.37 1820.68 1520.93 Q1818.88 1524.47 1818.88 1531.6 Q1818.88 1538.71 1820.68 1542.27 Q1822.51 1545.82 1826.12 1545.82 Q1829.76 1545.82 1831.56 1542.27 Q1833.39 1538.71 1833.39 1531.6 Q1833.39 1524.47 1831.56 1520.93 Q1829.76 1517.37 1826.12 1517.37 M1826.12 1513.66 Q1831.93 1513.66 1834.99 1518.27 Q1838.07 1522.85 1838.07 1531.6 Q1838.07 1540.33 1834.99 1544.94 Q1831.93 1549.52 1826.12 1549.52 Q1820.31 1549.52 1817.23 1544.94 Q1814.18 1540.33 1814.18 1531.6 Q1814.18 1522.85 1817.23 1518.27 Q1820.31 1513.66 1826.12 1513.66 Z" fill="#000000" fill-rule="evenodd" fill-opacity="1" /><path clip-path="url(#clip420)" d="M2240.23 1544.91 L2256.55 1544.91 L2256.55 1548.85 L2234.61 1548.85 L2234.61 1544.91 Q2237.27 1542.16 2241.85 1537.53 Q2246.46 1532.88 2247.64 1531.53 Q2249.89 1529.01 2250.77 1527.27 Q2251.67 1525.51 2251.67 1523.82 Q2251.67 1521.07 2249.72 1519.33 Q2247.8 1517.6 2244.7 1517.6 Q2242.5 1517.6 2240.05 1518.36 Q2237.62 1519.13 2234.84 1520.68 L2234.84 1515.95 Q2237.66 1514.82 2240.12 1514.24 Q2242.57 1513.66 2244.61 1513.66 Q2249.98 1513.66 2253.17 1516.35 Q2256.37 1519.03 2256.37 1523.52 Q2256.37 1525.65 2255.56 1527.57 Q2254.77 1529.47 2252.66 1532.07 Q2252.09 1532.74 2248.98 1535.95 Q2245.88 1539.15 2240.23 1544.91 Z" fill="#000000" fill-rule="evenodd" fill-opacity="1" /><path clip-path="url(#clip420)" d="M2276.37 1517.37 Q2272.76 1517.37 2270.93 1520.93 Q2269.12 1524.47 2269.12 1531.6 Q2269.12 1538.71 2270.93 1542.27 Q2272.76 1545.82 2276.37 1545.82 Q2280 1545.82 2281.81 1542.27 Q2283.64 1538.71 2283.64 1531.6 Q2283.64 1524.47 2281.81 1520.93 Q2280 1517.37 2276.37 1517.37 M2276.37 1513.66 Q2282.18 1513.66 2285.23 1518.27 Q2288.31 1522.85 2288.31 1531.6 Q2288.31 1540.33 2285.23 1544.94 Q2282.18 1549.52 2276.37 1549.52 Q2270.56 1549.52 2267.48 1544.94 Q2264.42 1540.33 2264.42 1531.6 Q2264.42 1522.85 2267.48 1518.27 Q2270.56 1513.66 2276.37 1513.66 Z" fill="#000000" fill-rule="evenodd" fill-opacity="1" /><path clip-path="url(#clip420)" d="M2306.53 1517.37 Q2302.92 1517.37 2301.09 1520.93 Q2299.28 1524.47 2299.28 1531.6 Q2299.28 1538.71 2301.09 1542.27 Q2302.92 1545.82 2306.53 1545.82 Q2310.16 1545.82 2311.97 1542.27 Q2313.8 1538.71 2313.8 1531.6 Q2313.8 1524.47 2311.97 1520.93 Q2310.16 1517.37 2306.53 1517.37 M2306.53 1513.66 Q2312.34 1513.66 2315.4 1518.27 Q2318.47 1522.85 2318.47 1531.6 Q2318.47 1540.33 2315.4 1544.94 Q2312.34 1549.52 2306.53 1549.52 Q2300.72 1549.52 2297.64 1544.94 Q2294.59 1540.33 2294.59 1531.6 Q2294.59 1522.85 2297.64 1518.27 Q2300.72 1513.66 2306.53 1513.66 Z" fill="#000000" fill-rule="evenodd" fill-opacity="1" /><path clip-path="url(#clip420)" d="M2336.69 1517.37 Q2333.08 1517.37 2331.25 1520.93 Q2329.45 1524.47 2329.45 1531.6 Q2329.45 1538.71 2331.25 1542.27 Q2333.08 1545.82 2336.69 1545.82 Q2340.33 1545.82 2342.13 1542.27 Q2343.96 1538.71 2343.96 1531.6 Q2343.96 1524.47 2342.13 1520.93 Q2340.33 1517.37 2336.69 1517.37 M2336.69 1513.66 Q2342.5 1513.66 2345.56 1518.27 Q2348.64 1522.85 2348.64 1531.6 Q2348.64 1540.33 2345.56 1544.94 Q2342.5 1549.52 2336.69 1549.52 Q2330.88 1549.52 2327.8 1544.94 Q2324.75 1540.33 2324.75 1531.6 Q2324.75 1522.85 2327.8 1518.27 Q2330.88 1513.66 2336.69 1513.66 Z" fill="#000000" fill-rule="evenodd" fill-opacity="1" /><polyline clip-path="url(#clip422)" style="stroke:#000000; stroke-linecap:butt; stroke-linejoin:round; stroke-width:2; stroke-opacity:0.1; fill:none" points="
  192.709,1430.76 2352.76,1430.76 
  "/>
<polyline clip-path="url(#clip422)" style="stroke:#000000; stroke-linecap:butt; stroke-linejoin:round; stroke-width:2; stroke-opacity:0.1; fill:none" points="
  192.709,1058.08 2352.76,1058.08 
  "/>
<polyline clip-path="url(#clip422)" style="stroke:#000000; stroke-linecap:butt; stroke-linejoin:round; stroke-width:2; stroke-opacity:0.1; fill:none" points="
  192.709,685.405 2352.76,685.405 
  "/>
<polyline clip-path="url(#clip422)" style="stroke:#000000; stroke-linecap:butt; stroke-linejoin:round; stroke-width:2; stroke-opacity:0.1; fill:none" points="
  192.709,312.729 2352.76,312.729 
  "/>
<polyline clip-path="url(#clip420)" style="stroke:#000000; stroke-linecap:butt; stroke-linejoin:round; stroke-width:4; stroke-opacity:1; fill:none" points="
  192.709,1486.45 192.709,47.2441 
  "/>
<polyline clip-path="url(#clip420)" style="stroke:#000000; stroke-linecap:butt; stroke-linejoin:round; stroke-width:4; stroke-opacity:1; fill:none" points="
  192.709,1430.76 211.607,1430.76 
  "/>
<polyline clip-path="url(#clip420)" style="stroke:#000000; stroke-linecap:butt; stroke-linejoin:round; stroke-width:4; stroke-opacity:1; fill:none" points="
  192.709,1058.08 211.607,1058.08 
  "/>
<polyline clip-path="url(#clip420)" style="stroke:#000000; stroke-linecap:butt; stroke-linejoin:round; stroke-width:4; stroke-opacity:1; fill:none" points="
  192.709,685.405 211.607,685.405 
  "/>
<polyline clip-path="url(#clip420)" style="stroke:#000000; stroke-linecap:butt; stroke-linejoin:round; stroke-width:4; stroke-opacity:1; fill:none" points="
  192.709,312.729 211.607,312.729 
  "/>
<path clip-path="url(#clip420)" d="M50.9921 1431.21 L80.6679 1431.21 L80.6679 1435.14 L50.9921 1435.14 L50.9921 1431.21 Z" fill="#000000" fill-rule="evenodd" fill-opacity="1" /><path clip-path="url(#clip420)" d="M100.76 1416.56 Q97.1493 1416.56 95.3206 1420.12 Q93.515 1423.66 93.515 1430.79 Q93.515 1437.9 95.3206 1441.46 Q97.1493 1445.01 100.76 1445.01 Q104.395 1445.01 106.2 1441.46 Q108.029 1437.9 108.029 1430.79 Q108.029 1423.66 106.2 1420.12 Q104.395 1416.56 100.76 1416.56 M100.76 1412.85 Q106.571 1412.85 109.626 1417.46 Q112.705 1422.04 112.705 1430.79 Q112.705 1439.52 109.626 1444.13 Q106.571 1448.71 100.76 1448.71 Q94.9502 1448.71 91.8715 1444.13 Q88.816 1439.52 88.816 1430.79 Q88.816 1422.04 91.8715 1417.46 Q94.9502 1412.85 100.76 1412.85 Z" fill="#000000" fill-rule="evenodd" fill-opacity="1" /><path clip-path="url(#clip420)" d="M120.922 1442.16 L125.807 1442.16 L125.807 1448.04 L120.922 1448.04 L120.922 1442.16 Z" fill="#000000" fill-rule="evenodd" fill-opacity="1" /><path clip-path="url(#clip420)" d="M136.802 1444.1 L144.441 1444.1 L144.441 1417.74 L136.131 1419.4 L136.131 1415.15 L144.394 1413.48 L149.07 1413.48 L149.07 1444.1 L156.709 1444.1 L156.709 1448.04 L136.802 1448.04 L136.802 1444.1 Z" fill="#000000" fill-rule="evenodd" fill-opacity="1" /><path clip-path="url(#clip420)" d="M99.5335 1043.88 Q95.9224 1043.88 94.0937 1047.45 Q92.2882 1050.99 92.2882 1058.12 Q92.2882 1065.22 94.0937 1068.79 Q95.9224 1072.33 99.5335 1072.33 Q103.168 1072.33 104.973 1068.79 Q106.802 1065.22 106.802 1058.12 Q106.802 1050.99 104.973 1047.45 Q103.168 1043.88 99.5335 1043.88 M99.5335 1040.18 Q105.344 1040.18 108.399 1044.78 Q111.478 1049.37 111.478 1058.12 Q111.478 1066.84 108.399 1071.45 Q105.344 1076.03 99.5335 1076.03 Q93.7234 1076.03 90.6447 1071.45 Q87.5892 1066.84 87.5892 1058.12 Q87.5892 1049.37 90.6447 1044.78 Q93.7234 1040.18 99.5335 1040.18 Z" fill="#000000" fill-rule="evenodd" fill-opacity="1" /><path clip-path="url(#clip420)" d="M119.695 1069.48 L124.58 1069.48 L124.58 1075.36 L119.695 1075.36 L119.695 1069.48 Z" fill="#000000" fill-rule="evenodd" fill-opacity="1" /><path clip-path="url(#clip420)" d="M144.765 1043.88 Q141.154 1043.88 139.325 1047.45 Q137.519 1050.99 137.519 1058.12 Q137.519 1065.22 139.325 1068.79 Q141.154 1072.33 144.765 1072.33 Q148.399 1072.33 150.205 1068.79 Q152.033 1065.22 152.033 1058.12 Q152.033 1050.99 150.205 1047.45 Q148.399 1043.88 144.765 1043.88 M144.765 1040.18 Q150.575 1040.18 153.63 1044.78 Q156.709 1049.37 156.709 1058.12 Q156.709 1066.84 153.63 1071.45 Q150.575 1076.03 144.765 1076.03 Q138.955 1076.03 135.876 1071.45 Q132.82 1066.84 132.82 1058.12 Q132.82 1049.37 135.876 1044.78 Q138.955 1040.18 144.765 1040.18 Z" fill="#000000" fill-rule="evenodd" fill-opacity="1" /><path clip-path="url(#clip420)" d="M100.76 671.204 Q97.1493 671.204 95.3206 674.769 Q93.515 678.311 93.515 685.44 Q93.515 692.547 95.3206 696.111 Q97.1493 699.653 100.76 699.653 Q104.395 699.653 106.2 696.111 Q108.029 692.547 108.029 685.44 Q108.029 678.311 106.2 674.769 Q104.395 671.204 100.76 671.204 M100.76 667.5 Q106.571 667.5 109.626 672.107 Q112.705 676.69 112.705 685.44 Q112.705 694.167 109.626 698.773 Q106.571 703.357 100.76 703.357 Q94.9502 703.357 91.8715 698.773 Q88.816 694.167 88.816 685.44 Q88.816 676.69 91.8715 672.107 Q94.9502 667.5 100.76 667.5 Z" fill="#000000" fill-rule="evenodd" fill-opacity="1" /><path clip-path="url(#clip420)" d="M120.922 696.806 L125.807 696.806 L125.807 702.685 L120.922 702.685 L120.922 696.806 Z" fill="#000000" fill-rule="evenodd" fill-opacity="1" /><path clip-path="url(#clip420)" d="M136.802 698.75 L144.441 698.75 L144.441 672.385 L136.131 674.051 L136.131 669.792 L144.394 668.125 L149.07 668.125 L149.07 698.75 L156.709 698.75 L156.709 702.685 L136.802 702.685 L136.802 698.75 Z" fill="#000000" fill-rule="evenodd" fill-opacity="1" /><path clip-path="url(#clip420)" d="M101.131 298.528 Q97.5197 298.528 95.691 302.092 Q93.8854 305.634 93.8854 312.764 Q93.8854 319.87 95.691 323.435 Q97.5197 326.977 101.131 326.977 Q104.765 326.977 106.571 323.435 Q108.399 319.87 108.399 312.764 Q108.399 305.634 106.571 302.092 Q104.765 298.528 101.131 298.528 M101.131 294.824 Q106.941 294.824 109.996 299.43 Q113.075 304.014 113.075 312.764 Q113.075 321.49 109.996 326.097 Q106.941 330.68 101.131 330.68 Q95.3206 330.68 92.2419 326.097 Q89.1864 321.49 89.1864 312.764 Q89.1864 304.014 92.2419 299.43 Q95.3206 294.824 101.131 294.824 Z" fill="#000000" fill-rule="evenodd" fill-opacity="1" /><path clip-path="url(#clip420)" d="M121.293 324.129 L126.177 324.129 L126.177 330.009 L121.293 330.009 L121.293 324.129 Z" fill="#000000" fill-rule="evenodd" fill-opacity="1" /><path clip-path="url(#clip420)" d="M140.39 326.074 L156.709 326.074 L156.709 330.009 L134.765 330.009 L134.765 326.074 Q137.427 323.319 142.01 318.69 Q146.617 314.037 147.797 312.694 Q150.043 310.171 150.922 308.435 Q151.825 306.676 151.825 304.986 Q151.825 302.231 149.88 300.495 Q147.959 298.759 144.857 298.759 Q142.658 298.759 140.205 299.523 Q137.774 300.287 134.996 301.838 L134.996 297.116 Q137.82 295.981 140.274 295.403 Q142.728 294.824 144.765 294.824 Q150.135 294.824 153.33 297.509 Q156.524 300.194 156.524 304.685 Q156.524 306.815 155.714 308.736 Q154.927 310.634 152.82 313.227 Q152.242 313.898 149.14 317.115 Q146.038 320.31 140.39 326.074 Z" fill="#000000" fill-rule="evenodd" fill-opacity="1" /><polyline clip-path="url(#clip422)" style="stroke:#009af9; stroke-linecap:butt; stroke-linejoin:round; stroke-width:4; stroke-opacity:1; fill:none" points="
  253.843,1090.39 254.862,940.687 255.881,911.689 256.901,929.471 257.92,899.12 258.94,822.841 259.959,717.547 260.978,630.953 261.998,730.691 263.017,768.17 
  264.037,756.063 265.056,722.115 266.075,801 267.095,822.575 268.114,779.839 269.134,812.287 270.153,811.717 271.172,822.026 272.192,841.792 273.211,985.808 
  274.231,1116.58 275.25,1180.43 276.269,857.419 277.289,1107.59 278.308,1277.55 279.328,1282.53 280.347,1206.28 281.366,1142.79 282.386,1062.21 283.405,943.447 
  284.425,936.379 285.444,942.948 286.463,1021.67 287.483,936.081 288.502,1110.46 289.522,1147.94 290.541,1109.29 291.56,1133.8 292.58,1081.57 293.599,1198.34 
  294.619,1108.54 295.638,1136.69 296.657,867.89 297.677,850.925 298.696,830.034 299.716,1019.82 300.735,1127.9 301.754,929.722 302.774,833.957 303.793,672.012 
  304.813,686.159 305.832,704.102 306.851,828.744 307.871,801.048 308.89,714.384 309.91,759.679 310.929,692.231 311.948,635.476 312.968,756.268 313.987,755.546 
  315.007,909.295 316.026,919.97 317.045,766.16 318.065,627.443 319.084,673.666 320.104,722.375 321.123,622.729 322.142,542.649 323.162,548.031 324.181,544.64 
  325.201,589.114 326.22,566.7 327.239,693.16 328.259,596.752 329.278,540.119 330.298,645.759 331.317,621.038 332.336,718.077 333.356,942.373 334.375,785.592 
  335.395,783.071 336.414,803.275 337.433,712.498 338.453,934.005 339.472,862.195 340.492,985.476 341.511,902.578 342.53,766.577 343.55,687.09 344.569,674.952 
  345.589,879.656 346.608,801.342 347.627,853.726 348.647,713.815 349.666,778.751 350.686,768.508 351.705,917.486 352.724,850.132 353.744,912.841 354.763,1113.68 
  355.783,1114.68 356.802,982.315 357.821,1126.73 358.841,1140.44 359.86,1048.4 360.88,1008.69 361.899,946.451 362.918,900.409 363.938,817.002 364.957,700.245 
  365.977,654.519 366.996,855.679 368.015,963.88 369.035,915.246 370.054,895.245 371.074,1035.13 372.093,959.385 373.112,771.449 374.132,853.595 375.151,1010.2 
  376.171,929.154 377.19,820.594 378.209,945.117 379.229,836.135 380.248,846.852 381.268,653.764 382.287,849.089 383.306,996.135 384.326,807.407 385.345,801.685 
  386.365,814.878 387.384,705.534 388.403,845.559 389.423,873.458 390.442,873.122 391.462,879.196 392.481,957.588 393.5,898.616 394.52,1004.6 395.539,1084.01 
  396.559,1032.44 397.578,783.763 398.597,871.801 399.617,779.198 400.636,882.662 401.656,875.95 402.675,758.256 403.694,850.166 404.714,982.567 405.733,1215.19 
  406.753,1246.4 407.772,1034.71 408.791,901.833 409.811,980.581 410.83,1074.77 411.85,1028.54 412.869,969.817 413.888,939.037 414.908,966.591 415.927,1048.06 
  416.946,1075.21 417.966,845.493 418.985,984.746 420.005,924.125 421.024,852.676 422.043,1028.54 423.063,895.014 424.082,779.857 425.102,826.492 426.121,1005.22 
  427.14,1040.84 428.16,878.329 429.179,837.936 430.199,937.167 431.218,1060.2 432.237,938.96 433.257,915.578 434.276,877.969 435.296,657.128 436.315,787.133 
  437.334,741.394 438.354,725.759 439.373,617.037 440.393,609.318 441.412,633.894 442.431,657.24 443.451,704.125 444.47,805.871 445.49,856.876 446.509,780.053 
  447.528,818.49 448.548,873.484 449.567,983.248 450.587,1085.75 451.606,1071.48 452.625,1105.32 453.645,1074.29 454.664,994.943 455.684,866.336 456.703,846.166 
  457.722,923.905 458.742,787.682 459.761,825.394 460.781,970.954 461.8,1023.65 462.819,951.191 463.839,873.007 464.858,925.715 465.878,1028.86 466.897,962.553 
  467.916,1045.88 468.936,1176.39 469.955,1239.56 470.975,1275.53 471.994,1125.19 473.013,1095.59 474.033,1071.2 475.052,936.678 476.072,813.176 477.091,616.583 
  478.11,826.704 479.13,819.145 480.149,877.377 481.169,816.624 482.188,805.261 483.207,902.831 484.227,1077.82 485.246,1004.94 486.266,1029.15 487.285,941.662 
  488.304,1005.41 489.324,1096.18 490.343,1328.09 491.363,1267.65 492.382,1096.66 493.401,1003.5 494.421,1026.72 495.44,934.076 496.46,984.801 497.479,862.22 
  498.498,844.24 499.518,908.096 500.537,948.501 501.557,961.814 502.576,1129.73 503.595,1134.96 504.615,1144.72 505.634,1149.92 506.654,1098.98 507.673,1257.51 
  508.692,1389.08 509.712,1344.64 510.731,1354.46 511.751,1343.96 512.77,1393.57 513.789,1145.01 514.809,1118.89 515.828,1199.44 516.848,1016.15 517.867,856.93 
  518.886,849.419 519.906,878.129 520.925,880.792 521.945,1025.17 522.964,930.439 523.983,1024.02 525.003,1042.52 526.022,1065.33 527.042,1115.43 528.061,1231.96 
  529.08,1031.18 530.1,1066.6 531.119,1021.79 532.139,1116.2 533.158,1113.82 534.177,1052.89 535.197,922.024 536.216,918.126 537.236,1070.95 538.255,1112.73 
  539.274,1221.21 540.294,1001.58 541.313,914.517 542.333,980.572 543.352,956.029 544.371,986.966 545.391,1069.76 546.41,1041.22 547.43,1053.03 548.449,1082.56 
  549.468,960.415 550.488,832.6 551.507,1095.99 552.527,1081.15 553.546,1282.88 554.565,1333.01 555.585,1209.3 556.604,1197.31 557.624,1132.52 558.643,1206 
  559.662,905.532 560.682,826.367 561.701,894.235 562.721,942.923 563.74,1034.33 564.759,825.365 565.779,809.923 566.798,756.624 567.818,695.446 568.837,821.686 
  569.856,796.773 570.876,1053.18 571.895,1042.72 572.915,876.595 573.934,1021.48 574.953,954.197 575.973,964.753 576.992,940.688 578.012,822.664 579.031,959.885 
  580.05,1035.15 581.07,947.647 582.089,1043.86 583.109,916.326 584.128,693.182 585.147,908.984 586.167,747.996 587.186,778.796 588.206,892.73 589.225,984.822 
  590.244,802.08 591.264,776.933 592.283,682.166 593.303,671.937 594.322,791.241 595.341,857.997 596.361,872.52 597.38,1039.76 598.4,997.001 599.419,959.878 
  600.438,822.807 601.458,967.463 602.477,974.004 603.497,832.03 604.516,826.231 605.535,850.602 606.555,904.942 607.574,884.464 608.594,920.741 609.613,1189.73 
  610.632,1009.16 611.652,1028.38 612.671,946.505 613.691,820.462 614.71,717.89 615.729,704.942 616.749,750.235 617.768,694.648 618.788,640.198 619.807,696.171 
  620.826,846.016 621.846,901.75 622.865,893.282 623.885,733.97 624.904,908.367 625.923,926.803 626.943,976.868 627.962,932.353 628.982,878.724 630.001,904.98 
  631.02,840.81 632.04,839.561 633.059,762.66 634.079,914.52 635.098,942.77 636.117,888.175 637.137,840.194 638.156,889.529 639.176,959.986 640.195,870.136 
  641.214,978.943 642.234,890.904 643.253,767.131 644.273,749.888 645.292,827.845 646.311,816.373 647.331,696.29 648.35,795.715 649.37,999.364 650.389,950.035 
  651.408,895.579 652.428,860.834 653.447,934.718 654.467,821.8 655.486,740.133 656.505,716.637 657.525,700.373 658.544,802.466 659.564,758.991 660.583,936.425 
  661.602,977.034 662.622,733.261 663.641,804.465 664.661,1109.51 665.68,915.617 666.699,814.474 667.719,803.729 668.738,830.963 669.758,923.82 670.777,870.268 
  671.796,823.995 672.816,951.569 673.835,915.921 674.855,956.735 675.874,976.707 676.893,1067.6 677.913,1044.24 678.932,952.805 679.952,947.529 680.971,994.956 
  681.99,981.415 683.01,856.993 684.029,871.982 685.049,933.639 686.068,897.122 687.087,1165.28 688.107,849.982 689.126,863.447 690.146,807.912 691.165,772.011 
  692.184,840.044 693.204,837.552 694.223,758.863 695.243,801.5 696.262,920.608 697.281,836.584 698.301,892.879 699.32,1142.35 700.34,955.452 701.359,1142.45 
  702.378,1159.16 703.398,1234.36 704.417,1100.72 705.437,969.03 706.456,965.403 707.475,778.493 708.495,888.772 709.514,854.37 710.534,734.748 711.553,788.656 
  712.572,832.611 713.592,785.325 714.611,790.616 715.631,791.25 716.65,908.727 717.669,941.098 718.689,820.546 719.708,757.578 720.728,750.497 721.747,700.415 
  722.766,700.981 723.786,657.146 724.805,620.384 725.825,747.903 726.844,706.607 727.863,767.867 728.883,855.636 729.902,835.28 730.922,789.365 731.941,948.839 
  732.96,1150.9 733.98,1078.11 734.999,1184.5 736.019,1083.58 737.038,1087.36 738.057,1032.53 739.077,1003.07 740.096,950.435 741.116,852.067 742.135,854.769 
  743.154,746.211 744.174,753.688 745.193,782.618 746.213,924.687 747.232,1125.77 748.251,1135.68 749.271,1268.05 750.29,1238.5 751.31,1105.77 752.329,1047 
  753.348,937.777 754.368,991.394 755.387,860.521 756.407,833.059 757.426,916.8 758.445,974.799 759.465,827.171 760.484,930.953 761.504,935.864 762.523,915.007 
  763.542,899.098 764.562,1024.18 765.581,823.583 766.601,856.535 767.62,824.725 768.639,1048.84 769.659,863.405 770.678,759.582 771.698,801.857 772.717,796.633 
  773.736,899.19 774.756,744.154 775.775,797.007 776.795,734.957 777.814,844.946 778.833,736.096 779.853,798.796 780.872,1080.45 781.892,973.757 782.911,816.51 
  783.93,678.464 784.95,677.075 785.969,673.777 786.989,681.839 788.008,802.042 789.027,911.262 790.047,751.768 791.066,743.798 792.086,766.641 793.105,859.398 
  794.124,900.863 795.144,937.738 796.163,1042.52 797.183,1012.58 798.202,808.172 799.221,971.931 800.241,876.713 801.26,1012.11 802.28,864.453 803.299,810.424 
  804.318,767.737 805.338,755.424 806.357,784.984 807.377,717.055 808.396,679.515 809.415,571.701 810.435,548.287 811.454,668.738 812.474,585.568 813.493,638.22 
  814.512,645.851 815.532,572.975 816.551,743.408 817.571,668.622 818.59,744.626 819.609,635.33 820.629,755.11 821.648,703.68 822.668,538.018 823.687,564.204 
  824.706,544.4 825.726,524.147 826.745,628.643 827.765,535.544 828.784,489.157 829.803,589.076 830.823,718.534 831.842,732.055 832.862,757.814 833.881,802.252 
  834.9,782.812 835.92,694.655 836.939,700.696 837.959,699.232 838.978,792.686 839.997,722.905 841.017,697.897 842.036,673.185 843.056,588.796 844.075,592.406 
  845.094,690.702 846.114,800.369 847.133,851.123 848.153,623.682 849.172,606.673 850.191,841.62 851.211,657.076 852.23,719.904 853.25,744.894 854.269,751.591 
  855.288,782.048 856.308,771.782 857.327,801.419 858.347,852.41 859.366,841.236 860.385,699.439 861.405,685.359 862.424,676.658 863.444,663.093 864.463,768.843 
  865.482,646.971 866.502,685.854 867.521,571.084 868.541,614.675 869.56,528.528 870.579,724.672 871.599,764.92 872.618,896.09 873.638,660.655 874.657,604.635 
  875.676,541.387 876.696,591.775 877.715,697.569 878.735,750.769 879.754,917.953 880.773,852.032 881.793,895.017 882.812,962.991 883.832,929.27 884.851,874.51 
  885.87,813.455 886.89,702.211 887.909,769.012 888.929,640.13 889.948,712.091 890.967,601.786 891.987,578.862 893.006,597.709 894.026,649.436 895.045,733.175 
  896.064,725.458 897.084,783.403 898.103,633.847 899.123,578.558 900.142,560.439 901.161,624.364 902.181,654.867 903.2,718.97 904.22,800.847 905.239,849.968 
  906.258,885.792 907.278,742.795 908.297,842.447 909.317,710.102 910.336,824.428 911.355,765.989 912.375,734.983 913.394,845.791 914.414,755.689 915.433,951.357 
  916.452,844.808 917.472,903.113 918.491,840.819 919.511,901.886 920.53,870.728 921.549,999.282 922.569,1039.06 923.588,1075.54 924.608,999.259 925.627,983.11 
  926.646,825.384 927.666,951.411 928.685,1015 929.705,1119.43 930.724,1078.14 931.743,1155.66 932.763,888.471 933.782,758.998 934.802,811.782 935.821,590.518 
  936.84,848.794 937.86,698.481 938.879,662.319 939.899,622.492 940.918,591.149 941.937,780.312 942.957,761.961 943.976,923.123 944.996,876.704 946.015,1017.81 
  947.034,780.994 948.054,815.276 949.073,938.013 950.093,970.417 951.112,1055.79 952.131,1064.32 953.151,1062.84 954.17,1064.85 955.19,1197.66 956.209,1104.09 
  957.228,863.614 958.248,859.373 959.267,996.489 960.287,876.115 961.306,838.328 962.325,678.733 963.345,635.077 964.364,585.39 965.384,578.709 966.403,663.867 
  967.422,661.036 968.442,653.271 969.461,711.959 970.481,873.257 971.5,674.24 972.519,673.926 973.539,637.109 974.558,656.258 975.578,786.544 976.597,699.76 
  977.616,676.679 978.636,611.067 979.655,564.372 980.675,409.78 981.694,466.686 982.713,492.584 983.733,524.386 984.752,624.6 985.772,661.214 986.791,782.612 
  987.81,917.347 988.83,881.546 989.849,891.518 990.869,836.609 991.888,657.129 992.907,748.255 993.927,850.553 994.946,909.026 995.966,947.649 996.985,923.33 
  998.004,1087.74 999.024,1088.13 1000.04,1033.71 1001.06,966.535 1002.08,1015.97 1003.1,962.302 1004.12,1035.05 1005.14,1012.71 1006.16,1064.48 1007.18,967.582 
  1008.2,945.195 1009.22,933.904 1010.24,883.557 1011.26,1010.33 1012.28,1182.77 1013.3,1174.86 1014.31,1183.95 1015.33,1030.12 1016.35,1030.17 1017.37,945.157 
  1018.39,947.651 1019.41,992.607 1020.43,988.253 1021.45,886.85 1022.47,769.338 1023.49,841.348 1024.51,761.476 1025.53,645.292 1026.55,705.428 1027.57,745.144 
  1028.59,971.193 1029.61,981.98 1030.63,872.517 1031.64,813.719 1032.66,944.531 1033.68,971.409 1034.7,878.044 1035.72,930.362 1036.74,1034.05 1037.76,833.822 
  1038.78,847.822 1039.8,1062.61 1040.82,1018.84 1041.84,921.111 1042.86,794.556 1043.88,766.58 1044.9,707.673 1045.92,707.623 1046.94,582.718 1047.95,571.537 
  1048.97,648.609 1049.99,808.756 1051.01,1030.29 1052.03,1039.97 1053.05,943.026 1054.07,846.221 1055.09,859.467 1056.11,791.59 1057.13,915.929 1058.15,864.466 
  1059.17,684.451 1060.19,648.1 1061.21,683.421 1062.23,683.309 1063.25,701.434 1064.27,639.847 1065.28,775.12 1066.3,704.767 1067.32,760.045 1068.34,918.612 
  1069.36,947.873 1070.38,925.317 1071.4,745.975 1072.42,627.885 1073.44,629.235 1074.46,653.708 1075.48,764.608 1076.5,795.762 1077.52,677.596 1078.54,667.321 
  1079.56,730.645 1080.58,780.301 1081.6,833.499 1082.61,823.784 1083.63,809.095 1084.65,827.279 1085.67,799.372 1086.69,816.554 1087.71,792.106 1088.73,695.515 
  1089.75,720.573 1090.77,741.444 1091.79,894.383 1092.81,675.341 1093.83,713.1 1094.85,587.099 1095.87,520.69 1096.89,669.772 1097.91,733.983 1098.92,635.877 
  1099.94,568.636 1100.96,523.657 1101.98,600.952 1103,734.776 1104.02,760.998 1105.04,609.669 1106.06,703.085 1107.08,662.37 1108.1,704.764 1109.12,569.738 
  1110.14,573.098 1111.16,563.516 1112.18,605.531 1113.2,755.871 1114.22,801.993 1115.24,1005.15 1116.25,1006.89 1117.27,897.682 1118.29,905.29 1119.31,937.563 
  1120.33,887.788 1121.35,885.395 1122.37,757.763 1123.39,573.352 1124.41,839.919 1125.43,804.998 1126.45,748.763 1127.47,679.315 1128.49,742.251 1129.51,721.053 
  1130.53,799.039 1131.55,612.378 1132.57,642.945 1133.58,551.867 1134.6,697.421 1135.62,746.572 1136.64,718.642 1137.66,904.779 1138.68,965.636 1139.7,898.116 
  1140.72,808.048 1141.74,754.853 1142.76,739.89 1143.78,762.003 1144.8,823.274 1145.82,905.608 1146.84,936.726 1147.86,1023.75 1148.88,810.729 1149.89,849.927 
  1150.91,675.527 1151.93,726.574 1152.95,830.106 1153.97,708.9 1154.99,738.997 1156.01,679.992 1157.03,805.388 1158.05,686.696 1159.07,663.6 1160.09,699.132 
  1161.11,718.174 1162.13,609.446 1163.15,551.812 1164.17,514.14 1165.19,628.119 1166.21,716.238 1167.22,828.127 1168.24,941.605 1169.26,922.7 1170.28,840.903 
  1171.3,958.002 1172.32,909.882 1173.34,813.054 1174.36,759.602 1175.38,831.158 1176.4,661.722 1177.42,580.899 1178.44,551.079 1179.46,588.252 1180.48,683.873 
  1181.5,714.22 1182.52,884.107 1183.54,953.462 1184.55,998.853 1185.57,825.877 1186.59,764.275 1187.61,775.226 1188.63,793.453 1189.65,737.769 1190.67,835.276 
  1191.69,988.038 1192.71,956.654 1193.73,950.664 1194.75,863.782 1195.77,765.804 1196.79,770.974 1197.81,756.823 1198.83,804.858 1199.85,656.834 1200.86,613.975 
  1201.88,777.691 1202.9,703.987 1203.92,940.17 1204.94,885.006 1205.96,892.126 1206.98,921.328 1208,918.349 1209.02,913.015 1210.04,984.386 1211.06,1112.22 
  1212.08,1085.99 1213.1,1004.1 1214.12,1214.7 1215.14,1213.5 1216.16,1071.78 1217.18,907.734 1218.19,935.736 1219.21,645.131 1220.23,631.399 1221.25,638.787 
  1222.27,752.322 1223.29,831.243 1224.31,875.75 1225.33,827.453 1226.35,885.282 1227.37,735.764 1228.39,682.115 1229.41,615.857 1230.43,539.356 1231.45,595.854 
  1232.47,575.972 1233.49,610.248 1234.51,609.945 1235.52,749.829 1236.54,756.541 1237.56,850.598 1238.58,950.298 1239.6,1152.17 1240.62,987.865 1241.64,946.072 
  1242.66,960.408 1243.68,931.436 1244.7,918.559 1245.72,1046.6 1246.74,1029.51 1247.76,804.562 1248.78,766.157 1249.8,992.152 1250.82,814.014 1251.83,733.018 
  1252.85,773.6 1253.87,609.858 1254.89,634.841 1255.91,692.973 1256.93,582.984 1257.95,601.409 1258.97,500.241 1259.99,436.592 1261.01,524.865 1262.03,680.199 
  1263.05,651.82 1264.07,769.739 1265.09,783.084 1266.11,856.46 1267.13,930.86 1268.15,930.147 1269.16,1126.42 1270.18,1279.59 1271.2,1094.84 1272.22,927.547 
  1273.24,932.898 1274.26,857.051 1275.28,764.678 1276.3,822.538 1277.32,1027.62 1278.34,1026.52 1279.36,994.72 1280.38,1091.8 1281.4,1113.6 1282.42,1123.46 
  1283.44,1071.32 1284.46,1087.87 1285.48,1115.65 1286.49,1123.63 1287.51,1138.56 1288.53,1143.61 1289.55,1120.66 1290.57,1093.73 1291.59,1006.38 1292.61,843.143 
  1293.63,920.739 1294.65,848.188 1295.67,808.996 1296.69,863.349 1297.71,800.357 1298.73,983.09 1299.75,1053.25 1300.77,1084.87 1301.79,1103.02 1302.8,1309.63 
  1303.82,1018.6 1304.84,1024.32 1305.86,1033.44 1306.88,1033.53 1307.9,1148.23 1308.92,837.17 1309.94,839.619 1310.96,907.17 1311.98,891.857 1313,750.826 
  1314.02,792.231 1315.04,900.408 1316.06,997.42 1317.08,1130.98 1318.1,866.334 1319.12,822.842 1320.13,645.98 1321.15,897.939 1322.17,707.797 1323.19,799.087 
  1324.21,756.724 1325.23,572.979 1326.25,655.632 1327.27,690.031 1328.29,863.928 1329.31,710.939 1330.33,738.516 1331.35,666.298 1332.37,657.021 1333.39,616.849 
  1334.41,746.626 1335.43,734.8 1336.45,689.828 1337.46,735.354 1338.48,762.685 1339.5,777.963 1340.52,834.708 1341.54,862.249 1342.56,847.507 1343.58,821.058 
  1344.6,943.946 1345.62,931.566 1346.64,851.819 1347.66,832.844 1348.68,852.653 1349.7,910.734 1350.72,860.384 1351.74,728.614 1352.76,716.28 1353.77,748.896 
  1354.79,831.742 1355.81,620.564 1356.83,620.659 1357.85,583.114 1358.87,734.345 1359.89,826.786 1360.91,963.063 1361.93,1116.69 1362.95,1016.15 1363.97,1000.18 
  1364.99,869.268 1366.01,975.943 1367.03,938.314 1368.05,921.294 1369.07,825.54 1370.09,978.934 1371.1,1025.61 1372.12,1042.02 1373.14,1010.7 1374.16,926.168 
  1375.18,854.918 1376.2,738.933 1377.22,660.424 1378.24,596.343 1379.26,721.795 1380.28,726.211 1381.3,788.404 1382.32,796.902 1383.34,817.37 1384.36,685.915 
  1385.38,539.34 1386.4,684.486 1387.41,752.467 1388.43,644.196 1389.45,777.509 1390.47,743.746 1391.49,856.616 1392.51,887.859 1393.53,903.683 1394.55,797.703 
  1395.57,769.469 1396.59,687.005 1397.61,857.795 1398.63,956.848 1399.65,1011.64 1400.67,904.374 1401.69,983.24 1402.71,1010.58 1403.73,782.726 1404.74,815.481 
  1405.76,846.898 1406.78,885.097 1407.8,793.256 1408.82,571.132 1409.84,588.431 1410.86,509.36 1411.88,531.779 1412.9,628.892 1413.92,533.955 1414.94,505.891 
  1415.96,581.928 1416.98,582.734 1418,556.329 1419.02,698.616 1420.04,724.455 1421.06,737.121 1422.07,966.916 1423.09,917.497 1424.11,1113.51 1425.13,1060.3 
  1426.15,1113.53 1427.17,1365.41 1428.19,1221.01 1429.21,1135.26 1430.23,1238.11 1431.25,1246.23 1432.27,1206.88 1433.29,1281.99 1434.31,1027.82 1435.33,1016.66 
  1436.35,1045.81 1437.37,953.681 1438.38,742.251 1439.4,730.271 1440.42,610.142 1441.44,609.214 1442.46,553.605 1443.48,625.964 1444.5,708.169 1445.52,681.844 
  1446.54,684.766 1447.56,837.586 1448.58,745.036 1449.6,749.753 1450.62,954.992 1451.64,765.23 1452.66,785.496 1453.68,956.942 1454.7,1044.76 1455.71,1049.52 
  1456.73,1000.74 1457.75,868.575 1458.77,902.061 1459.79,944.943 1460.81,876.123 1461.83,766.872 1462.85,602.471 1463.87,633.391 1464.89,710.232 1465.91,697.772 
  1466.93,816.98 1467.95,875.324 1468.97,806.064 1469.99,614.46 1471.01,628.001 1472.03,596.167 1473.04,753.822 1474.06,820.302 1475.08,782.746 1476.1,742.516 
  1477.12,859.487 1478.14,938.89 1479.16,962.452 1480.18,977.027 1481.2,1003.85 1482.22,919.301 1483.24,1052.93 1484.26,1126.76 1485.28,938.516 1486.3,859.792 
  1487.32,832.947 1488.34,747.261 1489.35,898.785 1490.37,981.79 1491.39,975.432 1492.41,866.473 1493.43,1025.8 1494.45,983.909 1495.47,1040.96 1496.49,970.159 
  1497.51,1124.97 1498.53,1247.6 1499.55,1030.94 1500.57,1158.1 1501.59,1122.83 1502.61,1034.99 1503.63,999.701 1504.65,938.253 1505.67,883.086 1506.68,904.189 
  1507.7,965.251 1508.72,887.152 1509.74,965.347 1510.76,1066.6 1511.78,938.749 1512.8,853.472 1513.82,969.248 1514.84,797.17 1515.86,780.673 1516.88,683.881 
  1517.9,683.211 1518.92,620.481 1519.94,605.228 1520.96,434.804 1521.98,357.445 1523,542.26 1524.01,524.16 1525.03,396.023 1526.05,394.653 1527.07,295.572 
  1528.09,385.797 1529.11,342.078 1530.13,506.12 1531.15,612.022 1532.17,742.839 1533.19,817.467 1534.21,702.874 1535.23,754.726 1536.25,823.831 1537.27,794.188 
  1538.29,719.361 1539.31,673.189 1540.32,655.774 1541.34,515.241 1542.36,549.992 1543.38,655.49 1544.4,668.495 1545.42,726.137 1546.44,879.738 1547.46,855.759 
  1548.48,802.176 1549.5,686.719 1550.52,548.092 1551.54,604.39 1552.56,681.447 1553.58,521.356 1554.6,644.179 1555.62,478.364 1556.64,721.858 1557.65,648.604 
  1558.67,680.528 1559.69,684.122 1560.71,743.54 1561.73,733.105 1562.75,599.805 1563.77,782.141 1564.79,872.052 1565.81,627.401 1566.83,621.665 1567.85,717.902 
  1568.87,690.068 1569.89,720.149 1570.91,559.183 1571.93,562.106 1572.95,595.797 1573.97,536.264 1574.98,652.191 1576,782.251 1577.02,865.248 1578.04,832.284 
  1579.06,949.67 1580.08,865.454 1581.1,684.304 1582.12,548.208 1583.14,704.816 1584.16,690.207 1585.18,723.279 1586.2,699.943 1587.22,708.124 1588.24,586.255 
  1589.26,580.678 1590.28,706.559 1591.29,561.814 1592.31,517.095 1593.33,670.975 1594.35,588.887 1595.37,622.242 1596.39,588.065 1597.41,763.811 1598.43,738.24 
  1599.45,739.506 1600.47,750.796 1601.49,915.009 1602.51,991.691 1603.53,888.616 1604.55,879.324 1605.57,826.771 1606.59,689.747 1607.61,706.537 1608.62,819.111 
  1609.64,689.926 1610.66,847.506 1611.68,982.334 1612.7,842.011 1613.72,816.146 1614.74,744.721 1615.76,817.654 1616.78,734.089 1617.8,809.854 1618.82,788.473 
  1619.84,820.171 1620.86,864.953 1621.88,933.245 1622.9,1003.74 1623.92,1038.44 1624.94,936.925 1625.95,922.481 1626.97,797.178 1627.99,847.826 1629.01,863.192 
  1630.03,868.893 1631.05,878.085 1632.07,953.915 1633.09,874.358 1634.11,820.739 1635.13,869.646 1636.15,709.876 1637.17,546.752 1638.19,715.598 1639.21,724.687 
  1640.23,667.14 1641.25,785.021 1642.26,747.031 1643.28,699.838 1644.3,598.184 1645.32,615.305 1646.34,776.785 1647.36,714.673 1648.38,662.665 1649.4,737.543 
  1650.42,690.274 1651.44,582.474 1652.46,609.937 1653.48,731.441 1654.5,696.098 1655.52,653.034 1656.54,714.953 1657.56,772.289 1658.58,682.416 1659.59,746.696 
  1660.61,782.742 1661.63,870.269 1662.65,934.414 1663.67,1038.68 1664.69,968.199 1665.71,997.015 1666.73,987.112 1667.75,883.351 1668.77,924.123 1669.79,872.789 
  1670.81,889.617 1671.83,1069.25 1672.85,1225.56 1673.87,1186.21 1674.89,1022.1 1675.91,891.572 1676.92,1083.21 1677.94,1111.86 1678.96,1183.89 1679.98,1023.17 
  1681,1058.35 1682.02,1024.14 1683.04,953.899 1684.06,1158.51 1685.08,1445.72 1686.1,1320.75 1687.12,1156.98 1688.14,901.337 1689.16,713.209 1690.18,550.413 
  1691.2,589.529 1692.22,637.028 1693.23,697.248 1694.25,899.275 1695.27,887.053 1696.29,886.261 1697.31,1027.14 1698.33,1080.85 1699.35,1008.39 1700.37,1085.52 
  1701.39,1288.89 1702.41,992.393 1703.43,952.57 1704.45,1026.12 1705.47,1013.91 1706.49,1099.99 1707.51,1027.59 1708.53,867.251 1709.55,945.328 1710.56,892.036 
  1711.58,883.188 1712.6,919.885 1713.62,897.013 1714.64,760.772 1715.66,857.863 1716.68,911.02 1717.7,914.733 1718.72,781.62 1719.74,699.728 1720.76,626.144 
  1721.78,738.768 1722.8,758.618 1723.82,805.219 1724.84,813.513 1725.86,926.184 1726.88,955.095 1727.89,931.503 1728.91,924.271 1729.93,827.52 1730.95,849.302 
  1731.97,843.499 1732.99,789.942 1734.01,851.981 1735.03,975.136 1736.05,1098.44 1737.07,1042.49 1738.09,913.74 1739.11,720.851 1740.13,777.653 1741.15,611.619 
  1742.17,572.515 1743.19,824.128 1744.2,856.483 1745.22,831.044 1746.24,920.172 1747.26,642.265 1748.28,651.933 1749.3,587.743 1750.32,538.093 1751.34,717.885 
  1752.36,720.014 1753.38,660.916 1754.4,696.941 1755.42,698.154 1756.44,789.69 1757.46,710.8 1758.48,774.413 1759.5,719.123 1760.52,971.388 1761.53,865.216 
  1762.55,868.6 1763.57,1030.01 1764.59,967.411 1765.61,962.542 1766.63,957.809 1767.65,916.612 1768.67,871.968 1769.69,1095.07 1770.71,986.663 1771.73,910.414 
  1772.75,839.876 1773.77,842.898 1774.79,988.951 1775.81,999.361 1776.83,876.815 1777.85,826.065 1778.86,856.957 1779.88,845.755 1780.9,1003.22 1781.92,976.164 
  1782.94,928.268 1783.96,947.466 1784.98,858.539 1786,818.98 1787.02,746.73 1788.04,755.852 1789.06,706.873 1790.08,625.593 1791.1,658.25 1792.12,679.7 
  1793.14,849.211 1794.16,739.022 1795.17,706.063 1796.19,762.719 1797.21,646.965 1798.23,680.71 1799.25,821.504 1800.27,986.7 1801.29,952.492 1802.31,786.239 
  1803.33,715.521 1804.35,748.253 1805.37,774.136 1806.39,726.157 1807.41,873.77 1808.43,1138.1 1809.45,940.528 1810.47,997.642 1811.49,969.507 1812.5,970.657 
  1813.52,905.083 1814.54,1081.78 1815.56,981.705 1816.58,787.463 1817.6,712.981 1818.62,616.268 1819.64,686.593 1820.66,645.892 1821.68,679.621 1822.7,587.555 
  1823.72,493.921 1824.74,565.234 1825.76,687.99 1826.78,763.38 1827.8,927.858 1828.82,963.994 1829.83,879.138 1830.85,876.301 1831.87,986.288 1832.89,881.779 
  1833.91,1016.03 1834.93,1070.75 1835.95,1084.35 1836.97,1117.33 1837.99,1115.46 1839.01,1073.8 1840.03,1061.19 1841.05,818.98 1842.07,969.294 1843.09,780.957 
  1844.11,849.463 1845.13,802.222 1846.14,1004.48 1847.16,837.533 1848.18,1022.17 1849.2,822.643 1850.22,577.383 1851.24,677.726 1852.26,677.098 1853.28,604.512 
  1854.3,649.653 1855.32,630.163 1856.34,789.267 1857.36,794.255 1858.38,910.539 1859.4,1188.26 1860.42,1058.66 1861.44,857.61 1862.46,981.117 1863.47,928.942 
  1864.49,849.693 1865.51,862.508 1866.53,739.11 1867.55,794.047 1868.57,832.461 1869.59,812.381 1870.61,875.81 1871.63,736.094 1872.65,712.974 1873.67,734.718 
  1874.69,804.853 1875.71,838.088 1876.73,844.423 1877.75,883.456 1878.77,955.715 1879.79,1029.45 1880.8,972.516 1881.82,871.562 1882.84,854.111 1883.86,926.067 
  1884.88,898 1885.9,700.195 1886.92,634.45 1887.94,594.7 1888.96,654.921 1889.98,905.97 1891,828.357 1892.02,999.928 1893.04,929.16 1894.06,729.796 
  1895.08,695.779 1896.1,656.432 1897.11,787.897 1898.13,862.949 1899.15,792.853 1900.17,814.674 1901.19,887.753 1902.21,923.713 1903.23,870.038 1904.25,907.183 
  1905.27,757.674 1906.29,807.125 1907.31,740.224 1908.33,824.384 1909.35,1008.33 1910.37,1012.68 1911.39,981.261 1912.41,877.092 1913.43,725.129 1914.44,686.326 
  1915.46,703.417 1916.48,827.371 1917.5,884.571 1918.52,773.967 1919.54,887.915 1920.56,1005.99 1921.58,885.032 1922.6,637.127 1923.62,606.494 1924.64,574.663 
  1925.66,704.026 1926.68,717.256 1927.7,713.013 1928.72,893.123 1929.74,755.718 1930.76,841.682 1931.77,897.021 1932.79,944.792 1933.81,961.124 1934.83,928.317 
  1935.85,955.026 1936.87,771.296 1937.89,760.018 1938.91,932.037 1939.93,726.78 1940.95,645.846 1941.97,723.135 1942.99,751.975 1944.01,778.02 1945.03,851.328 
  1946.05,849.293 1947.07,760.683 1948.08,764.92 1949.1,623.474 1950.12,617.602 1951.14,675.893 1952.16,428.075 1953.18,611.862 1954.2,670.463 1955.22,673.569 
  1956.24,768.722 1957.26,696.255 1958.28,671.683 1959.3,654.586 1960.32,553.93 1961.34,569.17 1962.36,821.261 1963.38,852.683 1964.4,811.861 1965.41,748.73 
  1966.43,698.31 1967.45,774.607 1968.47,764.435 1969.49,874.702 1970.51,872.493 1971.53,822.003 1972.55,862.385 1973.57,917.837 1974.59,1030.95 1975.61,1035.27 
  1976.63,1076.07 1977.65,1075.71 1978.67,1050.52 1979.69,972.791 1980.71,950.765 1981.73,886.398 1982.74,827.39 1983.76,876.234 1984.78,1010.01 1985.8,870.287 
  1986.82,890.754 1987.84,990.787 1988.86,976.999 1989.88,826.53 1990.9,932.775 1991.92,837.156 1992.94,843.504 1993.96,752.922 1994.98,716.963 1996,715.867 
  1997.02,818.008 1998.04,766.725 1999.05,717.863 2000.07,784.879 2001.09,886.252 2002.11,849.665 2003.13,705.237 2004.15,693.904 2005.17,712.32 2006.19,693.897 
  2007.21,660.885 2008.23,452.743 2009.25,491.11 2010.27,489.89 2011.29,474.836 2012.31,476.848 2013.33,619.554 2014.35,602.239 2015.37,609.649 2016.38,647.522 
  2017.4,500.648 2018.42,531.743 2019.44,616.749 2020.46,617.902 2021.48,761.428 2022.5,737.121 2023.52,566.605 2024.54,605.326 2025.56,648.353 2026.58,853.316 
  2027.6,1017.83 2028.62,1028.37 2029.64,899.106 2030.66,867.233 2031.68,966.069 2032.69,1041.5 2033.71,1010.87 2034.73,928.154 2035.75,850.92 2036.77,718.943 
  2037.79,777.174 2038.81,726.951 2039.83,827.87 2040.85,864.624 2041.87,1067.58 2042.89,1161.75 2043.91,1080.43 2044.93,1080.5 2045.95,984.062 2046.97,1034.8 
  2047.99,1045.84 2049.01,1107.48 2050.02,883.506 2051.04,895.567 2052.06,978.727 2053.08,976.181 2054.1,1014.57 2055.12,939.702 2056.14,918.347 2057.16,1110.31 
  2058.18,973.419 2059.2,1013.9 2060.22,1007.41 2061.24,983.865 2062.26,965.389 2063.28,980.305 2064.3,940.743 2065.32,1091.02 2066.34,1005.91 2067.35,955.525 
  2068.37,963.141 2069.39,950.305 2070.41,1021.71 2071.43,934.315 2072.45,763.6 2073.47,589.785 2074.49,570.101 2075.51,698.739 2076.53,792.496 2077.55,865.114 
  2078.57,1054.74 2079.59,1076.42 2080.61,950.575 2081.63,1055.68 2082.65,934.94 2083.66,948.464 2084.68,1017 2085.7,1094.32 2086.72,1140.39 2087.74,1188.81 
  2088.76,1000.6 2089.78,1106.11 2090.8,1164.98 2091.82,1250.73 2092.84,1209.04 2093.86,1247.72 2094.88,1182.3 2095.9,1212.17 2096.92,1190.98 2097.94,1140.44 
  2098.96,1353.84 2099.98,1247.64 2100.99,1369.11 2102.01,1297.33 2103.03,1102.47 2104.05,1093.23 2105.07,1063.76 2106.09,1052.77 2107.11,1034.95 2108.13,1030.53 
  2109.15,936.94 2110.17,1067.18 2111.19,1048.58 2112.21,1144 2113.23,885.064 2114.25,956.071 2115.27,874.966 2116.29,754.314 2117.31,730.212 2118.32,780.584 
  2119.34,835.662 2120.36,825.394 2121.38,977.17 2122.4,1063.43 2123.42,974.6 2124.44,877.851 2125.46,672.671 2126.48,712.209 2127.5,752.29 2128.52,627.088 
  2129.54,643.813 2130.56,695.613 2131.58,835.821 2132.6,838.938 2133.62,786.388 2134.63,655.166 2135.65,791.483 2136.67,839.709 2137.69,954.091 2138.71,932.13 
  2139.73,1011.26 2140.75,1001.4 2141.77,1026.31 2142.79,1043.01 2143.81,1054.08 2144.83,984.229 2145.85,928.727 2146.87,1001.13 2147.89,973.695 2148.91,843.418 
  2149.93,779.997 2150.95,852.7 2151.96,845.671 2152.98,954.957 2154,1074.32 2155.02,1237.33 2156.04,1251.49 2157.06,1134.6 2158.08,1060.5 2159.1,981.5 
  2160.12,1056.7 2161.14,1158.89 2162.16,1061.41 2163.18,1028.43 2164.2,922.613 2165.22,1114.6 2166.24,907.593 2167.26,855.092 2168.28,870.895 2169.29,737.187 
  2170.31,848.202 2171.33,940.96 2172.35,971.413 2173.37,932.184 2174.39,1063.05 2175.41,1031.21 2176.43,1126.07 2177.45,1130.87 2178.47,1131.85 2179.49,1413.47 
  2180.51,1225.35 2181.53,1284.97 2182.55,1205.85 2183.57,1044.35 2184.59,925.117 2185.6,995.326 2186.62,987.914 2187.64,1002.81 2188.66,945.105 2189.68,947.553 
  2190.7,856.388 2191.72,839.513 2192.74,1002 2193.76,1049.94 2194.78,1029.43 2195.8,1086.45 2196.82,1057.52 2197.84,1157.6 2198.86,1022.79 2199.88,1057.33 
  2200.9,1211.21 2201.92,1057.37 2202.93,989.233 2203.95,975.064 2204.97,964.472 2205.99,1153.07 2207.01,931.074 2208.03,1014.53 2209.05,1001.46 2210.07,913.592 
  2211.09,948.218 2212.11,944.322 2213.13,957.176 2214.15,1032.94 2215.17,1041.57 2216.19,1116.5 2217.21,1236.91 2218.23,1107.46 2219.25,1209.05 2220.26,1064.81 
  2221.28,985.366 2222.3,985.507 2223.32,1003.73 2224.34,927.014 2225.36,809.661 2226.38,808.077 2227.4,865.331 2228.42,865.635 2229.44,697.092 2230.46,752.275 
  2231.48,740.9 2232.5,756.428 2233.52,991.903 2234.54,1008.95 2235.56,986.493 2236.57,784.387 2237.59,803.637 2238.61,907.398 2239.63,757.029 2240.65,636.029 
  2241.67,563.081 2242.69,509.62 2243.71,477.713 2244.73,452.006 2245.75,546.551 2246.77,605.487 2247.79,536.649 2248.81,573.529 2249.83,522.424 2250.85,585.692 
  2251.87,672.75 2252.89,789.369 2253.9,823.407 2254.92,917.207 2255.94,882.567 2256.96,863.929 2257.98,801.731 2259,854.435 2260.02,861.213 2261.04,908.346 
  2262.06,950.8 2263.08,973.017 2264.1,968.364 2265.12,988.899 2266.14,971.173 2267.16,995.013 2268.18,1142.9 2269.2,1122.77 2270.22,1146.94 2271.23,946.631 
  2272.25,1108.6 2273.27,1146.77 2274.29,1131.86 2275.31,841.415 2276.33,886.821 2277.35,835.031 2278.37,839.436 2279.39,753.75 2280.41,834.883 2281.43,863.968 
  2282.45,691.247 2283.47,773.304 2284.49,613.045 2285.51,617.399 2286.53,731.906 2287.54,822.336 2288.56,972.441 2289.58,1185.18 2290.6,1187.68 2291.62,944.349 
  
  "/>
<polyline clip-path="url(#clip422)" style="stroke:#e26f46; stroke-linecap:butt; stroke-linejoin:round; stroke-width:4; stroke-opacity:1; fill:none" points="
  253.843,635.063 254.862,539.78 255.881,474.11 256.901,495.823 257.92,371.655 258.94,603.63 259.959,643.509 260.978,567.902 261.998,306.926 263.017,154.613 
  264.037,419.478 265.056,506.409 266.075,552.169 267.095,647.899 268.114,724.167 269.134,534.008 270.153,498.392 271.172,399.957 272.192,487.594 273.211,478.098 
  274.231,511.396 275.25,493.897 276.269,470.516 277.289,695.015 278.308,634.859 279.328,743.114 280.347,694.609 281.366,649.878 282.386,586.726 283.405,518.131 
  284.425,512.935 285.444,509.439 286.463,483.507 287.483,426.995 288.502,433.04 289.522,573.657 290.541,418.802 291.56,506.014 292.58,502.896 293.599,643.243 
  294.619,608.693 295.638,474.548 296.657,402.327 297.677,444.946 298.696,419.815 299.716,400.931 300.735,620.305 301.754,582.717 302.774,652.599 303.793,582.708 
  304.813,331.172 305.832,224.38 306.851,382.251 307.871,325.276 308.89,318.866 309.91,379.35 310.929,492.001 311.948,639.073 312.968,590.559 313.987,608.981 
  315.007,651.096 316.026,780.377 317.045,756.395 318.065,787.654 319.084,746.218 320.104,916.217 321.123,803.72 322.142,626.901 323.162,720.58 324.181,620.911 
  325.201,722.097 326.22,660.538 327.239,819.387 328.259,870.35 329.278,827.703 330.298,748.302 331.317,798.915 332.336,802.055 333.356,577.168 334.375,690.388 
  335.395,627.071 336.414,818.541 337.433,855.959 338.453,849.691 339.472,677.435 340.492,557.512 341.511,619.173 342.53,616.898 343.55,502.499 344.569,469.011 
  345.589,592.458 346.608,570.436 347.627,491.641 348.647,612.264 349.666,743.356 350.686,655.507 351.705,609.319 352.724,722.58 353.744,809.104 354.763,781.914 
  355.783,772.904 356.802,768.87 357.821,675.692 358.841,685.622 359.86,802.314 360.88,741.618 361.899,691.744 362.918,574.271 363.938,444.509 364.957,489.409 
  365.977,625.477 366.996,665.297 368.015,712.969 369.035,693.218 370.054,689.805 371.074,711.151 372.093,689.827 373.112,719.466 374.132,586.358 375.151,630.844 
  376.171,679.303 377.19,653.207 378.209,673.769 379.229,647.395 380.248,750.044 381.268,750.465 382.287,671.44 383.306,615.824 384.326,414.191 385.345,578.557 
  386.365,396.861 387.384,591.01 388.403,646.194 389.423,694.404 390.442,767.106 391.462,838.72 392.481,960.654 393.5,799.885 394.52,609.762 395.539,616.339 
  396.559,564.903 397.578,472.23 398.597,617.194 399.617,492.219 400.636,571.421 401.656,668.736 402.675,777.921 403.694,667.678 404.714,598.781 405.733,666.837 
  406.753,555.901 407.772,683.387 408.791,651.302 409.811,529.293 410.83,443.357 411.85,628.543 412.869,385.512 413.888,522.805 414.908,741.747 415.927,863.089 
  416.946,862.349 417.966,670.467 418.985,791.253 420.005,680.924 421.024,566.477 422.043,549.403 423.063,579.673 424.082,621.373 425.102,496.097 426.121,494.834 
  427.14,723.398 428.16,759.872 429.179,797.604 430.199,871.781 431.218,703.44 432.237,788.774 433.257,847.015 434.276,886.923 435.296,944.714 436.315,931.427 
  437.334,915.456 438.354,838.383 439.373,677.587 440.393,649.932 441.412,722.317 442.431,659.35 443.451,659.558 444.47,687.018 445.49,607.142 446.509,613.255 
  447.528,515.693 448.548,375.141 449.567,600.042 450.587,693.7 451.606,652.624 452.625,629 453.645,690.486 454.664,566.615 455.684,666.023 456.703,729.618 
  457.722,823.995 458.742,685.158 459.761,707.112 460.781,683.21 461.8,764.277 462.819,748.731 463.839,808.222 464.858,739.887 465.878,737.395 466.897,867.46 
  467.916,786.746 468.936,672.182 469.955,708.849 470.975,490.601 471.994,693.241 473.013,712.971 474.033,659.067 475.052,713.984 476.072,756 477.091,689.278 
  478.11,629.359 479.13,686.632 480.149,690.892 481.169,740.81 482.188,602.109 483.207,477.247 484.227,576.587 485.246,660.272 486.266,577.713 487.285,555.914 
  488.304,568.087 489.324,551.987 490.343,505.367 491.363,485.423 492.382,430.238 493.401,447.193 494.421,466.538 495.44,524.809 496.46,478.43 497.479,614.748 
  498.498,679.024 499.518,876.574 500.537,816.289 501.557,760.58 502.576,704.623 503.595,810.441 504.615,730.26 505.634,725.065 506.654,697.954 507.673,837.978 
  508.692,897.966 509.712,848.514 510.731,858.536 511.751,761.897 512.77,765.391 513.789,628.419 514.809,595.408 515.828,687.454 516.848,800.734 517.867,716.955 
  518.886,648.224 519.906,728.655 520.925,742.903 521.945,724.881 522.964,833.699 523.983,720.77 525.003,863.776 526.022,805.474 527.042,722.318 528.061,657.054 
  529.08,819.693 530.1,676.954 531.119,588.295 532.139,557.887 533.158,277.365 534.177,421.745 535.197,509.201 536.216,729.996 537.236,801.306 538.255,685.014 
  539.274,617.388 540.294,547.421 541.313,472.193 542.333,600.37 543.352,603.103 544.371,569.804 545.391,550.131 546.41,594.504 547.43,562.329 548.449,541.534 
  549.468,773.076 550.488,623.511 551.507,647.92 552.527,424.955 553.546,370.853 554.565,317.365 555.585,294.921 556.604,332.769 557.624,293.529 558.643,443.601 
  559.662,477.218 560.682,636.529 561.701,511.347 562.721,609.252 563.74,464.066 564.759,454.558 565.779,482.115 566.798,371.853 567.818,336.668 568.837,541.19 
  569.856,520.875 570.876,420.196 571.895,392.865 572.915,466.553 573.934,498.955 574.953,646.766 575.973,549.954 576.992,675.997 578.012,574.092 579.031,522.091 
  580.05,551.906 581.07,549.684 582.089,595.961 583.109,541.135 584.128,497.908 585.147,380.58 586.167,500.224 587.186,401.633 588.206,380.976 589.225,371.657 
  590.244,408.817 591.264,517.065 592.283,607.677 593.303,564.053 594.322,446.374 595.341,571.506 596.361,667.998 597.38,681.017 598.4,822.223 599.419,923.302 
  600.438,858.429 601.458,815.24 602.477,885.115 603.497,904.724 604.516,817.888 605.535,757.628 606.555,826.632 607.574,936.012 608.594,879.097 609.613,698.018 
  610.632,714.081 611.652,612.188 612.671,536.397 613.691,629.141 614.71,461.203 615.729,533.026 616.749,542.871 617.768,497.886 618.788,790.626 619.807,670.862 
  620.826,591.916 621.846,557.609 622.865,578.772 623.885,641.019 624.904,595.173 625.923,604.127 626.943,598.723 627.962,623.008 628.982,489.138 630.001,391.734 
  631.02,442.262 632.04,539.754 633.059,580.312 634.079,532.133 635.098,536.034 636.117,791.891 637.137,793.915 638.156,656.448 639.176,733.684 640.195,649.686 
  641.214,570.639 642.234,402.576 643.253,308.913 644.273,573.497 645.292,662.679 646.311,691.257 647.331,783.541 648.35,743.246 649.37,692.022 650.389,747.221 
  651.408,654.784 652.428,568.958 653.447,708.152 654.467,708.955 655.486,757.697 656.505,601.12 657.525,563.041 658.544,592.231 659.564,514.486 660.583,440.461 
  661.602,563.175 662.622,519.408 663.641,596.333 664.661,637.923 665.68,678.965 666.699,653.654 667.719,729.075 668.738,695.951 669.758,665.752 670.777,680.512 
  671.796,634.646 672.816,536.293 673.835,578.372 674.855,541.433 675.874,683.614 676.893,828.467 677.913,887.251 678.932,727.281 679.952,668.516 680.971,663.137 
  681.99,682.13 683.01,678.828 684.029,668.332 685.049,640.283 686.068,662.136 687.087,680.534 688.107,542.528 689.126,660.063 690.146,648.015 691.165,552.249 
  692.184,526.322 693.204,530.389 694.223,646.366 695.243,621.506 696.262,530.73 697.281,621.318 698.301,500.885 699.32,559.19 700.34,531.885 701.359,523.752 
  702.378,526.615 703.398,424.305 704.417,640.388 705.437,706.897 706.456,761.433 707.475,801.593 708.495,813.366 709.514,582.133 710.534,455.101 711.553,640.985 
  712.572,676.302 713.592,723.737 714.611,708.284 715.631,501.46 716.65,650.159 717.669,732.045 718.689,638.561 719.708,712.717 720.728,757.112 721.747,684.504 
  722.766,747.997 723.786,732.162 724.805,924.75 725.825,757.717 726.844,584.127 727.863,568.49 728.883,716.998 729.902,608.556 730.922,709.688 731.941,748.142 
  732.96,386.906 733.98,347.568 734.999,288.806 736.019,360.709 737.038,412.346 738.057,368.156 739.077,276.384 740.096,300.194 741.116,350.431 742.135,331.294 
  743.154,415.157 744.174,403.804 745.193,356.627 746.213,415.949 747.232,405.146 748.251,440.311 749.271,369.062 750.29,260.908 751.31,241.559 752.329,299.334 
  753.348,333.8 754.368,500.111 755.387,495.454 756.407,628.862 757.426,750.019 758.445,786.318 759.465,612.912 760.484,708.959 761.504,617.255 762.523,549.203 
  763.542,464.289 764.562,400.926 765.581,362.497 766.601,626.166 767.62,586.5 768.639,636.639 769.659,432.173 770.678,592.744 771.698,623.504 772.717,604.678 
  773.736,720.132 774.756,836.641 775.775,888.162 776.795,853.898 777.814,782.983 778.833,832.468 779.853,883.197 780.872,963.091 781.892,901.897 782.911,858.221 
  783.93,819.011 784.95,922.269 785.969,800.45 786.989,788.358 788.008,851.814 789.027,793.78 790.047,614.606 791.066,428.697 792.086,454.593 793.105,515.289 
  794.124,649.519 795.144,496.128 796.163,565.085 797.183,618.033 798.202,597.68 799.221,620.724 800.241,602.35 801.26,701.099 802.28,626.444 803.299,520.019 
  804.318,509.096 805.338,566.386 806.357,663.376 807.377,744.786 808.396,808.446 809.415,730.392 810.435,767.038 811.454,706.442 812.474,866.995 813.493,729.178 
  814.512,836.505 815.532,852.241 816.551,829.436 817.571,859.919 818.59,879.429 819.609,813.681 820.629,738.271 821.648,883.647 822.668,797.728 823.687,849.135 
  824.706,842.733 825.726,843.008 826.745,777.06 827.765,819.648 828.784,894.079 829.803,780.38 830.823,701.604 831.842,566.815 832.862,534.01 833.881,538.968 
  834.9,334.224 835.92,343.895 836.939,546.067 837.959,324.626 838.978,218.866 839.997,406.395 841.017,431.423 842.036,382.893 843.056,624.022 844.075,631.492 
  845.094,771.014 846.114,810.963 847.133,616.229 848.153,483.717 849.172,506.48 850.191,546.369 851.211,555.588 852.23,558.538 853.25,548.62 854.269,628.833 
  855.288,783.444 856.308,733.556 857.327,932.15 858.347,885.618 859.366,896.352 860.385,888.227 861.405,772.798 862.424,736.345 863.444,759.487 864.463,840.857 
  865.482,875.452 866.502,799.596 867.521,566.978 868.541,488.502 869.56,394.416 870.579,284.241 871.599,521.929 872.618,572.393 873.638,697.239 874.657,890.703 
  875.676,781.244 876.696,541.48 877.715,467.579 878.735,571.869 879.754,742.632 880.773,741.894 881.793,621.777 882.812,588.793 883.832,691.44 884.851,624.635 
  885.87,497.145 886.89,499.308 887.909,586.663 888.929,665.894 889.948,637.618 890.967,639.827 891.987,673.609 893.006,642.341 894.026,710.674 895.045,617.222 
  896.064,611.699 897.084,542.488 898.103,670.899 899.123,597.302 900.142,583.969 901.161,416.27 902.181,434.167 903.2,483.166 904.22,417.939 905.239,380.918 
  906.258,470.533 907.278,579.915 908.297,585.11 909.317,497.134 910.336,596.378 911.355,583.79 912.375,596.634 913.394,596.402 914.414,553.298 915.433,760.787 
  916.452,843.256 917.472,955.215 918.491,1069.27 919.511,974.501 920.53,912.062 921.549,898.298 922.569,854.845 923.588,882.93 924.608,865.961 925.627,920.74 
  926.646,782.644 927.666,737.199 928.685,911.804 929.705,927.294 930.724,885.759 931.743,733.49 932.763,778.941 933.782,660.423 934.802,875.79 935.821,826.001 
  936.84,657.831 937.86,714.389 938.879,658.754 939.899,695.478 940.918,546.138 941.937,601.163 942.957,428.558 943.976,545.949 944.996,500.744 946.015,549.677 
  947.034,506.548 948.054,494.028 949.073,546.675 950.093,487.31 951.112,640.245 952.131,565.925 953.151,526.759 954.17,389.391 955.19,555.174 956.209,504.291 
  957.228,726.194 958.248,723.819 959.267,742.105 960.287,890.092 961.306,851.392 962.325,819.296 963.345,779.316 964.364,754.036 965.384,804.181 966.403,718.696 
  967.422,744.072 968.442,706.338 969.461,600.432 970.481,610.491 971.5,687.5 972.519,621.81 973.539,625.937 974.558,691.218 975.578,666.261 976.597,793.313 
  977.616,864.198 978.636,697.116 979.655,663.615 980.675,688.978 981.694,658.848 982.713,839.127 983.733,774.006 984.752,760.449 985.772,827.663 986.791,799.907 
  987.81,823.038 988.83,876.481 989.849,838.283 990.869,905.547 991.888,745.884 992.907,723.814 993.927,612.546 994.946,455.991 995.966,544.652 996.985,449.73 
  998.004,410.995 999.024,579.027 1000.04,534.579 1001.06,404.484 1002.08,369.56 1003.1,670.384 1004.12,740.128 1005.14,555.761 1006.16,613.664 1007.18,726.135 
  1008.2,650.604 1009.22,648.793 1010.24,398.778 1011.26,443.998 1012.28,449.198 1013.3,468.842 1014.31,482.134 1015.33,721.021 1016.35,749.059 1017.37,639.628 
  1018.39,625.159 1019.41,687.03 1020.43,655.642 1021.45,622.167 1022.47,616.034 1023.49,651.77 1024.51,419.56 1025.53,570.828 1026.55,497.253 1027.57,485.488 
  1028.59,423.932 1029.61,512.862 1030.63,416.818 1031.64,336.227 1032.66,486.147 1033.68,478.547 1034.7,317.083 1035.72,257.326 1036.74,319.793 1037.76,330.523 
  1038.78,579.278 1039.8,690.085 1040.82,746.604 1041.84,628.636 1042.86,782.739 1043.88,704.138 1044.9,709.609 1045.92,790.868 1046.94,728.41 1047.95,721.172 
  1048.97,724.147 1049.99,783.851 1051.01,678.049 1052.03,501.408 1053.05,472.127 1054.07,703.496 1055.09,639.356 1056.11,661.783 1057.13,735.709 1058.15,680.302 
  1059.17,702.804 1060.19,761.995 1061.21,763.972 1062.23,624.549 1063.25,701.504 1064.27,745.29 1065.28,767.23 1066.3,747.619 1067.32,654.405 1068.34,718.529 
  1069.36,792.507 1070.38,581.077 1071.4,545.123 1072.42,500.169 1073.44,577.485 1074.46,645.149 1075.48,544.918 1076.5,604.053 1077.52,585.788 1078.54,516.752 
  1079.56,562.469 1080.58,626.226 1081.6,662.02 1082.61,726.185 1083.63,608.63 1084.65,644.201 1085.67,571.337 1086.69,716.114 1087.71,896.291 1088.73,797.152 
  1089.75,807.467 1090.77,891.667 1091.79,758.069 1092.81,679.626 1093.83,698.455 1094.85,685.464 1095.87,487.025 1096.89,437.714 1097.91,602.71 1098.92,415.4 
  1099.94,401.021 1100.96,303.571 1101.98,530.947 1103,540.802 1104.02,607.028 1105.04,574.097 1106.06,747.716 1107.08,697.561 1108.1,722.82 1109.12,757.111 
  1110.14,799.805 1111.16,792.294 1112.18,942.941 1113.2,844.832 1114.22,763.598 1115.24,746.676 1116.25,672.768 1117.27,706.884 1118.29,798.192 1119.31,705.888 
  1120.33,619.913 1121.35,568.479 1122.37,455.246 1123.39,233.807 1124.41,265.936 1125.43,434.023 1126.45,510.306 1127.47,523.982 1128.49,509.634 1129.51,466.077 
  1130.53,430.554 1131.55,458.51 1132.57,418.864 1133.58,324.624 1134.6,339.54 1135.62,253.399 1136.64,251.378 1137.66,563.709 1138.68,523.807 1139.7,452.059 
  1140.72,271.561 1141.74,319.234 1142.76,331.149 1143.78,412.35 1144.8,576.399 1145.82,455.361 1146.84,438.215 1147.86,394.389 1148.88,394.095 1149.89,440.46 
  1150.91,248.087 1151.93,421.599 1152.95,440.292 1153.97,380.547 1154.99,474.83 1156.01,449.866 1157.03,428.646 1158.05,488.376 1159.07,383.551 1160.09,553.9 
  1161.11,510.978 1162.13,531.007 1163.15,565.327 1164.17,571.055 1165.19,587.937 1166.21,653.879 1167.22,623.058 1168.24,560.596 1169.26,434.189 1170.28,244.188 
  1171.3,426.535 1172.32,441.754 1173.34,540.496 1174.36,589.662 1175.38,417.812 1176.4,482.903 1177.42,398.565 1178.44,599.29 1179.46,579.343 1180.48,570.38 
  1181.5,681.605 1182.52,648.607 1183.54,424.954 1184.55,488.65 1185.57,478.156 1186.59,570.815 1187.61,536.668 1188.63,372.944 1189.65,374.847 1190.67,231.752 
  1191.69,236.37 1192.71,321.755 1193.73,276.852 1194.75,465.959 1195.77,410.747 1196.79,246.91 1197.81,325.922 1198.83,624.048 1199.85,897.748 1200.86,914.393 
  1201.88,887.919 1202.9,854.635 1203.92,803.493 1204.94,803.599 1205.96,810.386 1206.98,736.015 1208,788.899 1209.02,835.649 1210.04,764.791 1211.06,730.664 
  1212.08,608.132 1213.1,430.015 1214.12,403.566 1215.14,149.973 1216.16,150.103 1217.18,161.676 1218.19,438.367 1219.21,306.694 1220.23,290.539 1221.25,420.739 
  1222.27,347.361 1223.29,449.517 1224.31,404.13 1225.33,468.76 1226.35,476.544 1227.37,424.45 1228.39,406.187 1229.41,392.595 1230.43,548.024 1231.45,471.486 
  1232.47,590.737 1233.49,368.814 1234.51,417.299 1235.52,370.174 1236.54,360.493 1237.56,447.912 1238.58,387.115 1239.6,506.803 1240.62,514.094 1241.64,413.554 
  1242.66,472.445 1243.68,628.378 1244.7,552.884 1245.72,439.674 1246.74,479.858 1247.76,474.792 1248.78,322.991 1249.8,570.794 1250.82,654.63 1251.83,641.068 
  1252.85,392.417 1253.87,497.288 1254.89,462.828 1255.91,355.532 1256.93,528.926 1257.95,678.418 1258.97,568.748 1259.99,746.242 1261.01,717.004 1262.03,728.586 
  1263.05,599.523 1264.07,626.847 1265.09,475.233 1266.11,388.904 1267.13,508.691 1268.15,625.997 1269.16,601.558 1270.18,704.607 1271.2,685.058 1272.22,826.087 
  1273.24,749.829 1274.26,804.481 1275.28,745.42 1276.3,866.852 1277.32,823.053 1278.34,665.895 1279.36,674.775 1280.38,632.443 1281.4,524.284 1282.42,457.269 
  1283.44,524.855 1284.46,567.003 1285.48,623.493 1286.49,735.486 1287.51,792.195 1288.53,793.347 1289.55,797.404 1290.57,827.881 1291.59,738.825 1292.61,691.277 
  1293.63,410.438 1294.65,475.568 1295.67,533.128 1296.69,429.792 1297.71,429.21 1298.73,623.247 1299.75,461.128 1300.77,553.178 1301.79,731.912 1302.8,741.349 
  1303.82,781.576 1304.84,625.494 1305.86,617.098 1306.88,635.346 1307.9,668.279 1308.92,692.598 1309.94,769.119 1310.96,793.818 1311.98,548.748 1313,690.043 
  1314.02,560.708 1315.04,505.884 1316.06,544.53 1317.08,631.32 1318.1,655.421 1319.12,553.9 1320.13,346.201 1321.15,342.95 1322.17,474.317 1323.19,331.69 
  1324.21,365.249 1325.23,410.726 1326.25,318.431 1327.27,474.36 1328.29,578.402 1329.31,630.52 1330.33,611.549 1331.35,548.984 1332.37,591.872 1333.39,533.424 
  1334.41,581.715 1335.43,627.762 1336.45,603.674 1337.46,727.183 1338.48,558.481 1339.5,774.479 1340.52,661.026 1341.54,656.351 1342.56,665.837 1343.58,498.884 
  1344.6,436.486 1345.62,481.182 1346.64,282.789 1347.66,419.115 1348.68,331.517 1349.7,447.446 1350.72,499.552 1351.74,465.254 1352.76,608.083 1353.77,550.782 
  1354.79,607.513 1355.81,537.345 1356.83,613.037 1357.85,498.351 1358.87,554.93 1359.89,630.13 1360.91,554.392 1361.93,635.92 1362.95,471.187 1363.97,492.314 
  1364.99,534.117 1366.01,629.026 1367.03,519.103 1368.05,727.976 1369.07,663.66 1370.09,692.947 1371.1,824.947 1372.12,751.09 1373.14,815.843 1374.16,790.777 
  1375.18,602.272 1376.2,698.789 1377.22,564.672 1378.24,554.862 1379.26,720.293 1380.28,620.179 1381.3,489.474 1382.32,441.167 1383.34,342.566 1384.36,348.878 
  1385.38,618.867 1386.4,615.501 1387.41,523.92 1388.43,524.615 1389.45,539.469 1390.47,657.842 1391.49,575.852 1392.51,572.537 1393.53,317.522 1394.55,507.323 
  1395.57,337.263 1396.59,193.641 1397.61,157.688 1398.63,324.718 1399.65,270.649 1400.67,206.466 1401.69,370.217 1402.71,157.944 1403.73,254.717 1404.74,328.417 
  1405.76,414.386 1406.78,394.77 1407.8,545.455 1408.82,729.892 1409.84,610.574 1410.86,690.123 1411.88,660.175 1412.9,597.954 1413.92,528.057 1414.94,582.627 
  1415.96,459.355 1416.98,641.645 1418,540.163 1419.02,411.833 1420.04,432.196 1421.06,552.16 1422.07,592.926 1423.09,576.183 1424.11,445.178 1425.13,448.132 
  1426.15,349.76 1427.17,666.82 1428.19,609.508 1429.21,815.579 1430.23,815.822 1431.25,671.166 1432.27,605.036 1433.29,419.087 1434.31,371.661 1435.33,376.336 
  1436.35,549.509 1437.37,571.589 1438.38,584.143 1439.4,645.825 1440.42,703.041 1441.44,713.104 1442.46,771.749 1443.48,661.958 1444.5,882.414 1445.52,801.516 
  1446.54,751.058 1447.56,835.381 1448.58,796.078 1449.6,737.741 1450.62,682.324 1451.64,576.969 1452.66,604.946 1453.68,643.839 1454.7,541.67 1455.71,428.77 
  1456.73,408.576 1457.75,474.871 1458.77,580.198 1459.79,465.183 1460.81,631.87 1461.83,695.781 1462.85,784.592 1463.87,795.054 1464.89,864.802 1465.91,883.757 
  1466.93,867.11 1467.95,636.353 1468.97,697.479 1469.99,580.929 1471.01,496.878 1472.03,487.984 1473.04,648.473 1474.06,588.504 1475.08,485.573 1476.1,519.777 
  1477.12,455.097 1478.14,324.064 1479.16,365.911 1480.18,570.544 1481.2,532.243 1482.22,418.496 1483.24,431.414 1484.26,338.098 1485.28,486.248 1486.3,524.666 
  1487.32,473.338 1488.34,344.918 1489.35,421.578 1490.37,292.494 1491.39,406.873 1492.41,568.531 1493.43,552.605 1494.45,692.858 1495.47,517.256 1496.49,539.032 
  1497.51,685.227 1498.53,721.03 1499.55,448.116 1500.57,392.741 1501.59,411.611 1502.61,394.559 1503.63,456.023 1504.65,499.937 1505.67,496.638 1506.68,355.148 
  1507.7,320.389 1508.72,528.184 1509.74,407.205 1510.76,282.594 1511.78,497.351 1512.8,346.712 1513.82,361.113 1514.84,430.196 1515.86,604.578 1516.88,639.583 
  1517.9,590.785 1518.92,633.561 1519.94,654.929 1520.96,670.618 1521.98,745.208 1523,711.885 1524.01,685.231 1525.03,702.64 1526.05,618.422 1527.07,650.935 
  1528.09,497.239 1529.11,377.513 1530.13,267.236 1531.15,488.442 1532.17,477.578 1533.19,531.641 1534.21,516.544 1535.23,641.93 1536.25,467.995 1537.27,462.498 
  1538.29,445.453 1539.31,397.189 1540.32,573.96 1541.34,525.663 1542.36,630.822 1543.38,661.26 1544.4,588.436 1545.42,639.09 1546.44,763.995 1547.46,737.424 
  1548.48,722.916 1549.5,729.104 1550.52,788.044 1551.54,832.949 1552.56,488.83 1553.58,610.47 1554.6,588.96 1555.62,612.791 1556.64,604.873 1557.65,627.664 
  1558.67,675.69 1559.69,788.834 1560.71,651.845 1561.73,528.199 1562.75,558.501 1563.77,527.822 1564.79,556.05 1565.81,761.761 1566.83,850.65 1567.85,869.941 
  1568.87,756.821 1569.89,684.815 1570.91,719.96 1571.93,555.481 1572.95,668.873 1573.97,639.529 1574.98,617.744 1576,598.984 1577.02,479.984 1578.04,565.608 
  1579.06,667.568 1580.08,497.214 1581.1,409.098 1582.12,651.225 1583.14,622.331 1584.16,403.794 1585.18,641.827 1586.2,641.652 1587.22,652.994 1588.24,528.545 
  1589.26,591.089 1590.28,583.179 1591.29,500.706 1592.31,476.068 1593.33,383.063 1594.35,554.634 1595.37,407.193 1596.39,488.821 1597.41,425.093 1598.43,533.236 
  1599.45,521.332 1600.47,623.941 1601.49,565.503 1602.51,613.461 1603.53,676.452 1604.55,623.407 1605.57,434.584 1606.59,402.742 1607.61,459.984 1608.62,404.007 
  1609.64,462.942 1610.66,646.046 1611.68,594.487 1612.7,482.759 1613.72,444.388 1614.74,408.743 1615.76,503.974 1616.78,581.925 1617.8,515.004 1618.82,640.512 
  1619.84,779.626 1620.86,725.168 1621.88,833.579 1622.9,865.038 1623.92,958.798 1624.94,968.979 1625.95,871.924 1626.97,843.753 1627.99,804.132 1629.01,873.816 
  1630.03,990.949 1631.05,866.796 1632.07,897.156 1633.09,635.934 1634.11,489.003 1635.13,594.337 1636.15,548.523 1637.17,707.055 1638.19,626.736 1639.21,529.394 
  1640.23,432.086 1641.25,465.062 1642.26,387.802 1643.28,421.826 1644.3,515.795 1645.32,713.818 1646.34,698.621 1647.36,742.342 1648.38,703.401 1649.4,724.132 
  1650.42,610.04 1651.44,624.147 1652.46,688.652 1653.48,759.43 1654.5,822.557 1655.52,785.134 1656.54,697.47 1657.56,719.253 1658.58,648.521 1659.59,646.676 
  1660.61,649.757 1661.63,634.984 1662.65,721.837 1663.67,783.381 1664.69,810.168 1665.71,984.663 1666.73,906.99 1667.75,467.857 1668.77,367.642 1669.79,477.046 
  1670.81,510.212 1671.83,541.844 1672.85,277.006 1673.87,326.751 1674.89,455.102 1675.91,428.798 1676.92,598.718 1677.94,315.18 1678.96,283.234 1679.98,374.71 
  1681,476.572 1682.02,524.135 1683.04,342.844 1684.06,376.129 1685.08,421.066 1686.1,481.383 1687.12,550.962 1688.14,572.814 1689.16,536.846 1690.18,499.626 
  1691.2,526.711 1692.22,547.34 1693.23,559.67 1694.25,706.019 1695.27,893.628 1696.29,974.87 1697.31,916.299 1698.33,915.384 1699.35,853.354 1700.37,840.673 
  1701.39,791.405 1702.41,730.56 1703.43,630.287 1704.45,605.49 1705.47,630.714 1706.49,712.052 1707.51,831.208 1708.53,819.337 1709.55,803.097 1710.56,699.619 
  1711.58,562.101 1712.6,344.388 1713.62,394.566 1714.64,216.131 1715.66,382.49 1716.68,335.829 1717.7,249.542 1718.72,428.971 1719.74,373.723 1720.76,461.033 
  1721.78,553.368 1722.8,591.429 1723.82,513.575 1724.84,579.428 1725.86,606.935 1726.88,542.606 1727.89,623.515 1728.91,658.704 1729.93,651.576 1730.95,309.74 
  1731.97,317.428 1732.99,281.575 1734.01,203.176 1735.03,407.992 1736.05,613.612 1737.07,629.948 1738.09,475.444 1739.11,442.37 1740.13,631.898 1741.15,486.745 
  1742.17,457.799 1743.19,471.481 1744.2,511.349 1745.22,520.619 1746.24,470.884 1747.26,398.003 1748.28,394.714 1749.3,521.067 1750.32,496.658 1751.34,257.087 
  1752.36,275.613 1753.38,330.341 1754.4,325.131 1755.42,578.856 1756.44,582.153 1757.46,559.924 1758.48,476.793 1759.5,619.698 1760.52,487.194 1761.53,463.269 
  1762.55,497.695 1763.57,441.544 1764.59,439.832 1765.61,551.834 1766.63,603.616 1767.65,608.871 1768.67,478.991 1769.69,594.413 1770.71,638.098 1771.73,740.083 
  1772.75,678.696 1773.77,745.627 1774.79,688.57 1775.81,548.723 1776.83,564.28 1777.85,544.8 1778.86,445.274 1779.88,294.584 1780.9,227.942 1781.92,87.9763 
  1782.94,466.728 1783.96,484.268 1784.98,528.294 1786,622.361 1787.02,771.774 1788.04,777.203 1789.06,773.997 1790.08,714.997 1791.1,649.291 1792.12,546.042 
  1793.14,639.063 1794.16,838.573 1795.17,889.716 1796.19,794.096 1797.21,864.904 1798.23,906.751 1799.25,848.19 1800.27,816.431 1801.29,687.054 1802.31,704.693 
  1803.33,780.5 1804.35,805.721 1805.37,757.838 1806.39,802.728 1807.41,614.816 1808.43,673.602 1809.45,739.967 1810.47,793.901 1811.49,896.389 1812.5,871.419 
  1813.52,903.347 1814.54,802.085 1815.56,670.546 1816.58,648.356 1817.6,731.496 1818.62,685.556 1819.64,676.515 1820.66,652.764 1821.68,751.802 1822.7,629.069 
  1823.72,844.491 1824.74,617.246 1825.76,425.09 1826.78,434.257 1827.8,436.187 1828.82,698.758 1829.83,830.754 1830.85,784.325 1831.87,842.684 1832.89,854.113 
  1833.91,834.999 1834.93,777.053 1835.95,637.817 1836.97,583.513 1837.99,538.418 1839.01,498.661 1840.03,521.627 1841.05,871.505 1842.07,885.197 1843.09,909.611 
  1844.11,815.414 1845.13,764.386 1846.14,844.94 1847.16,786.119 1848.18,787.854 1849.2,778.183 1850.22,678.632 1851.24,721.601 1852.26,757.832 1853.28,760.96 
  1854.3,741.544 1855.32,709.014 1856.34,588.49 1857.36,547.34 1858.38,487.914 1859.4,325.087 1860.42,572.702 1861.44,577.426 1862.46,446.432 1863.47,537.817 
  1864.49,505.995 1865.51,586.71 1866.53,499.105 1867.55,657.305 1868.57,731.913 1869.59,603.716 1870.61,438.457 1871.63,487.285 1872.65,374.374 1873.67,382.525 
  1874.69,659.777 1875.71,724.107 1876.73,801.147 1877.75,627.789 1878.77,666.622 1879.79,662.847 1880.8,616.785 1881.82,501.233 1882.84,620.796 1883.86,493.087 
  1884.88,603.253 1885.9,667.312 1886.92,528.117 1887.94,554.128 1888.96,639.802 1889.98,526.19 1891,569.006 1892.02,439.362 1893.04,510.592 1894.06,501.22 
  1895.08,508.031 1896.1,609.646 1897.11,574.345 1898.13,781.427 1899.15,859.244 1900.17,873.583 1901.19,787.047 1902.21,742.881 1903.23,853.207 1904.25,834.736 
  1905.27,721.997 1906.29,798.456 1907.31,705.053 1908.33,481.739 1909.35,732.159 1910.37,843.716 1911.39,720.804 1912.41,612.894 1913.43,561.052 1914.44,559.919 
  1915.46,631.849 1916.48,595.294 1917.5,705.051 1918.52,773.567 1919.54,799.616 1920.56,696.207 1921.58,876.773 1922.6,869.401 1923.62,789.078 1924.64,651.005 
  1925.66,621.792 1926.68,540.799 1927.7,662.164 1928.72,719.49 1929.74,704.743 1930.76,698.636 1931.77,677.893 1932.79,682.116 1933.81,595.923 1934.83,806.172 
  1935.85,857.787 1936.87,965.723 1937.89,955.244 1938.91,886.383 1939.93,861.197 1940.95,842.787 1941.97,799.897 1942.99,767.89 1944.01,783.358 1945.03,734.658 
  1946.05,641.442 1947.07,555.821 1948.08,515.648 1949.1,450.235 1950.12,603.682 1951.14,547.844 1952.16,689.71 1953.18,531.395 1954.2,724.952 1955.22,729.576 
  1956.24,880.107 1957.26,855.104 1958.28,817.165 1959.3,590.956 1960.32,469.301 1961.34,579.173 1962.36,579.771 1963.38,505.93 1964.4,576.158 1965.41,495.573 
  1966.43,403.78 1967.45,534.59 1968.47,585.887 1969.49,539.03 1970.51,753.138 1971.53,750.721 1972.55,635.246 1973.57,509.242 1974.59,649.352 1975.61,587.754 
  1976.63,698.924 1977.65,686.098 1978.67,662.167 1979.69,567.569 1980.71,613.95 1981.73,528.351 1982.74,610.729 1983.76,664.942 1984.78,780.693 1985.8,721.855 
  1986.82,711.711 1987.84,733.099 1988.86,729.246 1989.88,667.44 1990.9,574.841 1991.92,599.658 1992.94,678.308 1993.96,560.902 1994.98,550.7 1996,576.502 
  1997.02,475.038 1998.04,661.808 1999.05,580.454 2000.07,569.362 2001.09,665.808 2002.11,671.103 2003.13,758.206 2004.15,831.936 2005.17,724.163 2006.19,508.559 
  2007.21,428.713 2008.23,178.708 2009.25,307.546 2010.27,459.561 2011.29,561.313 2012.31,324.772 2013.33,266.39 2014.35,224.136 2015.37,281.19 2016.38,425.088 
  2017.4,394.611 2018.42,315.863 2019.44,327.916 2020.46,311.441 2021.48,231.849 2022.5,259.684 2023.52,351.854 2024.54,371.815 2025.56,472.313 2026.58,555.011 
  2027.6,468.702 2028.62,471.859 2029.64,610.549 2030.66,717.745 2031.68,743.408 2032.69,725.952 2033.71,677.444 2034.73,523.646 2035.75,642.826 2036.77,659.638 
  2037.79,800.135 2038.81,786.95 2039.83,745.986 2040.85,701.829 2041.87,647.957 2042.89,704.656 2043.91,667.833 2044.93,734.286 2045.95,664.34 2046.97,576.182 
  2047.99,452.524 2049.01,558.919 2050.02,618.292 2051.04,599.468 2052.06,488.511 2053.08,376.522 2054.1,395.088 2055.12,448.531 2056.14,465.577 2057.16,425.915 
  2058.18,418.191 2059.2,439.499 2060.22,507.392 2061.24,596.968 2062.26,615.066 2063.28,537.884 2064.3,631.819 2065.32,460.696 2066.34,382.847 2067.35,198.532 
  2068.37,311.057 2069.39,416.308 2070.41,295.507 2071.43,368.036 2072.45,605.943 2073.47,559.101 2074.49,555.413 2075.51,426.798 2076.53,516.201 2077.55,557.398 
  2078.57,603.633 2079.59,640.998 2080.61,631.231 2081.63,567.556 2082.65,645.638 2083.66,564.445 2084.68,596.536 2085.7,627.227 2086.72,614.444 2087.74,578.38 
  2088.76,680.694 2089.78,585.288 2090.8,573.136 2091.82,570.304 2092.84,785.45 2093.86,752.592 2094.88,620.411 2095.9,679.535 2096.92,466.366 2097.94,492.323 
  2098.96,665.521 2099.98,701.95 2100.99,678.484 2102.01,670.344 2103.03,678.984 2104.05,713.569 2105.07,844.354 2106.09,758.247 2107.11,870.263 2108.13,901.875 
  2109.15,794.453 2110.17,832.387 2111.19,644.49 2112.21,593.099 2113.23,571.886 2114.25,706.208 2115.27,818.231 2116.29,701.294 2117.31,852.942 2118.32,796.893 
  2119.34,961.466 2120.36,883.897 2121.38,812.765 2122.4,781.927 2123.42,778.969 2124.44,937.448 2125.46,924.355 2126.48,787.486 2127.5,851.385 2128.52,805.175 
  2129.54,856.209 2130.56,725.044 2131.58,641.187 2132.6,680.018 2133.62,709.618 2134.63,547.708 2135.65,683.016 2136.67,678.125 2137.69,806.397 2138.71,772.388 
  2139.73,782.113 2140.75,721.727 2141.77,398.218 2142.79,579.925 2143.81,560.004 2144.83,171.054 2145.85,333.264 2146.87,182.799 2147.89,192.297 2148.91,183.847 
  2149.93,205.502 2150.95,279.637 2151.96,359.813 2152.98,573.629 2154,546.772 2155.02,434.498 2156.04,441.977 2157.06,451.9 2158.08,427.072 2159.1,391.751 
  2160.12,574.359 2161.14,637.078 2162.16,601.442 2163.18,480.203 2164.2,541.265 2165.22,603.047 2166.24,557.939 2167.26,530.222 2168.28,330.343 2169.29,378.766 
  2170.31,490.96 2171.33,676.845 2172.35,729.181 2173.37,522.976 2174.39,525.456 2175.41,617.285 2176.43,734.387 2177.45,749.297 2178.47,491.089 2179.49,519.024 
  2180.51,568.027 2181.53,688.071 2182.55,700.715 2183.57,631.168 2184.59,735.032 2185.6,853.648 2186.62,818.209 2187.64,724.985 2188.66,518.382 2189.68,731.657 
  2190.7,634.237 2191.72,645.441 2192.74,479.499 2193.76,568.982 2194.78,602.651 2195.8,623.008 2196.82,647.018 2197.84,489.297 2198.86,509.162 2199.88,403.674 
  2200.9,405.09 2201.92,398.785 2202.93,487.541 2203.95,376.595 2204.97,325.809 2205.99,358.196 2207.01,335.177 2208.03,243.919 2209.05,388.999 2210.07,388.55 
  2211.09,353.497 2212.11,522.692 2213.13,451.883 2214.15,521.854 2215.17,506.949 2216.19,576.998 2217.21,752.217 2218.23,785.517 2219.25,823.103 2220.26,727.711 
  2221.28,803.593 2222.3,686.356 2223.32,823.084 2224.34,801.319 2225.36,745.044 2226.38,767.033 2227.4,690.585 2228.42,541.748 2229.44,493.679 2230.46,525.375 
  2231.48,543.763 2232.5,457.831 2233.52,586.958 2234.54,650.662 2235.56,607.682 2236.57,479.386 2237.59,507.61 2238.61,604.229 2239.63,594.602 2240.65,431.938 
  2241.67,425.429 2242.69,541.013 2243.71,593.368 2244.73,539.369 2245.75,479.373 2246.77,551.207 2247.79,623.165 2248.81,466.796 2249.83,533.349 2250.85,571.978 
  2251.87,615.408 2252.89,632.513 2253.9,734.215 2254.92,754.777 2255.94,754.872 2256.96,758.578 2257.98,837.102 2259,820.907 2260.02,879.438 2261.04,726.115 
  2262.06,645.953 2263.08,537.007 2264.1,493.417 2265.12,485.04 2266.14,371.566 2267.16,250.264 2268.18,114.386 2269.2,349.64 2270.22,342.818 2271.23,541.02 
  2272.25,739.832 2273.27,755.513 2274.29,578.515 2275.31,424.407 2276.33,717.399 2277.35,731.587 2278.37,836.661 2279.39,851.049 2280.41,670.731 2281.43,598.954 
  2282.45,583.368 2283.47,706.765 2284.49,715.201 2285.51,851.943 2286.53,773.656 2287.54,864.341 2288.56,794.436 2289.58,843.123 2290.6,825.838 2291.62,653.242 
  
  "/>
<path clip-path="url(#clip420)" d="
M1872.6 250.738 L2280.75 250.738 L2280.75 95.2176 L1872.6 95.2176  Z
  " fill="#ffffff" fill-rule="evenodd" fill-opacity="1"/>
<polyline clip-path="url(#clip420)" style="stroke:#000000; stroke-linecap:butt; stroke-linejoin:round; stroke-width:4; stroke-opacity:1; fill:none" points="
  1872.6,250.738 2280.75,250.738 2280.75,95.2176 1872.6,95.2176 1872.6,250.738 
  "/>
<polyline clip-path="url(#clip420)" style="stroke:#009af9; stroke-linecap:butt; stroke-linejoin:round; stroke-width:4; stroke-opacity:1; fill:none" points="
  1896.6,147.058 2040.61,147.058 
  "/>
<path clip-path="url(#clip420)" d="M2079.47 159.615 Q2080.3 160.726 2082.8 160.726 L2084.86 160.726 L2084.86 164.338 L2082.29 164.338 Q2078.12 164.338 2076.23 162.115 Q2074.33 159.847 2074.33 154.939 L2074.33 142.671 L2064.61 142.671 L2064.61 138.412 L2088.52 138.412 L2088.52 142.671 L2078.68 142.671 L2078.68 155.194 Q2078.68 158.551 2079.47 159.615 Z" fill="#000000" fill-rule="evenodd" fill-opacity="1" /><path clip-path="url(#clip420)" d="M2110.93 142.81 L2140.6 142.81 L2140.6 146.699 L2110.93 146.699 L2110.93 142.81 M2110.93 152.254 L2140.6 152.254 L2140.6 156.189 L2110.93 156.189 L2110.93 152.254 Z" fill="#000000" fill-rule="evenodd" fill-opacity="1" /><path clip-path="url(#clip420)" d="M2175.76 132.856 Q2172.15 132.856 2170.32 136.421 Q2168.52 139.963 2168.52 147.092 Q2168.52 154.199 2170.32 157.764 Q2172.15 161.305 2175.76 161.305 Q2179.4 161.305 2181.2 157.764 Q2183.03 154.199 2183.03 147.092 Q2183.03 139.963 2181.2 136.421 Q2179.4 132.856 2175.76 132.856 M2175.76 129.153 Q2181.57 129.153 2184.63 133.759 Q2187.71 138.342 2187.71 147.092 Q2187.71 155.819 2184.63 160.426 Q2181.57 165.009 2175.76 165.009 Q2169.95 165.009 2166.87 160.426 Q2163.82 155.819 2163.82 147.092 Q2163.82 138.342 2166.87 133.759 Q2169.95 129.153 2175.76 129.153 Z" fill="#000000" fill-rule="evenodd" fill-opacity="1" /><path clip-path="url(#clip420)" d="M2195.92 158.458 L2200.81 158.458 L2200.81 164.338 L2195.92 164.338 L2195.92 158.458 Z" fill="#000000" fill-rule="evenodd" fill-opacity="1" /><path clip-path="url(#clip420)" d="M2211.8 160.402 L2219.44 160.402 L2219.44 134.037 L2211.13 135.703 L2211.13 131.444 L2219.4 129.778 L2224.07 129.778 L2224.07 160.402 L2231.71 160.402 L2231.71 164.338 L2211.8 164.338 L2211.8 160.402 Z" fill="#000000" fill-rule="evenodd" fill-opacity="1" /><polyline clip-path="url(#clip420)" style="stroke:#e26f46; stroke-linecap:butt; stroke-linejoin:round; stroke-width:4; stroke-opacity:1; fill:none" points="
  1896.6,198.898 2040.61,198.898 
  "/>
<path clip-path="url(#clip420)" d="M2079.47 211.455 Q2080.3 212.566 2082.8 212.566 L2084.86 212.566 L2084.86 216.178 L2082.29 216.178 Q2078.12 216.178 2076.23 213.955 Q2074.33 211.687 2074.33 206.779 L2074.33 194.511 L2064.61 194.511 L2064.61 190.252 L2088.52 190.252 L2088.52 194.511 L2078.68 194.511 L2078.68 207.034 Q2078.68 210.391 2079.47 211.455 Z" fill="#000000" fill-rule="evenodd" fill-opacity="1" /><path clip-path="url(#clip420)" d="M2110.93 194.65 L2140.6 194.65 L2140.6 198.539 L2110.93 198.539 L2110.93 194.65 M2110.93 204.094 L2140.6 204.094 L2140.6 208.029 L2110.93 208.029 L2110.93 204.094 Z" fill="#000000" fill-rule="evenodd" fill-opacity="1" /><path clip-path="url(#clip420)" d="M2175.76 184.696 Q2172.15 184.696 2170.32 188.261 Q2168.52 191.803 2168.52 198.932 Q2168.52 206.039 2170.32 209.604 Q2172.15 213.145 2175.76 213.145 Q2179.4 213.145 2181.2 209.604 Q2183.03 206.039 2183.03 198.932 Q2183.03 191.803 2181.2 188.261 Q2179.4 184.696 2175.76 184.696 M2175.76 180.993 Q2181.57 180.993 2184.63 185.599 Q2187.71 190.182 2187.71 198.932 Q2187.71 207.659 2184.63 212.266 Q2181.57 216.849 2175.76 216.849 Q2169.95 216.849 2166.87 212.266 Q2163.82 207.659 2163.82 198.932 Q2163.82 190.182 2166.87 185.599 Q2169.95 180.993 2175.76 180.993 Z" fill="#000000" fill-rule="evenodd" fill-opacity="1" /><path clip-path="url(#clip420)" d="M2195.92 210.298 L2200.81 210.298 L2200.81 216.178 L2195.92 216.178 L2195.92 210.298 Z" fill="#000000" fill-rule="evenodd" fill-opacity="1" /><path clip-path="url(#clip420)" d="M2211.13 215.46 L2211.13 211.201 Q2212.89 212.034 2214.7 212.474 Q2216.5 212.914 2218.24 212.914 Q2222.87 212.914 2225.3 209.812 Q2227.75 206.687 2228.1 200.344 Q2226.76 202.335 2224.7 203.4 Q2222.64 204.465 2220.14 204.465 Q2214.95 204.465 2211.92 201.34 Q2208.91 198.192 2208.91 192.752 Q2208.91 187.428 2212.06 184.21 Q2215.21 180.993 2220.44 180.993 Q2226.43 180.993 2229.58 185.599 Q2232.75 190.182 2232.75 198.932 Q2232.75 207.104 2228.86 211.988 Q2225 216.849 2218.45 216.849 Q2216.69 216.849 2214.88 216.502 Q2213.08 216.154 2211.13 215.46 M2220.44 200.807 Q2223.59 200.807 2225.42 198.654 Q2227.27 196.502 2227.27 192.752 Q2227.27 189.025 2225.42 186.872 Q2223.59 184.696 2220.44 184.696 Q2217.29 184.696 2215.44 186.872 Q2213.61 189.025 2213.61 192.752 Q2213.61 196.502 2215.44 198.654 Q2217.29 200.807 2220.44 200.807 Z" fill="#000000" fill-rule="evenodd" fill-opacity="1" /></svg>
