<?xml version="1.0" encoding="utf-8"?>
<svg xmlns="http://www.w3.org/2000/svg" xmlns:xlink="http://www.w3.org/1999/xlink" width="600" height="400" viewBox="0 0 2400 1600">
<defs>
  <clipPath id="clip650">
    <rect x="0" y="0" width="2400" height="1600"/>
  </clipPath>
</defs>
<path clip-path="url(#clip650)" d="
M0 1600 L2400 1600 L2400 0 L0 0  Z
  " fill="#ffffff" fill-rule="evenodd" fill-opacity="1"/>
<defs>
  <clipPath id="clip651">
    <rect x="480" y="0" width="1681" height="1600"/>
  </clipPath>
</defs>
<path clip-path="url(#clip650)" d="
M192.709 1486.45 L2352.76 1486.45 L2352.76 47.2441 L192.709 47.2441  Z
  " fill="#ffffff" fill-rule="evenodd" fill-opacity="1"/>
<defs>
  <clipPath id="clip652">
    <rect x="192" y="47" width="2161" height="1440"/>
  </clipPath>
</defs>
<polyline clip-path="url(#clip652)" style="stroke:#000000; stroke-linecap:butt; stroke-linejoin:round; stroke-width:2; stroke-opacity:0.1; fill:none" points="
  252.824,1486.45 252.824,47.2441 
  "/>
<polyline clip-path="url(#clip652)" style="stroke:#000000; stroke-linecap:butt; stroke-linejoin:round; stroke-width:2; stroke-opacity:0.1; fill:none" points="
  762.269,1486.45 762.269,47.2441 
  "/>
<polyline clip-path="url(#clip652)" style="stroke:#000000; stroke-linecap:butt; stroke-linejoin:round; stroke-width:2; stroke-opacity:0.1; fill:none" points="
  1271.71,1486.45 1271.71,47.2441 
  "/>
<polyline clip-path="url(#clip652)" style="stroke:#000000; stroke-linecap:butt; stroke-linejoin:round; stroke-width:2; stroke-opacity:0.1; fill:none" points="
  1781.16,1486.45 1781.16,47.2441 
  "/>
<polyline clip-path="url(#clip652)" style="stroke:#000000; stroke-linecap:butt; stroke-linejoin:round; stroke-width:2; stroke-opacity:0.1; fill:none" points="
  2290.6,1486.45 2290.6,47.2441 
  "/>
<polyline clip-path="url(#clip650)" style="stroke:#000000; stroke-linecap:butt; stroke-linejoin:round; stroke-width:4; stroke-opacity:1; fill:none" points="
  192.709,1486.45 2352.76,1486.45 
  "/>
<polyline clip-path="url(#clip650)" style="stroke:#000000; stroke-linecap:butt; stroke-linejoin:round; stroke-width:4; stroke-opacity:1; fill:none" points="
  252.824,1486.45 252.824,1467.55 
  "/>
<polyline clip-path="url(#clip650)" style="stroke:#000000; stroke-linecap:butt; stroke-linejoin:round; stroke-width:4; stroke-opacity:1; fill:none" points="
  762.269,1486.45 762.269,1467.55 
  "/>
<polyline clip-path="url(#clip650)" style="stroke:#000000; stroke-linecap:butt; stroke-linejoin:round; stroke-width:4; stroke-opacity:1; fill:none" points="
  1271.71,1486.45 1271.71,1467.55 
  "/>
<polyline clip-path="url(#clip650)" style="stroke:#000000; stroke-linecap:butt; stroke-linejoin:round; stroke-width:4; stroke-opacity:1; fill:none" points="
  1781.16,1486.45 1781.16,1467.55 
  "/>
<polyline clip-path="url(#clip650)" style="stroke:#000000; stroke-linecap:butt; stroke-linejoin:round; stroke-width:4; stroke-opacity:1; fill:none" points="
  2290.6,1486.45 2290.6,1467.55 
  "/>
<path clip-path="url(#clip650)" d="M252.824 1517.37 Q249.213 1517.37 247.384 1520.93 Q245.578 1524.47 245.578 1531.6 Q245.578 1538.71 247.384 1542.27 Q249.213 1545.82 252.824 1545.82 Q256.458 1545.82 258.263 1542.27 Q260.092 1538.71 260.092 1531.6 Q260.092 1524.47 258.263 1520.93 Q256.458 1517.37 252.824 1517.37 M252.824 1513.66 Q258.634 1513.66 261.689 1518.27 Q264.768 1522.85 264.768 1531.6 Q264.768 1540.33 261.689 1544.94 Q258.634 1549.52 252.824 1549.52 Q247.014 1549.52 243.935 1544.94 Q240.879 1540.33 240.879 1531.6 Q240.879 1522.85 243.935 1518.27 Q247.014 1513.66 252.824 1513.66 Z" fill="#000000" fill-rule="evenodd" fill-opacity="1" /><path clip-path="url(#clip650)" d="M721.887 1514.29 L740.243 1514.29 L740.243 1518.22 L726.169 1518.22 L726.169 1526.7 Q727.188 1526.35 728.206 1526.19 Q729.225 1526 730.243 1526 Q736.03 1526 739.41 1529.17 Q742.79 1532.34 742.79 1537.76 Q742.79 1543.34 739.317 1546.44 Q735.845 1549.52 729.526 1549.52 Q727.35 1549.52 725.081 1549.15 Q722.836 1548.78 720.429 1548.04 L720.429 1543.34 Q722.512 1544.47 724.734 1545.03 Q726.956 1545.58 729.433 1545.58 Q733.438 1545.58 735.776 1543.48 Q738.114 1541.37 738.114 1537.76 Q738.114 1534.15 735.776 1532.04 Q733.438 1529.94 729.433 1529.94 Q727.558 1529.94 725.683 1530.35 Q723.831 1530.77 721.887 1531.65 L721.887 1514.29 Z" fill="#000000" fill-rule="evenodd" fill-opacity="1" /><path clip-path="url(#clip650)" d="M762.002 1517.37 Q758.391 1517.37 756.563 1520.93 Q754.757 1524.47 754.757 1531.6 Q754.757 1538.71 756.563 1542.27 Q758.391 1545.82 762.002 1545.82 Q765.637 1545.82 767.442 1542.27 Q769.271 1538.71 769.271 1531.6 Q769.271 1524.47 767.442 1520.93 Q765.637 1517.37 762.002 1517.37 M762.002 1513.66 Q767.813 1513.66 770.868 1518.27 Q773.947 1522.85 773.947 1531.6 Q773.947 1540.33 770.868 1544.94 Q767.813 1549.52 762.002 1549.52 Q756.192 1549.52 753.114 1544.94 Q750.058 1540.33 750.058 1531.6 Q750.058 1522.85 753.114 1518.27 Q756.192 1513.66 762.002 1513.66 Z" fill="#000000" fill-rule="evenodd" fill-opacity="1" /><path clip-path="url(#clip650)" d="M792.164 1517.37 Q788.553 1517.37 786.725 1520.93 Q784.919 1524.47 784.919 1531.6 Q784.919 1538.71 786.725 1542.27 Q788.553 1545.82 792.164 1545.82 Q795.799 1545.82 797.604 1542.27 Q799.433 1538.71 799.433 1531.6 Q799.433 1524.47 797.604 1520.93 Q795.799 1517.37 792.164 1517.37 M792.164 1513.66 Q797.974 1513.66 801.03 1518.27 Q804.109 1522.85 804.109 1531.6 Q804.109 1540.33 801.03 1544.94 Q797.974 1549.52 792.164 1549.52 Q786.354 1549.52 783.275 1544.94 Q780.22 1540.33 780.22 1531.6 Q780.22 1522.85 783.275 1518.27 Q786.354 1513.66 792.164 1513.66 Z" fill="#000000" fill-rule="evenodd" fill-opacity="1" /><path clip-path="url(#clip650)" d="M1216.24 1544.91 L1223.88 1544.91 L1223.88 1518.55 L1215.57 1520.21 L1215.57 1515.95 L1223.83 1514.29 L1228.51 1514.29 L1228.51 1544.91 L1236.15 1544.91 L1236.15 1548.85 L1216.24 1548.85 L1216.24 1544.91 Z" fill="#000000" fill-rule="evenodd" fill-opacity="1" /><path clip-path="url(#clip650)" d="M1255.59 1517.37 Q1251.98 1517.37 1250.15 1520.93 Q1248.35 1524.47 1248.35 1531.6 Q1248.35 1538.71 1250.15 1542.27 Q1251.98 1545.82 1255.59 1545.82 Q1259.23 1545.82 1261.03 1542.27 Q1262.86 1538.71 1262.86 1531.6 Q1262.86 1524.47 1261.03 1520.93 Q1259.23 1517.37 1255.59 1517.37 M1255.59 1513.66 Q1261.4 1513.66 1264.46 1518.27 Q1267.54 1522.85 1267.54 1531.6 Q1267.54 1540.33 1264.46 1544.94 Q1261.4 1549.52 1255.59 1549.52 Q1249.78 1549.52 1246.7 1544.94 Q1243.65 1540.33 1243.65 1531.6 Q1243.65 1522.85 1246.7 1518.27 Q1249.78 1513.66 1255.59 1513.66 Z" fill="#000000" fill-rule="evenodd" fill-opacity="1" /><path clip-path="url(#clip650)" d="M1285.75 1517.37 Q1282.14 1517.37 1280.31 1520.93 Q1278.51 1524.47 1278.51 1531.6 Q1278.51 1538.71 1280.31 1542.27 Q1282.14 1545.82 1285.75 1545.82 Q1289.39 1545.82 1291.19 1542.27 Q1293.02 1538.71 1293.02 1531.6 Q1293.02 1524.47 1291.19 1520.93 Q1289.39 1517.37 1285.75 1517.37 M1285.75 1513.66 Q1291.56 1513.66 1294.62 1518.27 Q1297.7 1522.85 1297.7 1531.6 Q1297.7 1540.33 1294.62 1544.94 Q1291.56 1549.52 1285.75 1549.52 Q1279.94 1549.52 1276.86 1544.94 Q1273.81 1540.33 1273.81 1531.6 Q1273.81 1522.85 1276.86 1518.27 Q1279.94 1513.66 1285.75 1513.66 Z" fill="#000000" fill-rule="evenodd" fill-opacity="1" /><path clip-path="url(#clip650)" d="M1315.91 1517.37 Q1312.3 1517.37 1310.48 1520.93 Q1308.67 1524.47 1308.67 1531.6 Q1308.67 1538.71 1310.48 1542.27 Q1312.3 1545.82 1315.91 1545.82 Q1319.55 1545.82 1321.35 1542.27 Q1323.18 1538.71 1323.18 1531.6 Q1323.18 1524.47 1321.35 1520.93 Q1319.55 1517.37 1315.91 1517.37 M1315.91 1513.66 Q1321.72 1513.66 1324.78 1518.27 Q1327.86 1522.85 1327.86 1531.6 Q1327.86 1540.33 1324.78 1544.94 Q1321.72 1549.52 1315.91 1549.52 Q1310.1 1549.52 1307.03 1544.94 Q1303.97 1540.33 1303.97 1531.6 Q1303.97 1522.85 1307.03 1518.27 Q1310.1 1513.66 1315.91 1513.66 Z" fill="#000000" fill-rule="evenodd" fill-opacity="1" /><path clip-path="url(#clip650)" d="M1725.68 1544.91 L1733.32 1544.91 L1733.32 1518.55 L1725.01 1520.21 L1725.01 1515.95 L1733.28 1514.29 L1737.95 1514.29 L1737.95 1544.91 L1745.59 1544.91 L1745.59 1548.85 L1725.68 1548.85 L1725.68 1544.91 Z" fill="#000000" fill-rule="evenodd" fill-opacity="1" /><path clip-path="url(#clip650)" d="M1755.08 1514.29 L1773.44 1514.29 L1773.44 1518.22 L1759.36 1518.22 L1759.36 1526.7 Q1760.38 1526.35 1761.4 1526.19 Q1762.42 1526 1763.44 1526 Q1769.23 1526 1772.61 1529.17 Q1775.99 1532.34 1775.99 1537.76 Q1775.99 1543.34 1772.51 1546.44 Q1769.04 1549.52 1762.72 1549.52 Q1760.55 1549.52 1758.28 1549.15 Q1756.03 1548.78 1753.62 1548.04 L1753.62 1543.34 Q1755.71 1544.47 1757.93 1545.03 Q1760.15 1545.58 1762.63 1545.58 Q1766.63 1545.58 1768.97 1543.48 Q1771.31 1541.37 1771.31 1537.76 Q1771.31 1534.15 1768.97 1532.04 Q1766.63 1529.94 1762.63 1529.94 Q1760.75 1529.94 1758.88 1530.35 Q1757.03 1530.77 1755.08 1531.65 L1755.08 1514.29 Z" fill="#000000" fill-rule="evenodd" fill-opacity="1" /><path clip-path="url(#clip650)" d="M1795.2 1517.37 Q1791.59 1517.37 1789.76 1520.93 Q1787.95 1524.47 1787.95 1531.6 Q1787.95 1538.71 1789.76 1542.27 Q1791.59 1545.82 1795.2 1545.82 Q1798.83 1545.82 1800.64 1542.27 Q1802.47 1538.71 1802.47 1531.6 Q1802.47 1524.47 1800.64 1520.93 Q1798.83 1517.37 1795.2 1517.37 M1795.2 1513.66 Q1801.01 1513.66 1804.06 1518.27 Q1807.14 1522.85 1807.14 1531.6 Q1807.14 1540.33 1804.06 1544.94 Q1801.01 1549.52 1795.2 1549.52 Q1789.39 1549.52 1786.31 1544.94 Q1783.25 1540.33 1783.25 1531.6 Q1783.25 1522.85 1786.31 1518.27 Q1789.39 1513.66 1795.2 1513.66 Z" fill="#000000" fill-rule="evenodd" fill-opacity="1" /><path clip-path="url(#clip650)" d="M1825.36 1517.37 Q1821.75 1517.37 1819.92 1520.93 Q1818.11 1524.47 1818.11 1531.6 Q1818.11 1538.71 1819.92 1542.27 Q1821.75 1545.82 1825.36 1545.82 Q1828.99 1545.82 1830.8 1542.27 Q1832.63 1538.71 1832.63 1531.6 Q1832.63 1524.47 1830.8 1520.93 Q1828.99 1517.37 1825.36 1517.37 M1825.36 1513.66 Q1831.17 1513.66 1834.23 1518.27 Q1837.3 1522.85 1837.3 1531.6 Q1837.3 1540.33 1834.23 1544.94 Q1831.17 1549.52 1825.36 1549.52 Q1819.55 1549.52 1816.47 1544.94 Q1813.42 1540.33 1813.42 1531.6 Q1813.42 1522.85 1816.47 1518.27 Q1819.55 1513.66 1825.36 1513.66 Z" fill="#000000" fill-rule="evenodd" fill-opacity="1" /><path clip-path="url(#clip650)" d="M2239.22 1544.91 L2255.53 1544.91 L2255.53 1548.85 L2233.59 1548.85 L2233.59 1544.91 Q2236.25 1542.16 2240.84 1537.53 Q2245.44 1532.88 2246.62 1531.53 Q2248.87 1529.01 2249.75 1527.27 Q2250.65 1525.51 2250.65 1523.82 Q2250.65 1521.07 2248.71 1519.33 Q2246.78 1517.6 2243.68 1517.6 Q2241.48 1517.6 2239.03 1518.36 Q2236.6 1519.13 2233.82 1520.68 L2233.82 1515.95 Q2236.65 1514.82 2239.1 1514.24 Q2241.55 1513.66 2243.59 1513.66 Q2248.96 1513.66 2252.15 1516.35 Q2255.35 1519.03 2255.35 1523.52 Q2255.35 1525.65 2254.54 1527.57 Q2253.75 1529.47 2251.65 1532.07 Q2251.07 1532.74 2247.96 1535.95 Q2244.86 1539.15 2239.22 1544.91 Z" fill="#000000" fill-rule="evenodd" fill-opacity="1" /><path clip-path="url(#clip650)" d="M2275.35 1517.37 Q2271.74 1517.37 2269.91 1520.93 Q2268.1 1524.47 2268.1 1531.6 Q2268.1 1538.71 2269.91 1542.27 Q2271.74 1545.82 2275.35 1545.82 Q2278.98 1545.82 2280.79 1542.27 Q2282.62 1538.71 2282.62 1531.6 Q2282.62 1524.47 2280.79 1520.93 Q2278.98 1517.37 2275.35 1517.37 M2275.35 1513.66 Q2281.16 1513.66 2284.21 1518.27 Q2287.29 1522.85 2287.29 1531.6 Q2287.29 1540.33 2284.21 1544.94 Q2281.16 1549.52 2275.35 1549.52 Q2269.54 1549.52 2266.46 1544.94 Q2263.4 1540.33 2263.4 1531.6 Q2263.4 1522.85 2266.46 1518.27 Q2269.54 1513.66 2275.35 1513.66 Z" fill="#000000" fill-rule="evenodd" fill-opacity="1" /><path clip-path="url(#clip650)" d="M2305.51 1517.37 Q2301.9 1517.37 2300.07 1520.93 Q2298.27 1524.47 2298.27 1531.6 Q2298.27 1538.71 2300.07 1542.27 Q2301.9 1545.82 2305.51 1545.82 Q2309.15 1545.82 2310.95 1542.27 Q2312.78 1538.71 2312.78 1531.6 Q2312.78 1524.47 2310.95 1520.93 Q2309.15 1517.37 2305.51 1517.37 M2305.51 1513.66 Q2311.32 1513.66 2314.38 1518.27 Q2317.46 1522.85 2317.46 1531.6 Q2317.46 1540.33 2314.38 1544.94 Q2311.32 1549.52 2305.51 1549.52 Q2299.7 1549.52 2296.62 1544.94 Q2293.57 1540.33 2293.57 1531.6 Q2293.57 1522.85 2296.62 1518.27 Q2299.7 1513.66 2305.51 1513.66 Z" fill="#000000" fill-rule="evenodd" fill-opacity="1" /><path clip-path="url(#clip650)" d="M2335.67 1517.37 Q2332.06 1517.37 2330.23 1520.93 Q2328.43 1524.47 2328.43 1531.6 Q2328.43 1538.71 2330.23 1542.27 Q2332.06 1545.82 2335.67 1545.82 Q2339.31 1545.82 2341.11 1542.27 Q2342.94 1538.71 2342.94 1531.6 Q2342.94 1524.47 2341.11 1520.93 Q2339.31 1517.37 2335.67 1517.37 M2335.67 1513.66 Q2341.48 1513.66 2344.54 1518.27 Q2347.62 1522.85 2347.62 1531.6 Q2347.62 1540.33 2344.54 1544.94 Q2341.48 1549.52 2335.67 1549.52 Q2329.86 1549.52 2326.78 1544.94 Q2323.73 1540.33 2323.73 1531.6 Q2323.73 1522.85 2326.78 1518.27 Q2329.86 1513.66 2335.67 1513.66 Z" fill="#000000" fill-rule="evenodd" fill-opacity="1" /><polyline clip-path="url(#clip652)" style="stroke:#000000; stroke-linecap:butt; stroke-linejoin:round; stroke-width:2; stroke-opacity:0.1; fill:none" points="
  192.709,1412.78 2352.76,1412.78 
  "/>
<polyline clip-path="url(#clip652)" style="stroke:#000000; stroke-linecap:butt; stroke-linejoin:round; stroke-width:2; stroke-opacity:0.1; fill:none" points="
  192.709,1038.23 2352.76,1038.23 
  "/>
<polyline clip-path="url(#clip652)" style="stroke:#000000; stroke-linecap:butt; stroke-linejoin:round; stroke-width:2; stroke-opacity:0.1; fill:none" points="
  192.709,663.685 2352.76,663.685 
  "/>
<polyline clip-path="url(#clip652)" style="stroke:#000000; stroke-linecap:butt; stroke-linejoin:round; stroke-width:2; stroke-opacity:0.1; fill:none" points="
  192.709,289.135 2352.76,289.135 
  "/>
<polyline clip-path="url(#clip650)" style="stroke:#000000; stroke-linecap:butt; stroke-linejoin:round; stroke-width:4; stroke-opacity:1; fill:none" points="
  192.709,1486.45 192.709,47.2441 
  "/>
<polyline clip-path="url(#clip650)" style="stroke:#000000; stroke-linecap:butt; stroke-linejoin:round; stroke-width:4; stroke-opacity:1; fill:none" points="
  192.709,1412.78 211.607,1412.78 
  "/>
<polyline clip-path="url(#clip650)" style="stroke:#000000; stroke-linecap:butt; stroke-linejoin:round; stroke-width:4; stroke-opacity:1; fill:none" points="
  192.709,1038.23 211.607,1038.23 
  "/>
<polyline clip-path="url(#clip650)" style="stroke:#000000; stroke-linecap:butt; stroke-linejoin:round; stroke-width:4; stroke-opacity:1; fill:none" points="
  192.709,663.685 211.607,663.685 
  "/>
<polyline clip-path="url(#clip650)" style="stroke:#000000; stroke-linecap:butt; stroke-linejoin:round; stroke-width:4; stroke-opacity:1; fill:none" points="
  192.709,289.135 211.607,289.135 
  "/>
<path clip-path="url(#clip650)" d="M50.9921 1413.24 L80.6679 1413.24 L80.6679 1417.17 L50.9921 1417.17 L50.9921 1413.24 Z" fill="#000000" fill-rule="evenodd" fill-opacity="1" /><path clip-path="url(#clip650)" d="M100.76 1398.58 Q97.1493 1398.58 95.3206 1402.15 Q93.515 1405.69 93.515 1412.82 Q93.515 1419.93 95.3206 1423.49 Q97.1493 1427.03 100.76 1427.03 Q104.395 1427.03 106.2 1423.49 Q108.029 1419.93 108.029 1412.82 Q108.029 1405.69 106.2 1402.15 Q104.395 1398.58 100.76 1398.58 M100.76 1394.88 Q106.571 1394.88 109.626 1399.49 Q112.705 1404.07 112.705 1412.82 Q112.705 1421.55 109.626 1426.15 Q106.571 1430.74 100.76 1430.74 Q94.9502 1430.74 91.8715 1426.15 Q88.816 1421.55 88.816 1412.82 Q88.816 1404.07 91.8715 1399.49 Q94.9502 1394.88 100.76 1394.88 Z" fill="#000000" fill-rule="evenodd" fill-opacity="1" /><path clip-path="url(#clip650)" d="M120.922 1424.19 L125.807 1424.19 L125.807 1430.06 L120.922 1430.06 L120.922 1424.19 Z" fill="#000000" fill-rule="evenodd" fill-opacity="1" /><path clip-path="url(#clip650)" d="M136.802 1426.13 L144.441 1426.13 L144.441 1399.76 L136.131 1401.43 L136.131 1397.17 L144.394 1395.5 L149.07 1395.5 L149.07 1426.13 L156.709 1426.13 L156.709 1430.06 L136.802 1430.06 L136.802 1426.13 Z" fill="#000000" fill-rule="evenodd" fill-opacity="1" /><path clip-path="url(#clip650)" d="M99.5335 1024.03 Q95.9224 1024.03 94.0937 1027.6 Q92.2882 1031.14 92.2882 1038.27 Q92.2882 1045.38 94.0937 1048.94 Q95.9224 1052.48 99.5335 1052.48 Q103.168 1052.48 104.973 1048.94 Q106.802 1045.38 106.802 1038.27 Q106.802 1031.14 104.973 1027.6 Q103.168 1024.03 99.5335 1024.03 M99.5335 1020.33 Q105.344 1020.33 108.399 1024.94 Q111.478 1029.52 111.478 1038.27 Q111.478 1047 108.399 1051.6 Q105.344 1056.19 99.5335 1056.19 Q93.7234 1056.19 90.6447 1051.6 Q87.5892 1047 87.5892 1038.27 Q87.5892 1029.52 90.6447 1024.94 Q93.7234 1020.33 99.5335 1020.33 Z" fill="#000000" fill-rule="evenodd" fill-opacity="1" /><path clip-path="url(#clip650)" d="M119.695 1049.64 L124.58 1049.64 L124.58 1055.51 L119.695 1055.51 L119.695 1049.64 Z" fill="#000000" fill-rule="evenodd" fill-opacity="1" /><path clip-path="url(#clip650)" d="M144.765 1024.03 Q141.154 1024.03 139.325 1027.6 Q137.519 1031.14 137.519 1038.27 Q137.519 1045.38 139.325 1048.94 Q141.154 1052.48 144.765 1052.48 Q148.399 1052.48 150.205 1048.94 Q152.033 1045.38 152.033 1038.27 Q152.033 1031.14 150.205 1027.6 Q148.399 1024.03 144.765 1024.03 M144.765 1020.33 Q150.575 1020.33 153.63 1024.94 Q156.709 1029.52 156.709 1038.27 Q156.709 1047 153.63 1051.6 Q150.575 1056.19 144.765 1056.19 Q138.955 1056.19 135.876 1051.6 Q132.82 1047 132.82 1038.27 Q132.82 1029.52 135.876 1024.94 Q138.955 1020.33 144.765 1020.33 Z" fill="#000000" fill-rule="evenodd" fill-opacity="1" /><path clip-path="url(#clip650)" d="M100.76 649.484 Q97.1493 649.484 95.3206 653.048 Q93.515 656.59 93.515 663.72 Q93.515 670.826 95.3206 674.391 Q97.1493 677.933 100.76 677.933 Q104.395 677.933 106.2 674.391 Q108.029 670.826 108.029 663.72 Q108.029 656.59 106.2 653.048 Q104.395 649.484 100.76 649.484 M100.76 645.78 Q106.571 645.78 109.626 650.386 Q112.705 654.97 112.705 663.72 Q112.705 672.446 109.626 677.053 Q106.571 681.636 100.76 681.636 Q94.9502 681.636 91.8715 677.053 Q88.816 672.446 88.816 663.72 Q88.816 654.97 91.8715 650.386 Q94.9502 645.78 100.76 645.78 Z" fill="#000000" fill-rule="evenodd" fill-opacity="1" /><path clip-path="url(#clip650)" d="M120.922 675.085 L125.807 675.085 L125.807 680.965 L120.922 680.965 L120.922 675.085 Z" fill="#000000" fill-rule="evenodd" fill-opacity="1" /><path clip-path="url(#clip650)" d="M136.802 677.03 L144.441 677.03 L144.441 650.664 L136.131 652.331 L136.131 648.072 L144.394 646.405 L149.07 646.405 L149.07 677.03 L156.709 677.03 L156.709 680.965 L136.802 680.965 L136.802 677.03 Z" fill="#000000" fill-rule="evenodd" fill-opacity="1" /><path clip-path="url(#clip650)" d="M101.131 274.934 Q97.5197 274.934 95.691 278.499 Q93.8854 282.04 93.8854 289.17 Q93.8854 296.276 95.691 299.841 Q97.5197 303.383 101.131 303.383 Q104.765 303.383 106.571 299.841 Q108.399 296.276 108.399 289.17 Q108.399 282.04 106.571 278.499 Q104.765 274.934 101.131 274.934 M101.131 271.23 Q106.941 271.23 109.996 275.837 Q113.075 280.42 113.075 289.17 Q113.075 297.897 109.996 302.503 Q106.941 307.086 101.131 307.086 Q95.3206 307.086 92.2419 302.503 Q89.1864 297.897 89.1864 289.17 Q89.1864 280.42 92.2419 275.837 Q95.3206 271.23 101.131 271.23 Z" fill="#000000" fill-rule="evenodd" fill-opacity="1" /><path clip-path="url(#clip650)" d="M121.293 300.535 L126.177 300.535 L126.177 306.415 L121.293 306.415 L121.293 300.535 Z" fill="#000000" fill-rule="evenodd" fill-opacity="1" /><path clip-path="url(#clip650)" d="M140.39 302.48 L156.709 302.48 L156.709 306.415 L134.765 306.415 L134.765 302.48 Q137.427 299.725 142.01 295.096 Q146.617 290.443 147.797 289.1 Q150.043 286.577 150.922 284.841 Q151.825 283.082 151.825 281.392 Q151.825 278.637 149.88 276.901 Q147.959 275.165 144.857 275.165 Q142.658 275.165 140.205 275.929 Q137.774 276.693 134.996 278.244 L134.996 273.522 Q137.82 272.387 140.274 271.809 Q142.728 271.23 144.765 271.23 Q150.135 271.23 153.33 273.915 Q156.524 276.6 156.524 281.091 Q156.524 283.221 155.714 285.142 Q154.927 287.04 152.82 289.633 Q152.242 290.304 149.14 293.522 Q146.038 296.716 140.39 302.48 Z" fill="#000000" fill-rule="evenodd" fill-opacity="1" /><polyline clip-path="url(#clip652)" style="stroke:#009af9; stroke-linecap:butt; stroke-linejoin:round; stroke-width:4; stroke-opacity:1; fill:none" points="
  253.843,677.447 254.861,702.925 255.88,629.568 256.899,585.13 257.918,412.148 258.937,586.191 259.956,584.227 260.975,528.474 261.994,611.808 263.013,646.453 
  264.031,745.411 265.05,754.722 266.069,715.758 267.088,767.172 268.107,869.163 269.126,747.964 270.145,734.359 271.164,841.923 272.183,911.858 273.201,1053.14 
  274.22,1088.68 275.239,912.815 276.258,988.324 277.277,925.019 278.296,879.373 279.315,993.782 280.334,1076.63 281.353,845.029 282.371,796.963 283.39,845.503 
  284.409,682.346 285.428,659.951 286.447,496.905 287.466,563.594 288.485,583.104 289.504,454.112 290.523,422.955 291.541,502.069 292.56,646.33 293.579,709.871 
  294.598,747.674 295.617,730.932 296.636,792.074 297.655,756.489 298.674,738.631 299.693,797.412 300.711,627.506 301.73,502.645 302.749,758.942 303.768,780.447 
  304.787,836.016 305.806,839.516 306.825,780.414 307.844,719.304 308.863,604.58 309.881,593.932 310.9,833.385 311.919,678.986 312.938,681.555 313.957,660.873 
  314.976,768.155 315.995,771.626 317.014,1029.07 318.033,1022.85 319.052,887.399 320.07,946.514 321.089,901.713 322.108,861.354 323.127,859.786 324.146,757.692 
  325.165,850.157 326.184,728.645 327.203,804.604 328.222,849.015 329.24,923.137 330.259,882.338 331.278,826.326 332.297,841.795 333.316,701.489 334.335,794.567 
  335.354,979.497 336.373,976.954 337.392,880.209 338.41,1003.77 339.429,975.667 340.448,918.835 341.467,690.737 342.486,792.666 343.505,1010.95 344.524,991.125 
  345.543,841.988 346.562,934.732 347.58,1097.59 348.599,1065.9 349.618,921.566 350.637,922.337 351.656,1065.08 352.675,1088.04 353.694,1017.21 354.713,1137.28 
  355.732,1187.04 356.75,1232.51 357.769,1079.13 358.788,993.484 359.807,977.081 360.826,976.806 361.845,1190.95 362.864,1157.33 363.883,1180.69 364.902,1170.86 
  365.92,1070.55 366.939,1038.43 367.958,1068.74 368.977,883.366 369.996,792.562 371.015,750.122 372.034,670.567 373.053,707.412 374.072,609.609 375.09,577.273 
  376.109,631.429 377.128,684.17 378.147,637.994 379.166,557.343 380.185,672.396 381.204,581.671 382.223,678.451 383.242,694.748 384.26,674.071 385.279,735.293 
  386.298,742.071 387.317,597.794 388.336,630.07 389.355,805.135 390.374,833.895 391.393,798.542 392.412,729.039 393.43,759.571 394.449,929.998 395.468,886.379 
  396.487,774.58 397.506,857.223 398.525,811.052 399.544,893.951 400.563,872.25 401.582,928.177 402.6,786.89 403.619,804.759 404.638,967.685 405.657,938.971 
  406.676,1007.32 407.695,1016.04 408.714,1054.5 409.733,1012.34 410.752,1009.74 411.77,913.509 412.789,1016.7 413.808,1087.71 414.827,951.229 415.846,897.825 
  416.865,898.916 417.884,984.959 418.903,1122.37 419.922,1007.24 420.941,877.106 421.959,732.193 422.978,756.127 423.997,590.59 425.016,680.117 426.035,638.41 
  427.054,702.944 428.073,557.425 429.092,617.872 430.111,843.031 431.129,731.635 432.148,770.653 433.167,781.18 434.186,891.935 435.205,895.49 436.224,965.767 
  437.243,850.237 438.262,857.726 439.281,802.172 440.299,605.039 441.318,570.568 442.337,703.902 443.356,696.6 444.375,657.705 445.394,649.584 446.413,807.29 
  447.432,886.932 448.451,855.321 449.469,849.06 450.488,822.529 451.507,817.456 452.526,566.39 453.545,476.311 454.564,636.152 455.583,620.078 456.602,673.521 
  457.621,625.608 458.639,684.688 459.658,862.529 460.677,928.662 461.696,937.818 462.715,981.367 463.734,969.346 464.753,874.184 465.772,845.334 466.791,1105.21 
  467.809,1125.2 468.828,1081.66 469.847,1118.63 470.866,973.049 471.885,1069.07 472.904,938.018 473.923,1035.14 474.942,1044.38 475.961,1039.07 476.979,1152.17 
  477.998,1040.97 479.017,1029.46 480.036,1060.76 481.055,970.396 482.074,907.574 483.093,860.927 484.112,829.399 485.131,865.723 486.149,981.408 487.168,926.716 
  488.187,852.216 489.206,853.016 490.225,952.323 491.244,975.431 492.263,1011.73 493.282,1148.1 494.301,1301.21 495.319,1442.2 496.338,1332.36 497.357,1306.45 
  498.376,1194.76 499.395,929.043 500.414,1001.92 501.433,1061.81 502.452,895.507 503.471,908.978 504.489,829.885 505.508,865.87 506.527,880.067 507.546,917.039 
  508.565,713.373 509.584,748.791 510.603,881.192 511.622,677.604 512.641,766.952 513.659,855.025 514.678,862.28 515.697,854.717 516.716,806.687 517.735,959.601 
  518.754,1080.65 519.773,1072.55 520.792,949.135 521.811,949.436 522.83,898.071 523.848,1094.6 524.867,1229.18 525.886,1018.06 526.905,1002.81 527.924,979.802 
  528.943,982.921 529.962,890.229 530.981,624.68 532,488.929 533.018,572.224 534.037,590.36 535.056,533.322 536.075,581.853 537.094,621.221 538.113,635.778 
  539.132,576.989 540.151,736.87 541.17,620.032 542.188,696.25 543.207,741.999 544.226,672.435 545.245,612.623 546.264,421.239 547.283,561.11 548.302,728.093 
  549.321,593.309 550.34,543.872 551.358,596.872 552.377,584.918 553.396,759.47 554.415,639.991 555.434,505.429 556.453,549.381 557.472,713.64 558.491,753.738 
  559.51,746.62 560.528,786.263 561.547,690.422 562.566,665.505 563.585,605.499 564.604,824.825 565.623,947.197 566.642,1031.31 567.661,1023.96 568.68,1182.9 
  569.698,1088.6 570.717,1063.23 571.736,1018.37 572.755,1023.3 573.774,984.568 574.793,814.646 575.812,679.457 576.831,531.207 577.85,675.48 578.868,593.68 
  579.887,364.808 580.906,453.27 581.925,554.958 582.944,657.857 583.963,604.211 584.982,731.668 586.001,676.108 587.02,764.039 588.038,955.943 589.057,915.445 
  590.076,918.187 591.095,932.314 592.114,707.277 593.133,681.527 594.152,690.373 595.171,682.322 596.19,646.467 597.208,598.695 598.227,606.572 599.246,677.212 
  600.265,853.598 601.284,846.85 602.303,764.398 603.322,794.322 604.341,907.365 605.36,766.241 606.378,696.662 607.397,974.134 608.416,876.222 609.435,920.576 
  610.454,947.35 611.473,1087.07 612.492,1061.53 613.511,855.78 614.53,788.361 615.548,706.95 616.567,678.851 617.586,739.987 618.605,612.964 619.624,631.352 
  620.643,680.696 621.662,645.511 622.681,611.367 623.7,506.251 624.719,586.576 625.737,566.971 626.756,520.403 627.775,613.481 628.794,815.677 629.813,681.077 
  630.832,770.309 631.851,820.209 632.87,1088.24 633.889,1043.64 634.907,1000 635.926,1187.94 636.945,1256.19 637.964,960.688 638.983,966.115 640.002,709.626 
  641.021,745.502 642.04,801.122 643.059,812.597 644.077,809.252 645.096,875.97 646.115,914.944 647.134,781.183 648.153,761.326 649.172,587.479 650.191,552.978 
  651.21,497.243 652.229,507.638 653.247,447.234 654.266,564.543 655.285,603.73 656.304,657.396 657.323,724.301 658.342,845.606 659.361,867.267 660.38,974.345 
  661.399,869.52 662.417,750.705 663.436,740.095 664.455,858.068 665.474,922.972 666.493,1171.88 667.512,1305.19 668.531,1222.67 669.55,1021.23 670.569,1043.89 
  671.587,985.921 672.606,1006.07 673.625,875.091 674.644,808.449 675.663,960.186 676.682,861.214 677.701,892.354 678.72,993.438 679.739,896.036 680.757,1047 
  681.776,1120.23 682.795,1114.59 683.814,911.85 684.833,890.615 685.852,1140.57 686.871,1295.68 687.89,1281.31 688.909,1175.66 689.927,1281.3 690.946,1173.03 
  691.965,893.267 692.984,945.24 694.003,1182.03 695.022,883.954 696.041,1154.64 697.06,1028.88 698.079,1080.86 699.097,1017.12 700.116,936.941 701.135,739.99 
  702.154,704.509 703.173,591.686 704.192,738.309 705.211,598.773 706.23,624.226 707.249,695.253 708.267,581.14 709.286,660.413 710.305,693.68 711.324,799.366 
  712.343,740.528 713.362,847.721 714.381,862.474 715.4,865.001 716.419,860.556 717.437,739.927 718.456,711.201 719.475,801.305 720.494,873.342 721.513,922.056 
  722.532,1043.32 723.551,830.903 724.57,842.964 725.589,923.029 726.608,888.646 727.626,865.334 728.645,835.145 729.664,1095.77 730.683,997.088 731.702,992.981 
  732.721,868.536 733.74,800.988 734.759,587.513 735.778,619.057 736.796,635.423 737.815,696.286 738.834,695.782 739.853,851.467 740.872,834.316 741.891,752.244 
  742.91,789.553 743.929,954.807 744.948,930.757 745.966,953.624 746.985,810.006 748.004,826.343 749.023,1053.78 750.042,872.401 751.061,733.824 752.08,563.211 
  753.099,770.585 754.118,1004.2 755.136,1161.13 756.155,872.978 757.174,838.058 758.193,787.642 759.212,710.047 760.231,626.009 761.25,559.012 762.269,715.881 
  763.288,953.708 764.306,920 765.325,836.898 766.344,753.233 767.363,765.197 768.382,800.581 769.401,933.507 770.42,921.274 771.439,967.797 772.458,891.536 
  773.476,983.138 774.495,867.265 775.514,687.437 776.533,657.755 777.552,616.145 778.571,622.059 779.59,675.267 780.609,949.008 781.628,841.883 782.646,921.934 
  783.665,932.098 784.684,680.365 785.703,600.403 786.722,745.594 787.741,776.021 788.76,725.613 789.779,733.61 790.798,919.376 791.816,930.746 792.835,786.177 
  793.854,1011.43 794.873,1079.9 795.892,1047.22 796.911,1176.88 797.93,1295.34 798.949,1217.96 799.968,1433.68 800.986,1382.59 802.005,1239.14 803.024,1158.02 
  804.043,1231.34 805.062,1048.93 806.081,1048.59 807.1,1102.52 808.119,967.413 809.138,841.135 810.156,767.036 811.175,802.644 812.194,846.875 813.213,971.311 
  814.232,750.854 815.251,752.559 816.27,772.297 817.289,750.951 818.308,931.648 819.326,870.943 820.345,801.358 821.364,680.131 822.383,538.259 823.402,662.014 
  824.421,654.855 825.44,711.952 826.459,757.561 827.478,804.252 828.496,874.983 829.515,891.921 830.534,862.412 831.553,948.152 832.572,901.028 833.591,878.982 
  834.61,882.301 835.629,962.529 836.648,989.333 837.667,1001.22 838.685,1057.82 839.704,1110.76 840.723,1166 841.742,1030.75 842.761,1030.7 843.78,988.341 
  844.799,1119.68 845.818,1042.78 846.837,955.968 847.855,876.402 848.874,848.425 849.893,741.506 850.912,967.388 851.931,900.772 852.95,734.623 853.969,681.696 
  854.988,762.012 856.007,809.161 857.025,845.013 858.044,911.898 859.063,991.852 860.082,1096.63 861.101,918.677 862.12,991.736 863.139,1020.96 864.158,850.126 
  865.177,849.167 866.195,824.444 867.214,847.984 868.233,723.282 869.252,728.365 870.271,759.86 871.29,943.063 872.309,829.593 873.328,771.633 874.347,818.802 
  875.365,924.873 876.384,1037.29 877.403,975.124 878.422,938.202 879.441,815.272 880.46,799.729 881.479,888.507 882.498,948.111 883.517,1000.81 884.535,956.491 
  885.554,931.225 886.573,927.862 887.592,865.399 888.611,745.211 889.63,891.156 890.649,984.104 891.668,856.956 892.687,728.477 893.705,571.354 894.724,577.334 
  895.743,673.214 896.762,778.768 897.781,700.375 898.8,766.252 899.819,734.464 900.838,519.746 901.857,467.731 902.875,441.913 903.894,428.848 904.913,485.551 
  905.932,588.958 906.951,594.117 907.97,731.544 908.989,862.092 910.008,925.489 911.027,971.894 912.045,821.252 913.064,621.624 914.083,729.152 915.102,706.717 
  916.121,568.02 917.14,611.481 918.159,663.355 919.178,590.067 920.197,677.159 921.215,626.662 922.234,740.838 923.253,714.117 924.272,627.363 925.291,594.497 
  926.31,707.637 927.329,770.282 928.348,733.853 929.367,595.051 930.385,524.399 931.404,531.144 932.423,511.053 933.442,540.561 934.461,522.794 935.48,481.414 
  936.499,599.397 937.518,480.28 938.537,448.882 939.556,440.896 940.574,507.329 941.593,718.439 942.612,909.251 943.631,1111.43 944.65,1311.92 945.669,1213.94 
  946.688,1134.83 947.707,1080.25 948.726,1103.03 949.744,1129.43 950.763,1086.98 951.782,942.513 952.801,1115.16 953.82,874.584 954.839,1026.49 955.858,947.389 
  956.877,946.694 957.896,1060.81 958.914,1115.26 959.933,1055.04 960.952,960.501 961.971,792.86 962.99,799.739 964.009,774.831 965.028,755.509 966.047,1034.61 
  967.066,1084.52 968.084,1055.32 969.103,961.299 970.122,992.392 971.141,1036.31 972.16,984.212 973.179,862.039 974.198,796.779 975.217,818.859 976.236,802.529 
  977.254,693.143 978.273,654.902 979.292,721.115 980.311,791.071 981.33,701.78 982.349,742.431 983.368,689.34 984.387,619.296 985.406,620.854 986.424,681.243 
  987.443,689.467 988.462,701.024 989.481,642.819 990.5,693.278 991.519,835.98 992.538,915.829 993.557,716.489 994.576,633.794 995.594,544.229 996.613,652.012 
  997.632,735.646 998.651,676.576 999.67,684.493 1000.69,530.386 1001.71,609.193 1002.73,665.008 1003.75,768.4 1004.76,813.909 1005.78,714.701 1006.8,903.927 
  1007.82,804.962 1008.84,1107.27 1009.86,965.847 1010.88,1122.49 1011.9,926.758 1012.92,691.332 1013.93,948.4 1014.95,967.121 1015.97,973.185 1016.99,974.599 
  1018.01,971.077 1019.03,1094.53 1020.05,1088.92 1021.07,899.493 1022.09,1013.78 1023.1,1010.26 1024.12,1094.4 1025.14,1052.22 1026.16,1000.64 1027.18,767.297 
  1028.2,701.753 1029.22,677.847 1030.24,506.329 1031.26,434.804 1032.27,534.679 1033.29,533.431 1034.31,596.686 1035.33,673.671 1036.35,617.42 1037.37,516.977 
  1038.39,530.523 1039.41,473.321 1040.43,469.673 1041.44,441.855 1042.46,554.623 1043.48,652.384 1044.5,830.072 1045.52,742.047 1046.54,755.799 1047.56,741.591 
  1048.58,815.188 1049.6,861.25 1050.61,749.441 1051.63,812.028 1052.65,965.428 1053.67,900.789 1054.69,871.177 1055.71,761.425 1056.73,743.845 1057.75,792.039 
  1058.77,936.327 1059.78,952.114 1060.8,1104.08 1061.82,1199.08 1062.84,906.949 1063.86,934.161 1064.88,986.563 1065.9,898.632 1066.92,1107.63 1067.94,1080.92 
  1068.95,891.909 1069.97,712.046 1070.99,689.332 1072.01,636.635 1073.03,543.25 1074.05,634.25 1075.07,782.513 1076.09,792.587 1077.11,900.511 1078.12,786.44 
  1079.14,832.957 1080.16,936.638 1081.18,857.329 1082.2,809.419 1083.22,728.529 1084.24,703.944 1085.26,752.339 1086.28,747.973 1087.29,873.172 1088.31,684.822 
  1089.33,849.232 1090.35,549.431 1091.37,472.777 1092.39,623.849 1093.41,699.785 1094.43,470.853 1095.45,490.127 1096.46,527.191 1097.48,511.559 1098.5,460.891 
  1099.52,470.979 1100.54,557.438 1101.56,588.058 1102.58,576.829 1103.6,525.309 1104.62,713.628 1105.63,672.885 1106.65,621.343 1107.67,669.829 1108.69,613.466 
  1109.71,829.39 1110.73,819.627 1111.75,906.407 1112.77,670.016 1113.79,609.319 1114.8,655.94 1115.82,619.206 1116.84,592.52 1117.86,661.344 1118.88,646.422 
  1119.9,566.082 1120.92,628.868 1121.94,575.185 1122.96,676.296 1123.97,811.203 1124.99,942.565 1126.01,956.009 1127.03,1075.09 1128.05,992.634 1129.07,895.697 
  1130.09,913.079 1131.11,879.116 1132.13,667.424 1133.14,805.417 1134.16,842.71 1135.18,786.81 1136.2,803.495 1137.22,605.338 1138.24,665.533 1139.26,713.943 
  1140.28,748.468 1141.3,718.725 1142.31,921.104 1143.33,857.083 1144.35,808.263 1145.37,849.279 1146.39,1087.53 1147.41,986.944 1148.43,1057.99 1149.45,1121.4 
  1150.47,1168.74 1151.48,1006.16 1152.5,791.593 1153.52,637.415 1154.54,680.864 1155.56,854.553 1156.58,983.997 1157.6,995.788 1158.62,978.829 1159.64,1022.84 
  1160.65,1020 1161.67,1127.8 1162.69,1176.07 1163.71,1080.74 1164.73,1078.61 1165.75,1218.93 1166.77,1251.8 1167.79,1238 1168.81,1156.93 1169.82,1047.89 
  1170.84,904.697 1171.86,747.316 1172.88,770.615 1173.9,564.843 1174.92,569.105 1175.94,550.961 1176.96,437.907 1177.98,431.409 1178.99,391.827 1180.01,477.014 
  1181.03,386.259 1182.05,456.923 1183.07,573.149 1184.09,657.185 1185.11,618.16 1186.13,602.413 1187.15,609.19 1188.16,723.061 1189.18,727.122 1190.2,740.205 
  1191.22,785.952 1192.24,782.836 1193.26,959.075 1194.28,1182.12 1195.3,1171.39 1196.32,1112.19 1197.33,997.024 1198.35,679.628 1199.37,790.602 1200.39,739.116 
  1201.41,813.297 1202.43,902.451 1203.45,825.171 1204.47,817.274 1205.49,696.208 1206.5,565.647 1207.52,613.255 1208.54,560.716 1209.56,713.04 1210.58,815.608 
  1211.6,825.721 1212.62,692.982 1213.64,733.263 1214.66,853.425 1215.67,581.022 1216.69,700.378 1217.71,881.831 1218.73,848.461 1219.75,828.394 1220.77,925.837 
  1221.79,730.676 1222.81,803.359 1223.83,677.502 1224.84,717.579 1225.86,698.876 1226.88,989.863 1227.9,1006.25 1228.92,951.507 1229.94,790.301 1230.96,779.22 
  1231.98,812.06 1233,900.797 1234.01,912.971 1235.03,920.815 1236.05,964.194 1237.07,864.361 1238.09,777.145 1239.11,751.959 1240.13,767.242 1241.15,761.673 
  1242.17,793.828 1243.18,697.075 1244.2,805.108 1245.22,838.712 1246.24,739.336 1247.26,809.976 1248.28,912.941 1249.3,965.574 1250.32,957.17 1251.34,847.283 
  1252.35,689.123 1253.37,610.762 1254.39,744.165 1255.41,629.909 1256.43,667.681 1257.45,545.88 1258.47,557.039 1259.49,734.246 1260.51,696.636 1261.52,574.885 
  1262.54,515.448 1263.56,622.051 1264.58,575.921 1265.6,682.238 1266.62,699.373 1267.64,670.129 1268.66,887.666 1269.68,829.73 1270.69,909.427 1271.71,811.203 
  1272.73,802.495 1273.75,721.672 1274.77,746.755 1275.79,805.368 1276.81,675.058 1277.83,765.914 1278.85,575.92 1279.86,672.513 1280.88,818.38 1281.9,855.068 
  1282.92,1026.86 1283.94,1052.65 1284.96,928.054 1285.98,1007.85 1287,1057.23 1288.02,897.537 1289.03,984.826 1290.05,1136.98 1291.07,1040.65 1292.09,1000.48 
  1293.11,995.94 1294.13,891.265 1295.15,1012.86 1296.17,978.092 1297.19,1006.62 1298.2,1020.1 1299.22,900.098 1300.24,903.881 1301.26,918.579 1302.28,861.093 
  1303.3,892.773 1304.32,968.608 1305.34,955.899 1306.36,1013.65 1307.37,873.814 1308.39,892.095 1309.41,970.445 1310.43,873.437 1311.45,981.634 1312.47,782.27 
  1313.49,733.001 1314.51,731.184 1315.53,617.627 1316.54,584.767 1317.56,672.539 1318.58,872.898 1319.6,940.936 1320.62,985.44 1321.64,855.762 1322.66,932.192 
  1323.68,752.187 1324.7,745.329 1325.71,856.961 1326.73,862.806 1327.75,907.515 1328.77,867.021 1329.79,757.109 1330.81,711.494 1331.83,1034.37 1332.85,1055.81 
  1333.87,999.762 1334.88,1115.94 1335.9,966.685 1336.92,1023.7 1337.94,1041.36 1338.96,819.516 1339.98,818.806 1341,848.312 1342.02,825.15 1343.04,742.61 
  1344.05,725.237 1345.07,758.174 1346.09,711.865 1347.11,706.048 1348.13,841.422 1349.15,802.572 1350.17,836.699 1351.19,949.642 1352.21,718.911 1353.22,725.21 
  1354.24,749.351 1355.26,711.368 1356.28,856.259 1357.3,973.418 1358.32,974.935 1359.34,851.405 1360.36,1022.33 1361.38,1069.47 1362.39,1134.38 1363.41,1019.07 
  1364.43,1033.96 1365.45,1095.51 1366.47,910.173 1367.49,936.509 1368.51,999.305 1369.53,1156.17 1370.55,916.491 1371.56,891.608 1372.58,1119.91 1373.6,1223.59 
  1374.62,867.509 1375.64,790.456 1376.66,693.841 1377.68,940.694 1378.7,980.712 1379.72,956.61 1380.73,1056.7 1381.75,1058.98 1382.77,1020.52 1383.79,881.734 
  1384.81,961.912 1385.83,781.632 1386.85,829.312 1387.87,924.791 1388.89,933.243 1389.9,797.642 1390.92,683.653 1391.94,623.25 1392.96,555.275 1393.98,467.483 
  1395,311.616 1396.02,372.921 1397.04,451.851 1398.06,593.081 1399.07,543.588 1400.09,498.375 1401.11,397.578 1402.13,476.772 1403.15,473.653 1404.17,511.622 
  1405.19,555.256 1406.21,502.756 1407.23,558.544 1408.24,651.14 1409.26,764.529 1410.28,710.838 1411.3,577.491 1412.32,557.085 1413.34,604.083 1414.36,625.734 
  1415.38,949.551 1416.4,921.954 1417.41,899.45 1418.43,812.391 1419.45,764.956 1420.47,719.378 1421.49,700.896 1422.51,711.664 1423.53,739.616 1424.55,742.074 
  1425.57,665.636 1426.58,731.816 1427.6,793.222 1428.62,791.751 1429.64,817.227 1430.66,809.937 1431.68,769.345 1432.7,859.964 1433.72,828.184 1434.74,821.279 
  1435.75,832.838 1436.77,966.733 1437.79,952.526 1438.81,932.191 1439.83,950.616 1440.85,814.36 1441.87,817.798 1442.89,756.334 1443.91,856.492 1444.92,916.895 
  1445.94,999.836 1446.96,1016.48 1447.98,1278.44 1449,1266.61 1450.02,1079.63 1451.04,1119.85 1452.06,1063.53 1453.08,1055.63 1454.09,998.876 1455.11,938.794 
  1456.13,1128.09 1457.15,1207.98 1458.17,1092.34 1459.19,1029.97 1460.21,1123.48 1461.23,1093.61 1462.25,1005.47 1463.26,783.294 1464.28,795.067 1465.3,908.991 
  1466.32,659.049 1467.34,598.11 1468.36,822.855 1469.38,787.651 1470.4,664.955 1471.42,632.289 1472.43,686.535 1473.45,749.892 1474.47,857.842 1475.49,871.127 
  1476.51,925.109 1477.53,976.036 1478.55,886.89 1479.57,932.954 1480.59,755.292 1481.6,1036.12 1482.62,990.961 1483.64,826.72 1484.66,902.485 1485.68,1007.49 
  1486.7,1035.89 1487.72,1004.86 1488.74,822.167 1489.76,831.098 1490.77,967.821 1491.79,946.396 1492.81,745.269 1493.83,716.485 1494.85,884.008 1495.87,943.746 
  1496.89,866.152 1497.91,909.442 1498.93,822.092 1499.94,691.328 1500.96,809.884 1501.98,570.52 1503,544.788 1504.02,495.644 1505.04,413.775 1506.06,427.471 
  1507.08,443.688 1508.1,419.833 1509.12,350.931 1510.13,368.4 1511.15,361.322 1512.17,303.466 1513.19,297.943 1514.21,373.872 1515.23,332.012 1516.25,438.992 
  1517.27,470.334 1518.29,525.119 1519.3,581.075 1520.32,586.9 1521.34,706.961 1522.36,618.322 1523.38,779.818 1524.4,729.761 1525.42,761.496 1526.44,782.112 
  1527.46,741.458 1528.47,812.037 1529.49,941.637 1530.51,790.603 1531.53,742.447 1532.55,901.9 1533.57,988.207 1534.59,1040.19 1535.61,902.1 1536.63,719.937 
  1537.64,785.7 1538.66,751.757 1539.68,755.211 1540.7,779.935 1541.72,836.76 1542.74,763.157 1543.76,764.353 1544.78,740.58 1545.8,808.157 1546.81,818.748 
  1547.83,943.014 1548.85,995.77 1549.87,1041.07 1550.89,1161.55 1551.91,904.568 1552.93,968.271 1553.95,794.228 1554.97,724.647 1555.98,849.699 1557,904.744 
  1558.02,813.211 1559.04,761.163 1560.06,895.057 1561.08,780.428 1562.1,619.381 1563.12,770.991 1564.14,993.228 1565.15,1116.67 1566.17,1173.8 1567.19,889.872 
  1568.21,997.085 1569.23,940.636 1570.25,1018.14 1571.27,1007.13 1572.29,872.551 1573.31,826.838 1574.32,811.27 1575.34,689.956 1576.36,887.053 1577.38,889.888 
  1578.4,816.189 1579.42,886.669 1580.44,999.861 1581.46,905.38 1582.48,1077.29 1583.49,1164.06 1584.51,1053.57 1585.53,1060.5 1586.55,913.833 1587.57,796.159 
  1588.59,897.463 1589.61,847.39 1590.63,884.431 1591.65,1058.8 1592.66,1073.26 1593.68,1075.73 1594.7,1049.49 1595.72,877.596 1596.74,873.203 1597.76,875.35 
  1598.78,791.95 1599.8,962.32 1600.82,994.845 1601.83,1049.69 1602.85,1174.53 1603.87,1055.93 1604.89,914.019 1605.91,809.44 1606.93,641.215 1607.95,525.202 
  1608.97,671.721 1609.99,761.588 1611,700.772 1612.02,607.295 1613.04,778.215 1614.06,786.492 1615.08,866.077 1616.1,982.721 1617.12,778.052 1618.14,800.626 
  1619.16,977.791 1620.17,956.629 1621.19,978.188 1622.21,828.148 1623.23,925.935 1624.25,900.203 1625.27,874.991 1626.29,643.915 1627.31,650.73 1628.33,509.568 
  1629.34,435.151 1630.36,393.953 1631.38,500.862 1632.4,554.905 1633.42,532.697 1634.44,558.404 1635.46,648.27 1636.48,589.972 1637.5,399.223 1638.51,455.736 
  1639.53,562.648 1640.55,651.163 1641.57,777.968 1642.59,790.226 1643.61,821.545 1644.63,807.138 1645.65,707.985 1646.67,728.132 1647.68,720.987 1648.7,672.132 
  1649.72,605.725 1650.74,604.125 1651.76,760.353 1652.78,785.96 1653.8,717.361 1654.82,852.52 1655.84,889.318 1656.85,1046.37 1657.87,1087.29 1658.89,982.512 
  1659.91,953.306 1660.93,793.736 1661.95,959.407 1662.97,862.598 1663.99,792.677 1665.01,782.685 1666.02,936.508 1667.04,975.412 1668.06,1120.13 1669.08,1255.04 
  1670.1,1262.16 1671.12,1134.07 1672.14,1001.98 1673.16,1139.66 1674.18,1137.85 1675.19,931.028 1676.21,877.759 1677.23,887.081 1678.25,910.126 1679.27,725.688 
  1680.29,711.729 1681.31,645.514 1682.33,706.553 1683.35,622.599 1684.36,521.194 1685.38,447.534 1686.4,524.801 1687.42,484.992 1688.44,509.464 1689.46,567.969 
  1690.48,733.573 1691.5,573.937 1692.52,781.174 1693.53,969.122 1694.55,829.658 1695.57,761.906 1696.59,832.768 1697.61,778.286 1698.63,882.015 1699.65,740.93 
  1700.67,679.389 1701.69,903.189 1702.7,949.574 1703.72,1117.77 1704.74,1111.28 1705.76,1016.02 1706.78,894.58 1707.8,862.966 1708.82,896.089 1709.84,877.881 
  1710.86,1034.68 1711.87,990.283 1712.89,856.157 1713.91,688.327 1714.93,694.069 1715.95,629.8 1716.97,649.712 1717.99,601.057 1719.01,719.117 1720.03,691.098 
  1721.04,652.395 1722.06,606.959 1723.08,487.92 1724.1,629.706 1725.12,626.482 1726.14,783.949 1727.16,657.362 1728.18,886.509 1729.2,907.488 1730.21,747.23 
  1731.23,830.786 1732.25,675.639 1733.27,730.037 1734.29,871.962 1735.31,919.804 1736.33,822.824 1737.35,734.066 1738.37,813.07 1739.38,837.686 1740.4,692.945 
  1741.42,667.644 1742.44,713.3 1743.46,716.864 1744.48,729.542 1745.5,843.928 1746.52,873.438 1747.54,993.179 1748.55,912.627 1749.57,847.202 1750.59,1036.12 
  1751.61,975.413 1752.63,978.792 1753.65,952.016 1754.67,995.147 1755.69,1007.24 1756.71,931.331 1757.72,1083.64 1758.74,904.865 1759.76,1141.14 1760.78,984.221 
  1761.8,883.734 1762.82,850.928 1763.84,697.537 1764.86,802.155 1765.88,743.03 1766.89,708.739 1767.91,645.028 1768.93,629.439 1769.95,701.617 1770.97,666.257 
  1771.99,647.83 1773.01,596.394 1774.03,559.662 1775.05,423 1776.06,528.241 1777.08,486.855 1778.1,483.706 1779.12,379.36 1780.14,444.029 1781.16,501.265 
  1782.18,541.905 1783.2,574.052 1784.22,515.415 1785.23,452.52 1786.25,605.321 1787.27,705.075 1788.29,695.878 1789.31,750.08 1790.33,877.427 1791.35,907.226 
  1792.37,932.895 1793.39,777.854 1794.4,919.375 1795.42,969.732 1796.44,858.9 1797.46,1253.3 1798.48,1271.81 1799.5,1062.83 1800.52,1047.72 1801.54,852.938 
  1802.56,857.361 1803.57,833.84 1804.59,967.836 1805.61,955.077 1806.63,1033.66 1807.65,1039.4 1808.67,1071.29 1809.69,951.048 1810.71,897.595 1811.73,1101.3 
  1812.74,1126.52 1813.76,1118.72 1814.78,1188.9 1815.8,1394.83 1816.82,1146.2 1817.84,1215.52 1818.86,1283.64 1819.88,1424.43 1820.9,1163.15 1821.91,1091.28 
  1822.93,1001.39 1823.95,936.823 1824.97,781.828 1825.99,845.756 1827.01,753.731 1828.03,758.328 1829.05,874.532 1830.07,936.118 1831.08,810.396 1832.1,710.832 
  1833.12,604.875 1834.14,536.819 1835.16,612.898 1836.18,643.773 1837.2,587.924 1838.22,644.877 1839.24,645.07 1840.25,627.419 1841.27,624.577 1842.29,646.718 
  1843.31,752.793 1844.33,458.034 1845.35,687.816 1846.37,803.014 1847.39,708.619 1848.41,872.167 1849.42,1019.85 1850.44,945.899 1851.46,965.039 1852.48,898.489 
  1853.5,1200.93 1854.52,1178.82 1855.54,1109.36 1856.56,1194.84 1857.58,1130.88 1858.59,1175.23 1859.61,1020.48 1860.63,974.63 1861.65,896.127 1862.67,749.937 
  1863.69,693.95 1864.71,661.448 1865.73,798.124 1866.75,709.171 1867.76,804.612 1868.78,835.956 1869.8,970.61 1870.82,935.299 1871.84,1051.22 1872.86,850.676 
  1873.88,826.031 1874.9,760.912 1875.92,835.712 1876.93,770.699 1877.95,926.025 1878.97,918.988 1879.99,833.737 1881.01,947.446 1882.03,891.319 1883.05,984.084 
  1884.07,951.363 1885.09,915.183 1886.1,890.063 1887.12,680.815 1888.14,658.591 1889.16,670.449 1890.18,681.795 1891.2,522.294 1892.22,657.282 1893.24,662.187 
  1894.26,543.076 1895.27,531.53 1896.29,682.426 1897.31,481.247 1898.33,555.907 1899.35,485.109 1900.37,450.042 1901.39,507.197 1902.41,528.409 1903.43,608.002 
  1904.44,792.877 1905.46,1053.91 1906.48,992.207 1907.5,1025.47 1908.52,822.813 1909.54,880.44 1910.56,879.173 1911.58,752.786 1912.6,578.307 1913.61,494.638 
  1914.63,565.186 1915.65,615.871 1916.67,606.993 1917.69,658.298 1918.71,616.94 1919.73,775.529 1920.75,661.887 1921.77,590.058 1922.78,598.078 1923.8,621.346 
  1924.82,593.703 1925.84,596.771 1926.86,728.578 1927.88,765.485 1928.9,751.857 1929.92,770.302 1930.94,1058.82 1931.95,1106.73 1932.97,949.08 1933.99,920.461 
  1935.01,856.988 1936.03,797.033 1937.05,751.281 1938.07,876.261 1939.09,847.382 1940.11,868.23 1941.12,938.866 1942.14,914.169 1943.16,1017.18 1944.18,878.306 
  1945.2,724.61 1946.22,831.166 1947.24,855.853 1948.26,787.505 1949.28,865.253 1950.29,729.393 1951.31,822.077 1952.33,622.468 1953.35,644.116 1954.37,644.317 
  1955.39,665.056 1956.41,705.03 1957.43,735.532 1958.45,841.926 1959.46,797.65 1960.48,876.507 1961.5,767.296 1962.52,1003.65 1963.54,1078.39 1964.56,806.542 
  1965.58,858.804 1966.6,986.474 1967.62,982.42 1968.63,1005.66 1969.65,906.995 1970.67,831.71 1971.69,673.714 1972.71,741.001 1973.73,836.209 1974.75,877.145 
  1975.77,872.802 1976.79,991.827 1977.8,999.377 1978.82,850.19 1979.84,947.06 1980.86,882.229 1981.88,1027.97 1982.9,1071.99 1983.92,958.36 1984.94,871.318 
  1985.96,798.733 1986.97,869.879 1987.99,860.907 1989.01,768.338 1990.03,846.264 1991.05,842.643 1992.07,897.826 1993.09,1029.59 1994.11,1005.53 1995.13,960.946 
  1996.14,1233.24 1997.16,1056.28 1998.18,1067.75 1999.2,1007.91 2000.22,971.936 2001.24,1033.87 2002.26,1032.81 2003.28,884.974 2004.3,960.986 2005.31,1000.35 
  2006.33,1300.56 2007.35,1155.85 2008.37,1020.45 2009.39,1065.66 2010.41,1100.75 2011.43,868.631 2012.45,876.711 2013.47,839.43 2014.48,981.188 2015.5,953.888 
  2016.52,966.215 2017.54,957.649 2018.56,892.7 2019.58,1013.99 2020.6,1100.08 2021.62,1032.19 2022.64,1159.39 2023.65,1095.97 2024.67,1032.67 2025.69,789.178 
  2026.71,888.707 2027.73,875.593 2028.75,887.183 2029.77,935.9 2030.79,963.815 2031.81,993.883 2032.82,948.802 2033.84,960.973 2034.86,996.945 2035.88,909.16 
  2036.9,1023.96 2037.92,959.122 2038.94,865.61 2039.96,901.356 2040.98,849.633 2041.99,807.554 2043.01,916.494 2044.03,970.689 2045.05,1041.65 2046.07,984.641 
  2047.09,834.464 2048.11,930.994 2049.13,884.042 2050.15,892.491 2051.16,737.817 2052.18,728.244 2053.2,719.499 2054.22,609.516 2055.24,871.577 2056.26,956.015 
  2057.28,838.744 2058.3,975.032 2059.32,866.196 2060.33,721.865 2061.35,722.853 2062.37,654.747 2063.39,757.614 2064.41,723.795 2065.43,721.3 2066.45,659.459 
  2067.47,623.148 2068.49,672.271 2069.5,641.45 2070.52,744.191 2071.54,893.823 2072.56,1001.13 2073.58,918.721 2074.6,833.152 2075.62,714.585 2076.64,834.955 
  2077.66,833.566 2078.67,736.496 2079.69,873.393 2080.71,902.002 2081.73,946.016 2082.75,936.465 2083.77,937.08 2084.79,846.71 2085.81,832.797 2086.83,852.543 
  2087.84,993.767 2088.86,883.38 2089.88,916.339 2090.9,1088.43 2091.92,1018.04 2092.94,1245.77 2093.96,1155.3 2094.98,1092.53 2096,891.457 2097.01,843.995 
  2098.03,929.131 2099.05,832.044 2100.07,797.645 2101.09,741.385 2102.11,955.862 2103.13,708.229 2104.15,757.137 2105.17,772.649 2106.18,787.858 2107.2,1012.72 
  2108.22,987.141 2109.24,933.15 2110.26,865.256 2111.28,866.377 2112.3,791.035 2113.32,893.339 2114.34,760.255 2115.35,791.516 2116.37,755.513 2117.39,838.91 
  2118.41,707.579 2119.43,732.444 2120.45,840.133 2121.47,956.956 2122.49,856.665 2123.51,944.463 2124.52,833.114 2125.54,975.27 2126.56,880.266 2127.58,893.851 
  2128.6,890.079 2129.62,994.384 2130.64,887.944 2131.66,1049.84 2132.68,972.327 2133.69,1010.06 2134.71,1178.68 2135.73,1243.94 2136.75,1078.54 2137.77,1010.76 
  2138.79,1090.96 2139.81,954.124 2140.83,876.923 2141.85,1010.09 2142.86,918.076 2143.88,954.614 2144.9,871.988 2145.92,817.129 2146.94,785.713 2147.96,905.854 
  2148.98,756.436 2150,796.31 2151.02,799.209 2152.03,943.569 2153.05,790.3 2154.07,998.699 2155.09,1126.4 2156.11,914.292 2157.13,917.452 2158.15,927.106 
  2159.17,793.054 2160.19,1015.25 2161.2,999.982 2162.22,987.609 2163.24,704.975 2164.26,743.643 2165.28,792.89 2166.3,866.889 2167.32,1041.53 2168.34,971.088 
  2169.36,1033.66 2170.37,877.881 2171.39,778.37 2172.41,704.407 2173.43,653.445 2174.45,645.508 2175.47,661.644 2176.49,710.509 2177.51,821.758 2178.53,790.081 
  2179.54,820.426 2180.56,651.51 2181.58,570.943 2182.6,642.773 2183.62,595.617 2184.64,491.817 2185.66,573.278 2186.68,718.863 2187.7,768.673 2188.71,672.17 
  2189.73,638.939 2190.75,710.438 2191.77,751.074 2192.79,729.61 2193.81,871.88 2194.83,932.951 2195.85,896.042 2196.87,1041.96 2197.88,919.198 2198.9,932.186 
  2199.92,1021.05 2200.94,1088.38 2201.96,1158.48 2202.98,995.041 2204,1207.33 2205.02,1402.96 2206.04,1445.72 2207.05,1259.46 2208.07,1300.44 2209.09,1176.43 
  2210.11,1004.96 2211.13,883.311 2212.15,929.578 2213.17,769.187 2214.19,888.825 2215.21,739.119 2216.22,910.883 2217.24,935.212 2218.26,925.348 2219.28,1036.91 
  2220.3,1196.47 2221.32,1142.37 2222.34,1156.21 2223.36,1305.59 2224.38,1333.67 2225.39,1253.99 2226.41,1138.26 2227.43,1130.19 2228.45,1072.51 2229.47,866.872 
  2230.49,856.489 2231.51,939.254 2232.53,836.84 2233.55,729.181 2234.56,861.823 2235.58,708.108 2236.6,738.923 2237.62,694.376 2238.64,695.426 2239.66,487.219 
  2240.68,791.151 2241.7,784.716 2242.72,778.191 2243.73,702.717 2244.75,877.043 2245.77,847.368 2246.79,792.21 2247.81,642.11 2248.83,504.92 2249.85,473.122 
  2250.87,601.661 2251.89,582.664 2252.9,495.284 2253.92,541.743 2254.94,637.868 2255.96,588.255 2256.98,550.536 2258,729.657 2259.02,695.098 2260.04,826.28 
  2261.06,847.412 2262.07,847.333 2263.09,827.649 2264.11,902.529 2265.13,962.835 2266.15,933.067 2267.17,876.184 2268.19,1012.9 2269.21,857.197 2270.23,838.53 
  2271.24,853.782 2272.26,832.674 2273.28,952.857 2274.3,956.039 2275.32,874.917 2276.34,863.22 2277.36,853.684 2278.38,911.221 2279.4,1052.63 2280.41,902.5 
  2281.43,887.715 2282.45,892.451 2283.47,643.499 2284.49,790.723 2285.51,747.586 2286.53,721.916 2287.55,785.92 2288.57,720.253 2289.58,641.462 2290.6,656.064 
  2291.62,554.738 
  "/>
<polyline clip-path="url(#clip652)" style="stroke:#e26f46; stroke-linecap:butt; stroke-linejoin:round; stroke-width:4; stroke-opacity:1; fill:none" points="
  253.843,555.2 254.861,584.606 255.88,633.481 256.899,834.2 257.918,633.966 258.937,494.346 259.956,500.536 260.975,615.466 261.994,422.942 263.013,315.016 
  264.031,346.067 265.05,271.677 266.069,310.333 267.088,375.519 268.107,408.404 269.126,544.663 270.145,519.455 271.164,601.257 272.183,559.039 273.201,592.246 
  274.22,588.56 275.239,540.863 276.258,558.671 277.277,522.887 278.296,566.33 279.315,280.783 280.334,87.9763 281.353,297.245 282.371,306.024 283.39,318.375 
  284.409,630.223 285.428,639.189 286.447,750.248 287.466,710.597 288.485,730.087 289.504,707.539 290.523,683.221 291.541,721.8 292.56,680.894 293.579,705.029 
  294.598,728.215 295.617,845.624 296.636,780.249 297.655,765.751 298.674,505.048 299.693,433.795 300.711,483.973 301.73,397.412 302.749,622.202 303.768,458.006 
  304.787,326.628 305.806,470.142 306.825,598.454 307.844,624.292 308.863,725.042 309.881,886.557 310.9,677.569 311.919,623.956 312.938,618.955 313.957,634.303 
  314.976,684.688 315.995,578.586 317.014,603.5 318.033,548.314 319.052,532.314 320.07,514.679 321.089,739.241 322.108,612.882 323.127,742.328 324.146,876.098 
  325.165,659.988 326.184,669.466 327.203,402.414 328.222,363.245 329.24,286.87 330.259,202.399 331.278,214.228 332.297,312.202 333.316,124.831 334.335,365.788 
  335.354,620.524 336.373,575.962 337.392,538.781 338.41,620.376 339.429,505.926 340.448,507.78 341.467,375.747 342.486,478.745 343.505,360.178 344.524,472.378 
  345.543,550.886 346.562,548.32 347.58,646.304 348.599,679.647 349.618,521.281 350.637,612.929 351.656,626.279 352.675,714.204 353.694,719.016 354.713,757.878 
  355.732,609.014 356.75,573.783 357.769,738.761 358.788,922.809 359.807,501.768 360.826,666.982 361.845,466.099 362.864,378.774 363.883,585.141 364.902,790.999 
  365.92,846.852 366.939,871.124 367.958,870.037 368.977,862.246 369.996,787.146 371.015,885.56 372.034,866.424 373.053,857.475 374.072,867.825 375.09,842.097 
  376.109,872.77 377.128,857.891 378.147,894.925 379.166,890.408 380.185,929.655 381.204,694.265 382.223,623.076 383.242,526.784 384.26,569.865 385.279,547.446 
  386.298,532.76 387.317,559.562 388.336,493.166 389.355,707.127 390.374,703.415 391.393,718.72 392.412,747.713 393.43,838.004 394.449,844.515 395.468,842.881 
  396.487,688.266 397.506,690.856 398.525,664.217 399.544,651.707 400.563,714.759 401.582,588.149 402.6,670.636 403.619,820.446 404.638,813.812 405.657,940.023 
  406.676,875.72 407.695,876.178 408.714,833.988 409.733,827.489 410.752,782.911 411.77,865.816 412.789,769.8 413.808,838.263 414.827,870.265 415.846,624.922 
  416.865,567.815 417.884,546.099 418.903,617.287 419.922,627.068 420.941,596.949 421.959,515.285 422.978,567.262 423.997,608.813 425.016,442.643 426.035,447.371 
  427.054,328.83 428.073,369.576 429.092,396.561 430.111,360.453 431.129,251.835 432.148,422.279 433.167,605.285 434.186,436.04 435.205,484.044 436.224,449.152 
  437.243,502.118 438.262,386.947 439.281,516.956 440.299,402.402 441.318,354.302 442.337,399.024 443.356,171.589 444.375,321.261 445.394,484.205 446.413,394.92 
  447.432,459.516 448.451,534.56 449.469,695.195 450.488,609.477 451.507,412.374 452.526,262.911 453.545,357.895 454.564,392.869 455.583,627.791 456.602,739.2 
  457.621,722.19 458.639,836.749 459.658,876.034 460.677,772.793 461.696,804.908 462.715,758.193 463.734,753.357 464.753,699.081 465.772,594.079 466.791,618.283 
  467.809,539.916 468.828,550.608 469.847,151.624 470.866,298.302 471.885,420.696 472.904,569.257 473.923,500.028 474.942,562.26 475.961,457.393 476.979,546.907 
  477.998,547.586 479.017,650.213 480.036,572.554 481.055,629.379 482.074,555.408 483.093,450.277 484.112,406.071 485.131,677.663 486.149,739.587 487.168,720.173 
  488.187,748.584 489.206,808.916 490.225,768.829 491.244,635.074 492.263,714.744 493.282,695.34 494.301,515.533 495.319,529.446 496.338,458.469 497.357,583.912 
  498.376,614.906 499.395,543.941 500.414,540.542 501.433,541.615 502.452,635.501 503.471,506.612 504.489,486.464 505.508,578.539 506.527,362.289 507.546,496.461 
  508.565,340.484 509.584,369.527 510.603,390.815 511.622,440.64 512.641,542.074 513.659,549.758 514.678,453.568 515.697,573.444 516.716,276.469 517.735,399.348 
  518.754,418.283 519.773,516.562 520.792,503.871 521.811,474.895 522.83,584.89 523.848,496.699 524.867,616.749 525.886,532.9 526.905,675.716 527.924,780.284 
  528.943,560.508 529.962,442.378 530.981,516.69 532,584.836 533.018,783.781 534.037,639.684 535.056,730.251 536.075,638.586 537.094,700.78 538.113,714.571 
  539.132,727.141 540.151,790.59 541.17,825.635 542.188,871.498 543.207,780.275 544.226,736.714 545.245,662.528 546.264,693.895 547.283,646.595 548.302,815.558 
  549.321,662.267 550.34,577.79 551.358,403.562 552.377,300.155 553.396,220.23 554.415,296.422 555.434,356.782 556.453,237.828 557.472,309.096 558.491,163.753 
  559.51,398.857 560.528,470.87 561.547,368.73 562.566,411.185 563.585,516.712 564.604,346.145 565.623,403.09 566.642,557.888 567.661,700.241 568.68,767.877 
  569.698,694.184 570.717,664.116 571.736,714.991 572.755,807.229 573.774,759.849 574.793,767.093 575.812,911.637 576.831,834.281 577.85,870.136 578.868,663.264 
  579.887,602.578 580.906,594.394 581.925,699.057 582.944,659.473 583.963,455.992 584.982,390.365 586.001,454.635 587.02,198.158 588.038,325.083 589.057,619.764 
  590.076,516.937 591.095,384.921 592.114,534.058 593.133,731.309 594.152,500.692 595.171,464.103 596.19,558.06 597.208,620.394 598.227,726.079 599.246,634.618 
  600.265,885.955 601.284,959.285 602.303,853.651 603.322,916.531 604.341,831.055 605.36,795.67 606.378,736.093 607.397,634.012 608.416,583.599 609.435,601.01 
  610.454,698.858 611.473,545.232 612.492,428.745 613.511,532.247 614.53,456.924 615.548,706.984 616.567,759.104 617.586,781.98 618.605,756.26 619.624,542.905 
  620.643,666.793 621.662,718.621 622.681,805.159 623.7,746.343 624.719,713.797 625.737,532.42 626.756,400.068 627.775,515.67 628.794,584.731 629.813,479.32 
  630.832,529.983 631.851,649.776 632.87,749.562 633.889,612.372 634.907,484.065 635.926,598.898 636.945,550.993 637.964,613.095 638.983,789.354 640.002,861.891 
  641.021,897.568 642.04,781.291 643.059,742.766 644.077,547.806 645.096,479.527 646.115,448.694 647.134,489.003 648.153,538.716 649.172,524.179 650.191,638.945 
  651.21,741.919 652.229,699.908 653.247,579.43 654.266,659.936 655.285,627.839 656.304,468.36 657.323,590.284 658.342,732.861 659.361,724.555 660.38,703.176 
  661.399,730.991 662.417,741.676 663.436,759.306 664.455,880.589 665.474,799.871 666.493,848.099 667.512,794.319 668.531,790.86 669.55,842.55 670.569,934.533 
  671.587,896.63 672.606,873.666 673.625,790.74 674.644,931.878 675.663,933.235 676.682,820.186 677.701,847.635 678.72,740.705 679.739,719.899 680.757,750.481 
  681.776,748.054 682.795,792.901 683.814,756.826 684.833,599.11 685.852,603.727 686.871,549.034 687.89,696.175 688.909,713.114 689.927,699.659 690.946,787.983 
  691.965,802.268 692.984,908.041 694.003,551.991 695.022,608.907 696.041,601.895 697.06,539.473 698.079,674.023 699.097,608.27 700.116,630.008 701.135,639.924 
  702.154,779.18 703.173,518.544 704.192,468.101 705.211,508.196 706.23,587.339 707.249,745.51 708.267,639.243 709.286,653.433 710.305,543.918 711.324,613.136 
  712.343,721.963 713.362,759.298 714.381,833.198 715.4,860.562 716.419,703.317 717.437,672.913 718.456,515.864 719.475,676.935 720.494,564.594 721.513,569.754 
  722.532,564.497 723.551,770.067 724.57,870.446 725.589,830.057 726.608,891.651 727.626,830.228 728.645,739.647 729.664,804.745 730.683,804.32 731.702,771.027 
  732.721,765.769 733.74,678.775 734.759,628.081 735.778,632.587 736.796,583.002 737.815,411.929 738.834,496.061 739.853,301.779 740.872,380.556 741.891,482.716 
  742.91,577.08 743.929,402.163 744.948,364.965 745.966,524.984 746.985,485.067 748.004,676.269 749.023,581.671 750.042,560.929 751.061,620.176 752.08,482.827 
  753.099,683.498 754.118,564.138 755.136,610.184 756.155,587.625 757.174,677.535 758.193,671.399 759.212,738.811 760.231,575.177 761.25,408.781 762.269,360.63 
  763.288,473.279 764.306,560.514 765.325,511.579 766.344,425.086 767.363,474.057 768.382,399.328 769.401,295.551 770.42,392.795 771.439,402.377 772.458,604.466 
  773.476,692.264 774.495,705.916 775.514,562.097 776.533,617.821 777.552,666.597 778.571,705.222 779.59,656.162 780.609,588.975 781.628,674.908 782.646,688.791 
  783.665,614.024 784.684,553.816 785.703,659.363 786.722,676.342 787.741,461.958 788.76,393.493 789.779,455.947 790.798,338.009 791.816,386.004 792.835,383.379 
  793.854,565.273 794.873,584.631 795.892,757.595 796.911,675.925 797.93,515.788 798.949,748.078 799.968,777.092 800.986,685.981 802.005,756.433 803.024,797.752 
  804.043,906.87 805.062,1031.09 806.081,867.032 807.1,764.64 808.119,669.286 809.138,762.043 810.156,752.843 811.175,615.333 812.194,604.497 813.213,710.94 
  814.232,425.155 815.251,438.912 816.27,530.456 817.289,508.818 818.308,535.442 819.326,580.324 820.345,613.369 821.364,610.486 822.383,545.676 823.402,608.744 
  824.421,657.596 825.44,563.894 826.459,489.81 827.478,767.474 828.496,814.043 829.515,757.029 830.534,817.741 831.553,870.787 832.572,657.636 833.591,587.166 
  834.61,618.03 835.629,491.254 836.648,539.978 837.667,590.046 838.685,619.377 839.704,654.554 840.723,730.849 841.742,755.947 842.761,757.546 843.78,797.144 
  844.799,685.655 845.818,612.332 846.837,576.218 847.855,722.702 848.874,747.933 849.893,768.41 850.912,685.669 851.931,574.953 852.95,685.437 853.969,645.856 
  854.988,590.544 856.007,817.47 857.025,825.164 858.044,858.742 859.063,707.244 860.082,629.991 861.101,671.349 862.12,622.698 863.139,757.51 864.158,712.023 
  865.177,649.749 866.195,754.984 867.214,746.566 868.233,766.46 869.252,786.678 870.271,811.705 871.29,508.738 872.309,423.981 873.328,371.889 874.347,428.269 
  875.365,368.38 876.384,338.668 877.403,618.076 878.422,730.214 879.441,645.199 880.46,603.593 881.479,626.931 882.498,709.134 883.517,738.486 884.535,754.074 
  885.554,597.94 886.573,640.409 887.592,638.041 888.611,710.47 889.63,665.875 890.649,739.051 891.668,724.666 892.687,674.619 893.705,532.906 894.724,681.36 
  895.743,652.463 896.762,646.089 897.781,559.167 898.8,530.467 899.819,588.101 900.838,609.851 901.857,665.989 902.875,652.173 903.894,642.44 904.913,686.715 
  905.932,758.321 906.951,656.038 907.97,650.494 908.989,462.413 910.008,429.899 911.027,517.836 912.045,281.689 913.064,428.601 914.083,427.806 915.102,572.165 
  916.121,496.094 917.14,442.349 918.159,462.796 919.178,579.112 920.197,675.472 921.215,535.27 922.234,568.83 923.253,599.291 924.272,588.376 925.291,572.901 
  926.31,472.321 927.329,502.136 928.348,512.121 929.367,394.409 930.385,545.263 931.404,474.252 932.423,623.815 933.442,718.121 934.461,696.987 935.48,478.097 
  936.499,414.727 937.518,453.127 938.537,316.893 939.556,307.731 940.574,243.348 941.593,527.201 942.612,106.476 943.631,218.115 944.65,527.47 945.669,632.528 
  946.688,669.242 947.707,558.776 948.726,610.474 949.744,773.252 950.763,740.117 951.782,743.335 952.801,827.971 953.82,844.918 954.839,773.645 955.858,747.588 
  956.877,801.632 957.896,761.076 958.914,655.835 959.933,698.35 960.952,525.143 961.971,555.427 962.99,428.153 964.009,339.563 965.028,485.25 966.047,569.452 
  967.066,657.196 968.084,491.543 969.103,545.233 970.122,631.459 971.141,605.369 972.16,600.93 973.179,637.176 974.198,491.141 975.217,563.827 976.236,587.631 
  977.254,592.834 978.273,479.391 979.292,474.078 980.311,453.946 981.33,564.264 982.349,569.156 983.368,479.575 984.387,655.791 985.406,545.423 986.424,567.684 
  987.443,530.792 988.462,451.37 989.481,454.968 990.5,625.694 991.519,722.839 992.538,584.847 993.557,594.966 994.576,776.14 995.594,813.179 996.613,987.05 
  997.632,973.302 998.651,831.543 999.67,737.368 1000.69,832.861 1001.71,667.388 1002.73,668.47 1003.75,607.593 1004.76,609.829 1005.78,677.555 1006.8,719.612 
  1007.82,694.32 1008.84,766.637 1009.86,712.8 1010.88,659.656 1011.9,623.628 1012.92,460.582 1013.93,505.014 1014.95,529.047 1015.97,689.856 1016.99,522.113 
  1018.01,546.105 1019.03,546.549 1020.05,667.979 1021.07,587.669 1022.09,487.121 1023.1,647.993 1024.12,744.811 1025.14,762.94 1026.16,815.683 1027.18,715.3 
  1028.2,602.788 1029.22,647.947 1030.24,573.104 1031.26,597.856 1032.27,647.169 1033.29,738.105 1034.31,656.404 1035.33,764.998 1036.35,712.072 1037.37,788.419 
  1038.39,695.611 1039.41,532.897 1040.43,501.294 1041.44,618.448 1042.46,555.704 1043.48,583.016 1044.5,579.516 1045.52,784.507 1046.54,812.234 1047.56,825.232 
  1048.58,864.292 1049.6,667.294 1050.61,736.919 1051.63,707.103 1052.65,772.347 1053.67,566.652 1054.69,689.494 1055.71,729.101 1056.73,897.447 1057.75,738.619 
  1058.77,798.254 1059.78,805.116 1060.8,699.684 1061.82,746.277 1062.84,815.26 1063.86,827.753 1064.88,721.971 1065.9,749.183 1066.92,778.153 1067.94,683.83 
  1068.95,693.485 1069.97,779.104 1070.99,846.917 1072.01,707.935 1073.03,627.123 1074.05,712.573 1075.07,653.745 1076.09,538.464 1077.11,438.976 1078.12,531.045 
  1079.14,593.977 1080.16,624.092 1081.18,775.398 1082.2,822.381 1083.22,690.642 1084.24,523.129 1085.26,359.822 1086.28,429.681 1087.29,728.762 1088.31,800.5 
  1089.33,726.633 1090.35,583.429 1091.37,572.425 1092.39,538.138 1093.41,611.119 1094.43,446.095 1095.45,482.41 1096.46,487.089 1097.48,357.542 1098.5,391.968 
  1099.52,455.403 1100.54,383.527 1101.56,570.382 1102.58,449.771 1103.6,547.344 1104.62,524.248 1105.63,485.36 1106.65,497.918 1107.67,562.033 1108.69,638.737 
  1109.71,656.638 1110.73,617.743 1111.75,572.78 1112.77,472.016 1113.79,372.849 1114.8,448.276 1115.82,503.642 1116.84,597.255 1117.86,670.901 1118.88,580.45 
  1119.9,642.046 1120.92,712.467 1121.94,651.989 1122.96,601.843 1123.97,478.678 1124.99,453.926 1126.01,454.126 1127.03,437.01 1128.05,567.242 1129.07,546.097 
  1130.09,525.478 1131.11,455.429 1132.13,633.309 1133.14,612.79 1134.16,720.357 1135.18,1021.57 1136.2,932.193 1137.22,940.478 1138.24,871.573 1139.26,874.994 
  1140.28,519.823 1141.3,610.937 1142.31,579.096 1143.33,674.609 1144.35,639.654 1145.37,673.438 1146.39,762.213 1147.41,675.623 1148.43,787.627 1149.45,666.883 
  1150.47,647.75 1151.48,529.727 1152.5,461.223 1153.52,509.196 1154.54,489.396 1155.56,565.216 1156.58,534.677 1157.6,544.277 1158.62,467.174 1159.64,490.691 
  1160.65,500.468 1161.67,571.453 1162.69,638.652 1163.71,571.059 1164.73,634.694 1165.75,557.031 1166.77,668.082 1167.79,760.865 1168.81,700.831 1169.82,784.334 
  1170.84,848.689 1171.86,789.233 1172.88,684.178 1173.9,818.33 1174.92,786.752 1175.94,688.578 1176.96,572.82 1177.98,349.131 1178.99,421.141 1180.01,383.148 
  1181.03,118.317 1182.05,358.87 1183.07,485.144 1184.09,437.046 1185.11,348.365 1186.13,445.821 1187.15,440.55 1188.16,419.865 1189.18,568.861 1190.2,616.839 
  1191.22,748.893 1192.24,745.616 1193.26,701.026 1194.28,741.001 1195.3,741.955 1196.32,804.498 1197.33,781.682 1198.35,656.754 1199.37,548.324 1200.39,290.793 
  1201.41,374.942 1202.43,341.787 1203.45,356.336 1204.47,599.456 1205.49,638.425 1206.5,704.821 1207.52,433.759 1208.54,353.241 1209.56,237.117 1210.58,481.083 
  1211.6,635.901 1212.62,472.111 1213.64,498.299 1214.66,685.868 1215.67,610.123 1216.69,573.73 1217.71,643.993 1218.73,679.01 1219.75,641.071 1220.77,608.542 
  1221.79,636.607 1222.81,491.565 1223.83,557.33 1224.84,682.947 1225.86,701.655 1226.88,595.939 1227.9,771.734 1228.92,700.916 1229.94,670.388 1230.96,734.548 
  1231.98,728.53 1233,708.407 1234.01,768.223 1235.03,794.088 1236.05,713.534 1237.07,577.369 1238.09,391.749 1239.11,524.604 1240.13,517.99 1241.15,571.295 
  1242.17,625.2 1243.18,663.001 1244.2,745.62 1245.22,661.889 1246.24,752.358 1247.26,789.626 1248.28,754.333 1249.3,898.249 1250.32,944.349 1251.34,776.66 
  1252.35,777.461 1253.37,648.57 1254.39,725.469 1255.41,692.566 1256.43,721.761 1257.45,807.411 1258.47,834.54 1259.49,712.566 1260.51,538.185 1261.52,497.898 
  1262.54,581.512 1263.56,702.243 1264.58,620.368 1265.6,616.96 1266.62,743.725 1267.64,690.033 1268.66,709.52 1269.68,742.922 1270.69,512.67 1271.71,509.096 
  1272.73,569.296 1273.75,548.309 1274.77,623.388 1275.79,457.985 1276.81,470.708 1277.83,590.018 1278.85,743.481 1279.86,687.891 1280.88,753.547 1281.9,602.868 
  1282.92,545.978 1283.94,499.332 1284.96,485.767 1285.98,487.41 1287,350.097 1288.02,548.958 1289.03,704.852 1290.05,868.413 1291.07,752.761 1292.09,680.136 
  1293.11,737.18 1294.13,690.238 1295.15,573.118 1296.17,705.155 1297.19,714.493 1298.2,669.273 1299.22,636.763 1300.24,695.818 1301.26,751.143 1302.28,676.175 
  1303.3,748.939 1304.32,543.428 1305.34,475.518 1306.36,456.599 1307.37,653.482 1308.39,730.215 1309.41,436.284 1310.43,608.778 1311.45,680.233 1312.47,853.073 
  1313.49,842.156 1314.51,924.366 1315.53,835.672 1316.54,614.979 1317.56,594.366 1318.58,544.018 1319.6,655.015 1320.62,800.373 1321.64,825.115 1322.66,876.956 
  1323.68,725.808 1324.7,570.218 1325.71,451.902 1326.73,547.414 1327.75,548.779 1328.77,536.807 1329.79,624.581 1330.81,390.049 1331.83,529.817 1332.85,725.522 
  1333.87,572.347 1334.88,581.849 1335.9,718.564 1336.92,545.908 1337.94,568.948 1338.96,438.165 1339.98,623.277 1341,734.998 1342.02,574.643 1343.04,509.548 
  1344.05,576.824 1345.07,488.536 1346.09,432.054 1347.11,530.785 1348.13,576.262 1349.15,523.327 1350.17,537.013 1351.19,729.324 1352.21,573.891 1353.22,502.151 
  1354.24,535.523 1355.26,398.099 1356.28,380.197 1357.3,534.216 1358.32,482.311 1359.34,594.396 1360.36,451.989 1361.38,341.968 1362.39,384.252 1363.41,355.889 
  1364.43,450.839 1365.45,402.175 1366.47,306.679 1367.49,436.485 1368.51,461.149 1369.53,390.793 1370.55,346.758 1371.56,412.407 1372.58,377.302 1373.6,326.181 
  1374.62,578.971 1375.64,798.304 1376.66,770.037 1377.68,831.231 1378.7,876.894 1379.72,780.362 1380.73,741.062 1381.75,790.632 1382.77,671.259 1383.79,795.242 
  1384.81,801.395 1385.83,832.039 1386.85,855.813 1387.87,758.459 1388.89,689.583 1389.9,759.716 1390.92,654.233 1391.94,559.607 1392.96,594.813 1393.98,533.404 
  1395,605.644 1396.02,864.479 1397.04,866.649 1398.06,782.734 1399.07,758.823 1400.09,611.565 1401.11,486.357 1402.13,628.175 1403.15,696.852 1404.17,698.061 
  1405.19,697.95 1406.21,764.086 1407.23,757.074 1408.24,824.09 1409.26,836.528 1410.28,688.942 1411.3,483.032 1412.32,649.431 1413.34,573.367 1414.36,609.228 
  1415.38,620.148 1416.4,448.549 1417.41,475.418 1418.43,530.568 1419.45,599.606 1420.47,596.427 1421.49,687.643 1422.51,753.827 1423.53,654.588 1424.55,537.318 
  1425.57,384.503 1426.58,664.987 1427.6,528.587 1428.62,408.333 1429.64,569.348 1430.66,509.229 1431.68,774.942 1432.7,710.821 1433.72,561.306 1434.74,670.827 
  1435.75,837.705 1436.77,802.548 1437.79,659.673 1438.81,683.957 1439.83,697.479 1440.85,643.456 1441.87,633.187 1442.89,619.522 1443.91,616.265 1444.92,596.369 
  1445.94,629.259 1446.96,612.118 1447.98,404.39 1449,448.927 1450.02,583.166 1451.04,513.153 1452.06,382.384 1453.08,280.162 1454.09,427.319 1455.11,455.973 
  1456.13,528.534 1457.15,464.067 1458.17,516.841 1459.19,627.762 1460.21,632.051 1461.23,662.514 1462.25,502.762 1463.26,539.137 1464.28,606.925 1465.3,735.918 
  1466.32,652.644 1467.34,714.502 1468.36,586.035 1469.38,799.494 1470.4,700.81 1471.42,755.263 1472.43,722.882 1473.45,672.746 1474.47,707.658 1475.49,606.242 
  1476.51,525.796 1477.53,528.921 1478.55,611.653 1479.57,584.254 1480.59,677.692 1481.6,608.403 1482.62,507.245 1483.64,348.19 1484.66,375.925 1485.68,301.594 
  1486.7,473.157 1487.72,535.941 1488.74,598.51 1489.76,575.409 1490.77,543.64 1491.79,576.408 1492.81,569.855 1493.83,678.822 1494.85,735.741 1495.87,711.412 
  1496.89,729.74 1497.91,718.052 1498.93,856.117 1499.94,763.006 1500.96,551.293 1501.98,433.366 1503,318.218 1504.02,417.676 1505.04,315.486 1506.06,240.093 
  1507.08,388.135 1508.1,534.439 1509.12,658.141 1510.13,584.1 1511.15,550.692 1512.17,582.725 1513.19,705.172 1514.21,659.768 1515.23,674.59 1516.25,626.517 
  1517.27,568.356 1518.29,480.314 1519.3,427.338 1520.32,388.463 1521.34,411.167 1522.36,695.369 1523.38,703.469 1524.4,650.603 1525.42,593.771 1526.44,492.654 
  1527.46,627.113 1528.47,712.072 1529.49,699.632 1530.51,582.368 1531.53,588.181 1532.55,634.119 1533.57,521.171 1534.59,495.07 1535.61,449.357 1536.63,501.956 
  1537.64,568.898 1538.66,580.103 1539.68,661.221 1540.7,685.53 1541.72,604.385 1542.74,615.908 1543.76,562.148 1544.78,686.924 1545.8,802.373 1546.81,763.508 
  1547.83,861.518 1548.85,974.439 1549.87,801.612 1550.89,611.755 1551.91,700.054 1552.93,698.647 1553.95,607.256 1554.97,730.148 1555.98,716.549 1557,644.732 
  1558.02,795.267 1559.04,817.511 1560.06,614.703 1561.08,568.427 1562.1,539.504 1563.12,482.873 1564.14,558.995 1565.15,538.906 1566.17,453.539 1567.19,282.258 
  1568.21,450.566 1569.23,370.332 1570.25,255.6 1571.27,472.188 1572.29,466.672 1573.31,595.667 1574.32,347.876 1575.34,502.4 1576.36,631.616 1577.38,675.498 
  1578.4,681.52 1579.42,686.03 1580.44,798.375 1581.46,747.96 1582.48,785.019 1583.49,717.944 1584.51,741.945 1585.53,696.663 1586.55,472.596 1587.57,543.338 
  1588.59,509.393 1589.61,617.784 1590.63,599.28 1591.65,559.237 1592.66,508.391 1593.68,453.772 1594.7,685.125 1595.72,614.258 1596.74,642.812 1597.76,516.877 
  1598.78,436.446 1599.8,387.356 1600.82,374.683 1601.83,443.249 1602.85,456.587 1603.87,565.132 1604.89,556.072 1605.91,439.044 1606.93,518.424 1607.95,578.277 
  1608.97,576.836 1609.99,574.099 1611,584.754 1612.02,771.09 1613.04,756.286 1614.06,754.103 1615.08,667.335 1616.1,628.387 1617.12,632.282 1618.14,450.675 
  1619.16,448.095 1620.17,719.863 1621.19,569.225 1622.21,485.103 1623.23,677.824 1624.25,619.147 1625.27,644.982 1626.29,772.557 1627.31,768.153 1628.33,693.992 
  1629.34,757.622 1630.36,708.711 1631.38,680.086 1632.4,760.829 1633.42,610.029 1634.44,492.675 1635.46,472.919 1636.48,636.039 1637.5,699.542 1638.51,629.264 
  1639.53,558.665 1640.55,587.057 1641.57,597.563 1642.59,630.845 1643.61,607.109 1644.63,613.914 1645.65,795.407 1646.67,800.566 1647.68,860.642 1648.7,824.945 
  1649.72,907.176 1650.74,725.105 1651.76,654.954 1652.78,571.962 1653.8,627.289 1654.82,811.657 1655.84,701.973 1656.85,775.097 1657.87,553.597 1658.89,752.706 
  1659.91,692.114 1660.93,834.482 1661.95,828.734 1662.97,834.189 1663.99,672.735 1665.01,809.431 1666.02,781.045 1667.04,846.836 1668.06,775.974 1669.08,479.333 
  1670.1,588.28 1671.12,465.481 1672.14,567.511 1673.16,775.039 1674.18,531.219 1675.19,622.511 1676.21,602.686 1677.23,531.776 1678.25,575.151 1679.27,706.537 
  1680.29,510.841 1681.31,602.873 1682.33,573.132 1683.35,437.624 1684.36,463.344 1685.38,580.247 1686.4,561.632 1687.42,880.309 1688.44,815.441 1689.46,828.509 
  1690.48,716.934 1691.5,823.871 1692.52,580.666 1693.53,676.788 1694.55,787.765 1695.57,907.089 1696.59,855.006 1697.61,900.943 1698.63,905.558 1699.65,787.521 
  1700.67,760.967 1701.69,658.259 1702.7,684.331 1703.72,591.11 1704.74,641.009 1705.76,672.709 1706.78,815.771 1707.8,843.104 1708.82,855.164 1709.84,668.114 
  1710.86,779.249 1711.87,547.833 1712.89,642.155 1713.91,648.002 1714.93,543.329 1715.95,475.381 1716.97,448.044 1717.99,439.494 1719.01,415.453 1720.03,401.351 
  1721.04,431.777 1722.06,539.43 1723.08,547.639 1724.1,575.681 1725.12,683.061 1726.14,636.566 1727.16,625.911 1728.18,544.389 1729.2,614.646 1730.21,567.9 
  1731.23,743.115 1732.25,738.675 1733.27,809.7 1734.29,869.007 1735.31,840.749 1736.33,915.922 1737.35,864.531 1738.37,622.795 1739.38,258.312 1740.4,401.062 
  1741.42,562.124 1742.44,581.033 1743.46,638.667 1744.48,628.328 1745.5,510.715 1746.52,493.308 1747.54,592.768 1748.55,779.734 1749.57,709.553 1750.59,388.309 
  1751.61,329.62 1752.63,437.123 1753.65,518.261 1754.67,557.229 1755.69,623.155 1756.71,708.647 1757.72,550.833 1758.74,619.282 1759.76,624.228 1760.78,688.2 
  1761.8,640.949 1762.82,653.748 1763.84,671.608 1764.86,746.793 1765.88,777.545 1766.89,849.733 1767.91,835.347 1768.93,754.435 1769.95,697.157 1770.97,528.809 
  1771.99,601.266 1773.01,634.681 1774.03,530.443 1775.05,619.623 1776.06,706.275 1777.08,837.146 1778.1,617.352 1779.12,662.661 1780.14,703.22 1781.16,791.416 
  1782.18,786.682 1783.2,819.954 1784.22,858.887 1785.23,799.154 1786.25,865.381 1787.27,901.047 1788.29,854.924 1789.31,775.737 1790.33,581.537 1791.35,795.264 
  1792.37,882.775 1793.39,800.65 1794.4,838.867 1795.42,739.394 1796.44,723.492 1797.46,761.283 1798.48,822.03 1799.5,738.688 1800.52,734.978 1801.54,651.902 
  1802.56,606.082 1803.57,499.78 1804.59,306.946 1805.61,611.02 1806.63,739.422 1807.65,749.277 1808.67,672.843 1809.69,646.239 1810.71,530.335 1811.73,417.37 
  1812.74,408.383 1813.76,569.584 1814.78,651.165 1815.8,321.56 1816.82,224.632 1817.84,287.733 1818.86,219.966 1819.88,453.047 1820.9,168.135 1821.91,510.013 
  1822.93,622.113 1823.95,767.113 1824.97,835.314 1825.99,735.814 1827.01,711.291 1828.03,405.499 1829.05,526.186 1830.07,489.715 1831.08,480.379 1832.1,775.007 
  1833.12,732.154 1834.14,733.71 1835.16,678.159 1836.18,622.282 1837.2,656.121 1838.22,573.375 1839.24,558.41 1840.25,637.534 1841.27,673.5 1842.29,697.798 
  1843.31,637.163 1844.33,642.979 1845.35,369.197 1846.37,258.193 1847.39,436.588 1848.41,438.989 1849.42,636.524 1850.44,491.723 1851.46,493.822 1852.48,397.453 
  1853.5,468.116 1854.52,457.093 1855.54,297.524 1856.56,335.804 1857.58,639.947 1858.59,572.226 1859.61,498.636 1860.63,521.331 1861.65,577.951 1862.67,634.445 
  1863.69,785.153 1864.71,833.364 1865.73,718.223 1866.75,778.438 1867.76,746.075 1868.78,663.829 1869.8,682.64 1870.82,685.936 1871.84,750.473 1872.86,669.792 
  1873.88,741.591 1874.9,714.887 1875.92,654.118 1876.93,621.272 1877.95,600.35 1878.97,512.363 1879.99,385.232 1881.01,521.347 1882.03,683.018 1883.05,616.19 
  1884.07,681.634 1885.09,808.774 1886.1,710.536 1887.12,669.56 1888.14,772.999 1889.16,524.23 1890.18,604.179 1891.2,703.221 1892.22,797.919 1893.24,762.186 
  1894.26,780.21 1895.27,645.496 1896.29,728.906 1897.31,862.401 1898.33,837.223 1899.35,785.223 1900.37,775.612 1901.39,769.357 1902.41,695.336 1903.43,760.147 
  1904.44,746.405 1905.46,699.589 1906.48,882.376 1907.5,894.162 1908.52,963.697 1909.54,818.982 1910.56,883.678 1911.58,933.256 1912.6,970.391 1913.61,904.772 
  1914.63,886.53 1915.65,836.583 1916.67,849.505 1917.69,731.6 1918.71,709.229 1919.73,742.749 1920.75,639.676 1921.77,748.731 1922.78,583.431 1923.8,539.304 
  1924.82,607.952 1925.84,670.774 1926.86,584.58 1927.88,608.388 1928.9,472.483 1929.92,677.528 1930.94,644.735 1931.95,605.635 1932.97,652.206 1933.99,753.541 
  1935.01,735.768 1936.03,716.84 1937.05,799.425 1938.07,755.904 1939.09,794.361 1940.11,812.151 1941.12,795.599 1942.14,798.492 1943.16,808.415 1944.18,529.367 
  1945.2,548.172 1946.22,679.362 1947.24,701.468 1948.26,686.8 1949.28,792.977 1950.29,692.183 1951.31,733.911 1952.33,644.652 1953.35,516.549 1954.37,539.943 
  1955.39,545.733 1956.41,657.948 1957.43,565.657 1958.45,565.628 1959.46,490.281 1960.48,590.917 1961.5,678.873 1962.52,775.728 1963.54,778.745 1964.56,720.681 
  1965.58,674.043 1966.6,831.59 1967.62,853.447 1968.63,831.783 1969.65,726.158 1970.67,747.148 1971.69,664.398 1972.71,642.697 1973.73,626.626 1974.75,563.747 
  1975.77,667.233 1976.79,615.906 1977.8,674.172 1978.82,649.5 1979.84,587.263 1980.86,560.812 1981.88,574.203 1982.9,594.658 1983.92,611.54 1984.94,503.54 
  1985.96,523.314 1986.97,470.374 1987.99,479.19 1989.01,620.318 1990.03,521.7 1991.05,566.826 1992.07,545.267 1993.09,389.13 1994.11,291.712 1995.13,288.883 
  1996.14,555.38 1997.16,470.916 1998.18,572.277 1999.2,565.281 2000.22,371.297 2001.24,529.402 2002.26,673.022 2003.28,584.86 2004.3,480.223 2005.31,535.148 
  2006.33,635.073 2007.35,710.928 2008.37,535.389 2009.39,514.404 2010.41,569.572 2011.43,615.312 2012.45,599.328 2013.47,523.545 2014.48,613.89 2015.5,679.562 
  2016.52,587.278 2017.54,369.502 2018.56,366.939 2019.58,580.871 2020.6,662.114 2021.62,780.156 2022.64,756.747 2023.65,753.189 2024.67,826.326 2025.69,810.904 
  2026.71,815.845 2027.73,703.949 2028.75,714.516 2029.77,760.14 2030.79,790.038 2031.81,717.383 2032.82,744.228 2033.84,586.662 2034.86,517.95 2035.88,688.403 
  2036.9,767.058 2037.92,857.047 2038.94,912.172 2039.96,984.466 2040.98,801.953 2041.99,674.909 2043.01,463.766 2044.03,291.675 2045.05,457.597 2046.07,393.871 
  2047.09,283.429 2048.11,260.397 2049.13,407.452 2050.15,420.311 2051.16,228.765 2052.18,473.994 2053.2,538.572 2054.22,550.808 2055.24,569.494 2056.26,379.025 
  2057.28,415.97 2058.3,393.344 2059.32,519.654 2060.33,415.414 2061.35,461.899 2062.37,557.317 2063.39,584.668 2064.41,631.256 2065.43,608.298 2066.45,542.682 
  2067.47,478.847 2068.49,552.809 2069.5,639.797 2070.52,499.424 2071.54,492.748 2072.56,606.126 2073.58,571.908 2074.6,573.009 2075.62,399.701 2076.64,514.721 
  2077.66,533.619 2078.67,658.728 2079.69,644.054 2080.71,703.357 2081.73,642.91 2082.75,740.193 2083.77,648.079 2084.79,696.785 2085.81,750.215 2086.83,727.792 
  2087.84,530.333 2088.86,554.436 2089.88,697.024 2090.9,504.883 2091.92,563.754 2092.94,545.997 2093.96,611.567 2094.98,415.286 2096,546.103 2097.01,622.182 
  2098.03,465.572 2099.05,569.401 2100.07,514.361 2101.09,341.417 2102.11,357.117 2103.13,387.186 2104.15,413.071 2105.17,304.489 2106.18,234.822 2107.2,185.978 
  2108.22,369.466 2109.24,418.673 2110.26,644.394 2111.28,403.693 2112.3,336.254 2113.32,321.09 2114.34,410.94 2115.35,478.818 2116.37,282.75 2117.39,260.782 
  2118.41,322.298 2119.43,166.581 2120.45,555.868 2121.47,625.49 2122.49,657.968 2123.51,779.045 2124.52,695.423 2125.54,730.444 2126.56,628.109 2127.58,472.174 
  2128.6,439.404 2129.62,540.413 2130.64,646.65 2131.66,799.106 2132.68,668.042 2133.69,583.476 2134.71,533.828 2135.73,664.658 2136.75,723.025 2137.77,835.932 
  2138.79,561.225 2139.81,703.865 2140.83,712.044 2141.85,704.471 2142.86,720.88 2143.88,542.318 2144.9,362.821 2145.92,405.741 2146.94,351.781 2147.96,552.835 
  2148.98,503.224 2150,585.938 2151.02,536.763 2152.03,454.257 2153.05,519.666 2154.07,522.999 2155.09,561.841 2156.11,603.347 2157.13,560.353 2158.15,732.078 
  2159.17,625.914 2160.19,512.043 2161.2,617.503 2162.22,776.275 2163.24,816.83 2164.26,573.09 2165.28,514.856 2166.3,548.955 2167.32,512.14 2168.34,515.398 
  2169.36,512.038 2170.37,566.931 2171.39,720.324 2172.41,705.132 2173.43,656.031 2174.45,554.801 2175.47,547.403 2176.49,476.492 2177.51,545.881 2178.53,624.121 
  2179.54,563.36 2180.56,715.177 2181.58,752.248 2182.6,845.357 2183.62,777.508 2184.64,734.158 2185.66,663.87 2186.68,734.542 2187.7,828.954 2188.71,783.835 
  2189.73,781.348 2190.75,768.386 2191.77,708.476 2192.79,690.483 2193.81,650.883 2194.83,703.36 2195.85,559.527 2196.87,614.334 2197.88,626.747 2198.9,471.371 
  2199.92,431.911 2200.94,436.24 2201.96,529.407 2202.98,593.006 2204,906.068 2205.02,791.178 2206.04,751.125 2207.05,650.777 2208.07,656.525 2209.09,604.182 
  2210.11,684.958 2211.13,631.472 2212.15,684.926 2213.17,745.966 2214.19,657.312 2215.21,710.87 2216.22,558.049 2217.24,517.263 2218.26,500.043 2219.28,564.736 
  2220.3,589.768 2221.32,598.033 2222.34,775.811 2223.36,771.569 2224.38,680.846 2225.39,791.224 2226.41,630.846 2227.43,615.461 2228.45,633.108 2229.47,577.153 
  2230.49,654.675 2231.51,639.168 2232.53,770.576 2233.55,759.014 2234.56,738.625 2235.58,510.991 2236.6,589.986 2237.62,489.73 2238.64,662.958 2239.66,568.674 
  2240.68,492.001 2241.7,393.936 2242.72,334.548 2243.73,425.041 2244.75,383.819 2245.77,475.089 2246.79,326.282 2247.81,408.557 2248.83,556.455 2249.85,333.444 
  2250.87,146.714 2251.89,132.214 2252.9,294.377 2253.92,362.43 2254.94,579.207 2255.96,596.3 2256.98,512.16 2258,662.702 2259.02,635.788 2260.04,567.066 
  2261.06,517.319 2262.07,401.219 2263.09,372.371 2264.11,258.746 2265.13,283.399 2266.15,409.165 2267.17,491.118 2268.19,652.732 2269.21,620.268 2270.23,786.487 
  2271.24,802.639 2272.26,731.255 2273.28,658.025 2274.3,548.35 2275.32,513.51 2276.34,366.777 2277.36,459.965 2278.38,324.61 2279.4,375.161 2280.41,447.031 
  2281.43,377.978 2282.45,217.56 2283.47,142.797 2284.49,224.905 2285.51,281.331 2286.53,476.088 2287.55,524.299 2288.57,443.293 2289.58,486.08 2290.6,442.351 
  2291.62,532.987 
  "/>
<path clip-path="url(#clip650)" d="
M1872.6 250.738 L2280.75 250.738 L2280.75 95.2176 L1872.6 95.2176  Z
  " fill="#ffffff" fill-rule="evenodd" fill-opacity="1"/>
<polyline clip-path="url(#clip650)" style="stroke:#000000; stroke-linecap:butt; stroke-linejoin:round; stroke-width:4; stroke-opacity:1; fill:none" points="
  1872.6,250.738 2280.75,250.738 2280.75,95.2176 1872.6,95.2176 1872.6,250.738 
  "/>
<polyline clip-path="url(#clip650)" style="stroke:#009af9; stroke-linecap:butt; stroke-linejoin:round; stroke-width:4; stroke-opacity:1; fill:none" points="
  1896.6,147.058 2040.61,147.058 
  "/>
<path clip-path="url(#clip650)" d="M2079.47 159.615 Q2080.3 160.726 2082.8 160.726 L2084.86 160.726 L2084.86 164.338 L2082.29 164.338 Q2078.12 164.338 2076.23 162.115 Q2074.33 159.847 2074.33 154.939 L2074.33 142.671 L2064.61 142.671 L2064.61 138.412 L2088.52 138.412 L2088.52 142.671 L2078.68 142.671 L2078.68 155.194 Q2078.68 158.551 2079.47 159.615 Z" fill="#000000" fill-rule="evenodd" fill-opacity="1" /><path clip-path="url(#clip650)" d="M2110.93 142.81 L2140.6 142.81 L2140.6 146.699 L2110.93 146.699 L2110.93 142.81 M2110.93 152.254 L2140.6 152.254 L2140.6 156.189 L2110.93 156.189 L2110.93 152.254 Z" fill="#000000" fill-rule="evenodd" fill-opacity="1" /><path clip-path="url(#clip650)" d="M2175.76 132.856 Q2172.15 132.856 2170.32 136.421 Q2168.52 139.963 2168.52 147.092 Q2168.52 154.199 2170.32 157.764 Q2172.15 161.305 2175.76 161.305 Q2179.4 161.305 2181.2 157.764 Q2183.03 154.199 2183.03 147.092 Q2183.03 139.963 2181.2 136.421 Q2179.4 132.856 2175.76 132.856 M2175.76 129.153 Q2181.57 129.153 2184.63 133.759 Q2187.71 138.342 2187.71 147.092 Q2187.71 155.819 2184.63 160.426 Q2181.57 165.009 2175.76 165.009 Q2169.95 165.009 2166.87 160.426 Q2163.82 155.819 2163.82 147.092 Q2163.82 138.342 2166.87 133.759 Q2169.95 129.153 2175.76 129.153 Z" fill="#000000" fill-rule="evenodd" fill-opacity="1" /><path clip-path="url(#clip650)" d="M2195.92 158.458 L2200.81 158.458 L2200.81 164.338 L2195.92 164.338 L2195.92 158.458 Z" fill="#000000" fill-rule="evenodd" fill-opacity="1" /><path clip-path="url(#clip650)" d="M2211.8 160.402 L2219.44 160.402 L2219.44 134.037 L2211.13 135.703 L2211.13 131.444 L2219.4 129.778 L2224.07 129.778 L2224.07 160.402 L2231.71 160.402 L2231.71 164.338 L2211.8 164.338 L2211.8 160.402 Z" fill="#000000" fill-rule="evenodd" fill-opacity="1" /><polyline clip-path="url(#clip650)" style="stroke:#e26f46; stroke-linecap:butt; stroke-linejoin:round; stroke-width:4; stroke-opacity:1; fill:none" points="
  1896.6,198.898 2040.61,198.898 
  "/>
<path clip-path="url(#clip650)" d="M2079.47 211.455 Q2080.3 212.566 2082.8 212.566 L2084.86 212.566 L2084.86 216.178 L2082.29 216.178 Q2078.12 216.178 2076.23 213.955 Q2074.33 211.687 2074.33 206.779 L2074.33 194.511 L2064.61 194.511 L2064.61 190.252 L2088.52 190.252 L2088.52 194.511 L2078.68 194.511 L2078.68 207.034 Q2078.68 210.391 2079.47 211.455 Z" fill="#000000" fill-rule="evenodd" fill-opacity="1" /><path clip-path="url(#clip650)" d="M2110.93 194.65 L2140.6 194.65 L2140.6 198.539 L2110.93 198.539 L2110.93 194.65 M2110.93 204.094 L2140.6 204.094 L2140.6 208.029 L2110.93 208.029 L2110.93 204.094 Z" fill="#000000" fill-rule="evenodd" fill-opacity="1" /><path clip-path="url(#clip650)" d="M2175.76 184.696 Q2172.15 184.696 2170.32 188.261 Q2168.52 191.803 2168.52 198.932 Q2168.52 206.039 2170.32 209.604 Q2172.15 213.145 2175.76 213.145 Q2179.4 213.145 2181.2 209.604 Q2183.03 206.039 2183.03 198.932 Q2183.03 191.803 2181.2 188.261 Q2179.4 184.696 2175.76 184.696 M2175.76 180.993 Q2181.57 180.993 2184.63 185.599 Q2187.71 190.182 2187.71 198.932 Q2187.71 207.659 2184.63 212.266 Q2181.57 216.849 2175.76 216.849 Q2169.95 216.849 2166.87 212.266 Q2163.82 207.659 2163.82 198.932 Q2163.82 190.182 2166.87 185.599 Q2169.95 180.993 2175.76 180.993 Z" fill="#000000" fill-rule="evenodd" fill-opacity="1" /><path clip-path="url(#clip650)" d="M2195.92 210.298 L2200.81 210.298 L2200.81 216.178 L2195.92 216.178 L2195.92 210.298 Z" fill="#000000" fill-rule="evenodd" fill-opacity="1" /><path clip-path="url(#clip650)" d="M2211.13 215.46 L2211.13 211.201 Q2212.89 212.034 2214.7 212.474 Q2216.5 212.914 2218.24 212.914 Q2222.87 212.914 2225.3 209.812 Q2227.75 206.687 2228.1 200.344 Q2226.76 202.335 2224.7 203.4 Q2222.64 204.465 2220.14 204.465 Q2214.95 204.465 2211.92 201.34 Q2208.91 198.192 2208.91 192.752 Q2208.91 187.428 2212.06 184.21 Q2215.21 180.993 2220.44 180.993 Q2226.43 180.993 2229.58 185.599 Q2232.75 190.182 2232.75 198.932 Q2232.75 207.104 2228.86 211.988 Q2225 216.849 2218.45 216.849 Q2216.69 216.849 2214.88 216.502 Q2213.08 216.154 2211.13 215.46 M2220.44 200.807 Q2223.59 200.807 2225.42 198.654 Q2227.27 196.502 2227.27 192.752 Q2227.27 189.025 2225.42 186.872 Q2223.59 184.696 2220.44 184.696 Q2217.29 184.696 2215.44 186.872 Q2213.61 189.025 2213.61 192.752 Q2213.61 196.502 2215.44 198.654 Q2217.29 200.807 2220.44 200.807 Z" fill="#000000" fill-rule="evenodd" fill-opacity="1" /></svg>
