<?xml version="1.0" encoding="utf-8"?>
<svg xmlns="http://www.w3.org/2000/svg" xmlns:xlink="http://www.w3.org/1999/xlink" width="600" height="400" viewBox="0 0 2400 1600">
<defs>
  <clipPath id="clip860">
    <rect x="0" y="0" width="2400" height="1600"/>
  </clipPath>
</defs>
<path clip-path="url(#clip860)" d="
M0 1600 L2400 1600 L2400 0 L0 0  Z
  " fill="#ffffff" fill-rule="evenodd" fill-opacity="1"/>
<defs>
  <clipPath id="clip861">
    <rect x="480" y="0" width="1681" height="1600"/>
  </clipPath>
</defs>
<path clip-path="url(#clip860)" d="
M192.709 1486.45 L2352.76 1486.45 L2352.76 47.2441 L192.709 47.2441  Z
  " fill="#ffffff" fill-rule="evenodd" fill-opacity="1"/>
<defs>
  <clipPath id="clip862">
    <rect x="192" y="47" width="2161" height="1440"/>
  </clipPath>
</defs>
<polyline clip-path="url(#clip862)" style="stroke:#000000; stroke-linecap:butt; stroke-linejoin:round; stroke-width:2; stroke-opacity:0.1; fill:none" points="
  252.824,1486.45 252.824,47.2441 
  "/>
<polyline clip-path="url(#clip862)" style="stroke:#000000; stroke-linecap:butt; stroke-linejoin:round; stroke-width:2; stroke-opacity:0.1; fill:none" points="
  762.269,1486.45 762.269,47.2441 
  "/>
<polyline clip-path="url(#clip862)" style="stroke:#000000; stroke-linecap:butt; stroke-linejoin:round; stroke-width:2; stroke-opacity:0.1; fill:none" points="
  1271.71,1486.45 1271.71,47.2441 
  "/>
<polyline clip-path="url(#clip862)" style="stroke:#000000; stroke-linecap:butt; stroke-linejoin:round; stroke-width:2; stroke-opacity:0.1; fill:none" points="
  1781.16,1486.45 1781.16,47.2441 
  "/>
<polyline clip-path="url(#clip862)" style="stroke:#000000; stroke-linecap:butt; stroke-linejoin:round; stroke-width:2; stroke-opacity:0.1; fill:none" points="
  2290.6,1486.45 2290.6,47.2441 
  "/>
<polyline clip-path="url(#clip860)" style="stroke:#000000; stroke-linecap:butt; stroke-linejoin:round; stroke-width:4; stroke-opacity:1; fill:none" points="
  192.709,1486.45 2352.76,1486.45 
  "/>
<polyline clip-path="url(#clip860)" style="stroke:#000000; stroke-linecap:butt; stroke-linejoin:round; stroke-width:4; stroke-opacity:1; fill:none" points="
  252.824,1486.45 252.824,1467.55 
  "/>
<polyline clip-path="url(#clip860)" style="stroke:#000000; stroke-linecap:butt; stroke-linejoin:round; stroke-width:4; stroke-opacity:1; fill:none" points="
  762.269,1486.45 762.269,1467.55 
  "/>
<polyline clip-path="url(#clip860)" style="stroke:#000000; stroke-linecap:butt; stroke-linejoin:round; stroke-width:4; stroke-opacity:1; fill:none" points="
  1271.71,1486.45 1271.71,1467.55 
  "/>
<polyline clip-path="url(#clip860)" style="stroke:#000000; stroke-linecap:butt; stroke-linejoin:round; stroke-width:4; stroke-opacity:1; fill:none" points="
  1781.16,1486.45 1781.16,1467.55 
  "/>
<polyline clip-path="url(#clip860)" style="stroke:#000000; stroke-linecap:butt; stroke-linejoin:round; stroke-width:4; stroke-opacity:1; fill:none" points="
  2290.6,1486.45 2290.6,1467.55 
  "/>
<path clip-path="url(#clip860)" d="M252.824 1517.37 Q249.213 1517.37 247.384 1520.93 Q245.578 1524.47 245.578 1531.6 Q245.578 1538.71 247.384 1542.27 Q249.213 1545.82 252.824 1545.82 Q256.458 1545.82 258.263 1542.27 Q260.092 1538.71 260.092 1531.6 Q260.092 1524.47 258.263 1520.93 Q256.458 1517.37 252.824 1517.37 M252.824 1513.66 Q258.634 1513.66 261.689 1518.27 Q264.768 1522.85 264.768 1531.6 Q264.768 1540.33 261.689 1544.94 Q258.634 1549.52 252.824 1549.52 Q247.014 1549.52 243.935 1544.94 Q240.879 1540.33 240.879 1531.6 Q240.879 1522.85 243.935 1518.27 Q247.014 1513.66 252.824 1513.66 Z" fill="#000000" fill-rule="evenodd" fill-opacity="1" /><path clip-path="url(#clip860)" d="M721.887 1514.29 L740.243 1514.29 L740.243 1518.22 L726.169 1518.22 L726.169 1526.7 Q727.188 1526.35 728.206 1526.19 Q729.225 1526 730.243 1526 Q736.03 1526 739.41 1529.17 Q742.79 1532.34 742.79 1537.76 Q742.79 1543.34 739.317 1546.44 Q735.845 1549.52 729.526 1549.52 Q727.35 1549.52 725.081 1549.15 Q722.836 1548.78 720.429 1548.04 L720.429 1543.34 Q722.512 1544.47 724.734 1545.03 Q726.956 1545.58 729.433 1545.58 Q733.438 1545.58 735.776 1543.48 Q738.114 1541.37 738.114 1537.76 Q738.114 1534.15 735.776 1532.04 Q733.438 1529.94 729.433 1529.94 Q727.558 1529.94 725.683 1530.35 Q723.831 1530.77 721.887 1531.65 L721.887 1514.29 Z" fill="#000000" fill-rule="evenodd" fill-opacity="1" /><path clip-path="url(#clip860)" d="M762.002 1517.37 Q758.391 1517.37 756.563 1520.93 Q754.757 1524.47 754.757 1531.6 Q754.757 1538.71 756.563 1542.27 Q758.391 1545.82 762.002 1545.82 Q765.637 1545.82 767.442 1542.27 Q769.271 1538.71 769.271 1531.6 Q769.271 1524.47 767.442 1520.93 Q765.637 1517.37 762.002 1517.37 M762.002 1513.66 Q767.813 1513.66 770.868 1518.27 Q773.947 1522.85 773.947 1531.6 Q773.947 1540.33 770.868 1544.94 Q767.813 1549.52 762.002 1549.52 Q756.192 1549.52 753.114 1544.94 Q750.058 1540.33 750.058 1531.6 Q750.058 1522.85 753.114 1518.27 Q756.192 1513.66 762.002 1513.66 Z" fill="#000000" fill-rule="evenodd" fill-opacity="1" /><path clip-path="url(#clip860)" d="M792.164 1517.37 Q788.553 1517.37 786.725 1520.93 Q784.919 1524.47 784.919 1531.6 Q784.919 1538.71 786.725 1542.27 Q788.553 1545.82 792.164 1545.82 Q795.799 1545.82 797.604 1542.27 Q799.433 1538.71 799.433 1531.6 Q799.433 1524.47 797.604 1520.93 Q795.799 1517.37 792.164 1517.37 M792.164 1513.66 Q797.974 1513.66 801.03 1518.27 Q804.109 1522.85 804.109 1531.6 Q804.109 1540.33 801.03 1544.94 Q797.974 1549.52 792.164 1549.52 Q786.354 1549.52 783.275 1544.94 Q780.22 1540.33 780.22 1531.6 Q780.22 1522.85 783.275 1518.27 Q786.354 1513.66 792.164 1513.66 Z" fill="#000000" fill-rule="evenodd" fill-opacity="1" /><path clip-path="url(#clip860)" d="M1216.24 1544.91 L1223.88 1544.91 L1223.88 1518.55 L1215.57 1520.21 L1215.57 1515.95 L1223.83 1514.29 L1228.51 1514.29 L1228.51 1544.91 L1236.15 1544.91 L1236.15 1548.85 L1216.24 1548.85 L1216.24 1544.91 Z" fill="#000000" fill-rule="evenodd" fill-opacity="1" /><path clip-path="url(#clip860)" d="M1255.59 1517.37 Q1251.98 1517.37 1250.15 1520.93 Q1248.35 1524.47 1248.35 1531.6 Q1248.35 1538.71 1250.15 1542.27 Q1251.98 1545.82 1255.59 1545.82 Q1259.23 1545.82 1261.03 1542.27 Q1262.86 1538.71 1262.86 1531.6 Q1262.86 1524.47 1261.03 1520.93 Q1259.23 1517.37 1255.59 1517.37 M1255.59 1513.66 Q1261.4 1513.66 1264.46 1518.27 Q1267.54 1522.85 1267.54 1531.6 Q1267.54 1540.33 1264.46 1544.94 Q1261.4 1549.52 1255.59 1549.52 Q1249.78 1549.52 1246.7 1544.94 Q1243.65 1540.33 1243.65 1531.6 Q1243.65 1522.85 1246.7 1518.27 Q1249.78 1513.66 1255.59 1513.66 Z" fill="#000000" fill-rule="evenodd" fill-opacity="1" /><path clip-path="url(#clip860)" d="M1285.75 1517.37 Q1282.14 1517.37 1280.31 1520.93 Q1278.51 1524.47 1278.51 1531.6 Q1278.51 1538.71 1280.31 1542.27 Q1282.14 1545.82 1285.75 1545.82 Q1289.39 1545.82 1291.19 1542.27 Q1293.02 1538.71 1293.02 1531.6 Q1293.02 1524.47 1291.19 1520.93 Q1289.39 1517.37 1285.75 1517.37 M1285.75 1513.66 Q1291.56 1513.66 1294.62 1518.27 Q1297.7 1522.85 1297.7 1531.6 Q1297.7 1540.33 1294.62 1544.94 Q1291.56 1549.52 1285.75 1549.52 Q1279.94 1549.52 1276.86 1544.94 Q1273.81 1540.33 1273.81 1531.6 Q1273.81 1522.85 1276.86 1518.27 Q1279.94 1513.66 1285.75 1513.66 Z" fill="#000000" fill-rule="evenodd" fill-opacity="1" /><path clip-path="url(#clip860)" d="M1315.91 1517.37 Q1312.3 1517.37 1310.48 1520.93 Q1308.67 1524.47 1308.67 1531.6 Q1308.67 1538.71 1310.48 1542.27 Q1312.3 1545.82 1315.91 1545.82 Q1319.55 1545.82 1321.35 1542.27 Q1323.18 1538.71 1323.18 1531.6 Q1323.18 1524.47 1321.35 1520.93 Q1319.55 1517.37 1315.91 1517.37 M1315.91 1513.66 Q1321.72 1513.66 1324.78 1518.27 Q1327.86 1522.85 1327.86 1531.6 Q1327.86 1540.33 1324.78 1544.94 Q1321.72 1549.52 1315.91 1549.52 Q1310.1 1549.52 1307.03 1544.94 Q1303.97 1540.33 1303.97 1531.6 Q1303.97 1522.85 1307.03 1518.27 Q1310.1 1513.66 1315.91 1513.66 Z" fill="#000000" fill-rule="evenodd" fill-opacity="1" /><path clip-path="url(#clip860)" d="M1725.68 1544.91 L1733.32 1544.91 L1733.32 1518.55 L1725.01 1520.21 L1725.01 1515.95 L1733.28 1514.29 L1737.95 1514.29 L1737.95 1544.91 L1745.59 1544.91 L1745.59 1548.85 L1725.68 1548.85 L1725.68 1544.91 Z" fill="#000000" fill-rule="evenodd" fill-opacity="1" /><path clip-path="url(#clip860)" d="M1755.08 1514.29 L1773.44 1514.29 L1773.44 1518.22 L1759.36 1518.22 L1759.36 1526.7 Q1760.38 1526.35 1761.4 1526.19 Q1762.42 1526 1763.44 1526 Q1769.23 1526 1772.61 1529.17 Q1775.99 1532.34 1775.99 1537.76 Q1775.99 1543.34 1772.51 1546.44 Q1769.04 1549.52 1762.72 1549.52 Q1760.55 1549.52 1758.28 1549.15 Q1756.03 1548.78 1753.62 1548.04 L1753.62 1543.34 Q1755.71 1544.47 1757.93 1545.03 Q1760.15 1545.58 1762.63 1545.58 Q1766.63 1545.58 1768.97 1543.48 Q1771.31 1541.37 1771.31 1537.76 Q1771.31 1534.15 1768.97 1532.04 Q1766.63 1529.94 1762.63 1529.94 Q1760.75 1529.94 1758.88 1530.35 Q1757.03 1530.77 1755.08 1531.65 L1755.08 1514.29 Z" fill="#000000" fill-rule="evenodd" fill-opacity="1" /><path clip-path="url(#clip860)" d="M1795.2 1517.37 Q1791.59 1517.37 1789.76 1520.93 Q1787.95 1524.47 1787.95 1531.6 Q1787.95 1538.71 1789.76 1542.27 Q1791.59 1545.82 1795.2 1545.82 Q1798.83 1545.82 1800.64 1542.27 Q1802.47 1538.71 1802.47 1531.6 Q1802.47 1524.47 1800.64 1520.93 Q1798.83 1517.37 1795.2 1517.37 M1795.2 1513.66 Q1801.01 1513.66 1804.06 1518.27 Q1807.14 1522.85 1807.14 1531.6 Q1807.14 1540.33 1804.06 1544.94 Q1801.01 1549.52 1795.2 1549.52 Q1789.39 1549.52 1786.31 1544.94 Q1783.25 1540.33 1783.25 1531.6 Q1783.25 1522.85 1786.31 1518.27 Q1789.39 1513.66 1795.2 1513.66 Z" fill="#000000" fill-rule="evenodd" fill-opacity="1" /><path clip-path="url(#clip860)" d="M1825.36 1517.37 Q1821.75 1517.37 1819.92 1520.93 Q1818.11 1524.47 1818.11 1531.6 Q1818.11 1538.71 1819.92 1542.27 Q1821.75 1545.82 1825.36 1545.82 Q1828.99 1545.82 1830.8 1542.27 Q1832.63 1538.71 1832.63 1531.6 Q1832.63 1524.47 1830.8 1520.93 Q1828.99 1517.37 1825.36 1517.37 M1825.36 1513.66 Q1831.17 1513.66 1834.23 1518.27 Q1837.3 1522.85 1837.3 1531.6 Q1837.3 1540.33 1834.23 1544.94 Q1831.17 1549.52 1825.36 1549.52 Q1819.55 1549.52 1816.47 1544.94 Q1813.42 1540.33 1813.42 1531.6 Q1813.42 1522.85 1816.47 1518.27 Q1819.55 1513.66 1825.36 1513.66 Z" fill="#000000" fill-rule="evenodd" fill-opacity="1" /><path clip-path="url(#clip860)" d="M2239.22 1544.91 L2255.53 1544.91 L2255.53 1548.85 L2233.59 1548.85 L2233.59 1544.91 Q2236.25 1542.16 2240.84 1537.53 Q2245.44 1532.88 2246.62 1531.53 Q2248.87 1529.01 2249.75 1527.27 Q2250.65 1525.51 2250.65 1523.82 Q2250.65 1521.07 2248.71 1519.33 Q2246.78 1517.6 2243.68 1517.6 Q2241.48 1517.6 2239.03 1518.36 Q2236.6 1519.13 2233.82 1520.68 L2233.82 1515.95 Q2236.65 1514.82 2239.1 1514.24 Q2241.55 1513.66 2243.59 1513.66 Q2248.96 1513.66 2252.15 1516.35 Q2255.35 1519.03 2255.35 1523.52 Q2255.35 1525.65 2254.54 1527.57 Q2253.75 1529.47 2251.65 1532.07 Q2251.07 1532.74 2247.96 1535.95 Q2244.86 1539.15 2239.22 1544.91 Z" fill="#000000" fill-rule="evenodd" fill-opacity="1" /><path clip-path="url(#clip860)" d="M2275.35 1517.37 Q2271.74 1517.37 2269.91 1520.93 Q2268.1 1524.47 2268.1 1531.6 Q2268.1 1538.71 2269.91 1542.27 Q2271.74 1545.82 2275.35 1545.82 Q2278.98 1545.82 2280.79 1542.27 Q2282.62 1538.71 2282.62 1531.6 Q2282.62 1524.47 2280.79 1520.93 Q2278.98 1517.37 2275.35 1517.37 M2275.35 1513.66 Q2281.16 1513.66 2284.21 1518.27 Q2287.29 1522.85 2287.29 1531.6 Q2287.29 1540.33 2284.21 1544.94 Q2281.16 1549.52 2275.35 1549.52 Q2269.54 1549.52 2266.46 1544.94 Q2263.4 1540.33 2263.4 1531.6 Q2263.4 1522.85 2266.46 1518.27 Q2269.54 1513.66 2275.35 1513.66 Z" fill="#000000" fill-rule="evenodd" fill-opacity="1" /><path clip-path="url(#clip860)" d="M2305.51 1517.37 Q2301.9 1517.37 2300.07 1520.93 Q2298.27 1524.47 2298.27 1531.6 Q2298.27 1538.71 2300.07 1542.27 Q2301.9 1545.82 2305.51 1545.82 Q2309.15 1545.82 2310.95 1542.27 Q2312.78 1538.71 2312.78 1531.6 Q2312.78 1524.47 2310.95 1520.93 Q2309.15 1517.37 2305.51 1517.37 M2305.51 1513.66 Q2311.32 1513.66 2314.38 1518.27 Q2317.46 1522.85 2317.46 1531.6 Q2317.46 1540.33 2314.38 1544.94 Q2311.32 1549.52 2305.51 1549.52 Q2299.7 1549.52 2296.62 1544.94 Q2293.57 1540.33 2293.57 1531.6 Q2293.57 1522.85 2296.62 1518.27 Q2299.7 1513.66 2305.51 1513.66 Z" fill="#000000" fill-rule="evenodd" fill-opacity="1" /><path clip-path="url(#clip860)" d="M2335.67 1517.37 Q2332.06 1517.37 2330.23 1520.93 Q2328.43 1524.47 2328.43 1531.6 Q2328.43 1538.71 2330.23 1542.27 Q2332.06 1545.82 2335.67 1545.82 Q2339.31 1545.82 2341.11 1542.27 Q2342.94 1538.71 2342.94 1531.6 Q2342.94 1524.47 2341.11 1520.93 Q2339.31 1517.37 2335.67 1517.37 M2335.67 1513.66 Q2341.48 1513.66 2344.54 1518.27 Q2347.62 1522.85 2347.62 1531.6 Q2347.62 1540.33 2344.54 1544.94 Q2341.48 1549.52 2335.67 1549.52 Q2329.86 1549.52 2326.78 1544.94 Q2323.73 1540.33 2323.73 1531.6 Q2323.73 1522.85 2326.78 1518.27 Q2329.86 1513.66 2335.67 1513.66 Z" fill="#000000" fill-rule="evenodd" fill-opacity="1" /><polyline clip-path="url(#clip862)" style="stroke:#000000; stroke-linecap:butt; stroke-linejoin:round; stroke-width:2; stroke-opacity:0.1; fill:none" points="
  192.709,1433.38 2352.76,1433.38 
  "/>
<polyline clip-path="url(#clip862)" style="stroke:#000000; stroke-linecap:butt; stroke-linejoin:round; stroke-width:2; stroke-opacity:0.1; fill:none" points="
  192.709,1073.6 2352.76,1073.6 
  "/>
<polyline clip-path="url(#clip862)" style="stroke:#000000; stroke-linecap:butt; stroke-linejoin:round; stroke-width:2; stroke-opacity:0.1; fill:none" points="
  192.709,713.834 2352.76,713.834 
  "/>
<polyline clip-path="url(#clip862)" style="stroke:#000000; stroke-linecap:butt; stroke-linejoin:round; stroke-width:2; stroke-opacity:0.1; fill:none" points="
  192.709,354.064 2352.76,354.064 
  "/>
<polyline clip-path="url(#clip860)" style="stroke:#000000; stroke-linecap:butt; stroke-linejoin:round; stroke-width:4; stroke-opacity:1; fill:none" points="
  192.709,1486.45 192.709,47.2441 
  "/>
<polyline clip-path="url(#clip860)" style="stroke:#000000; stroke-linecap:butt; stroke-linejoin:round; stroke-width:4; stroke-opacity:1; fill:none" points="
  192.709,1433.38 211.607,1433.38 
  "/>
<polyline clip-path="url(#clip860)" style="stroke:#000000; stroke-linecap:butt; stroke-linejoin:round; stroke-width:4; stroke-opacity:1; fill:none" points="
  192.709,1073.6 211.607,1073.6 
  "/>
<polyline clip-path="url(#clip860)" style="stroke:#000000; stroke-linecap:butt; stroke-linejoin:round; stroke-width:4; stroke-opacity:1; fill:none" points="
  192.709,713.834 211.607,713.834 
  "/>
<polyline clip-path="url(#clip860)" style="stroke:#000000; stroke-linecap:butt; stroke-linejoin:round; stroke-width:4; stroke-opacity:1; fill:none" points="
  192.709,354.064 211.607,354.064 
  "/>
<path clip-path="url(#clip860)" d="M50.9921 1433.83 L80.6679 1433.83 L80.6679 1437.76 L50.9921 1437.76 L50.9921 1433.83 Z" fill="#000000" fill-rule="evenodd" fill-opacity="1" /><path clip-path="url(#clip860)" d="M100.76 1419.17 Q97.1493 1419.17 95.3206 1422.74 Q93.515 1426.28 93.515 1433.41 Q93.515 1440.52 95.3206 1444.08 Q97.1493 1447.62 100.76 1447.62 Q104.395 1447.62 106.2 1444.08 Q108.029 1440.52 108.029 1433.41 Q108.029 1426.28 106.2 1422.74 Q104.395 1419.17 100.76 1419.17 M100.76 1415.47 Q106.571 1415.47 109.626 1420.08 Q112.705 1424.66 112.705 1433.41 Q112.705 1442.14 109.626 1446.74 Q106.571 1451.33 100.76 1451.33 Q94.9502 1451.33 91.8715 1446.74 Q88.816 1442.14 88.816 1433.41 Q88.816 1424.66 91.8715 1420.08 Q94.9502 1415.47 100.76 1415.47 Z" fill="#000000" fill-rule="evenodd" fill-opacity="1" /><path clip-path="url(#clip860)" d="M120.922 1444.78 L125.807 1444.78 L125.807 1450.66 L120.922 1450.66 L120.922 1444.78 Z" fill="#000000" fill-rule="evenodd" fill-opacity="1" /><path clip-path="url(#clip860)" d="M136.802 1446.72 L144.441 1446.72 L144.441 1420.35 L136.131 1422.02 L136.131 1417.76 L144.394 1416.1 L149.07 1416.1 L149.07 1446.72 L156.709 1446.72 L156.709 1450.66 L136.802 1450.66 L136.802 1446.72 Z" fill="#000000" fill-rule="evenodd" fill-opacity="1" /><path clip-path="url(#clip860)" d="M99.5335 1059.4 Q95.9224 1059.4 94.0937 1062.97 Q92.2882 1066.51 92.2882 1073.64 Q92.2882 1080.75 94.0937 1084.31 Q95.9224 1087.85 99.5335 1087.85 Q103.168 1087.85 104.973 1084.31 Q106.802 1080.75 106.802 1073.64 Q106.802 1066.51 104.973 1062.97 Q103.168 1059.4 99.5335 1059.4 M99.5335 1055.7 Q105.344 1055.7 108.399 1060.31 Q111.478 1064.89 111.478 1073.64 Q111.478 1082.37 108.399 1086.97 Q105.344 1091.56 99.5335 1091.56 Q93.7234 1091.56 90.6447 1086.97 Q87.5892 1082.37 87.5892 1073.64 Q87.5892 1064.89 90.6447 1060.31 Q93.7234 1055.7 99.5335 1055.7 Z" fill="#000000" fill-rule="evenodd" fill-opacity="1" /><path clip-path="url(#clip860)" d="M119.695 1085.01 L124.58 1085.01 L124.58 1090.88 L119.695 1090.88 L119.695 1085.01 Z" fill="#000000" fill-rule="evenodd" fill-opacity="1" /><path clip-path="url(#clip860)" d="M144.765 1059.4 Q141.154 1059.4 139.325 1062.97 Q137.519 1066.51 137.519 1073.64 Q137.519 1080.75 139.325 1084.31 Q141.154 1087.85 144.765 1087.85 Q148.399 1087.85 150.205 1084.31 Q152.033 1080.75 152.033 1073.64 Q152.033 1066.51 150.205 1062.97 Q148.399 1059.4 144.765 1059.4 M144.765 1055.7 Q150.575 1055.7 153.63 1060.31 Q156.709 1064.89 156.709 1073.64 Q156.709 1082.37 153.63 1086.97 Q150.575 1091.56 144.765 1091.56 Q138.955 1091.56 135.876 1086.97 Q132.82 1082.37 132.82 1073.64 Q132.82 1064.89 135.876 1060.31 Q138.955 1055.7 144.765 1055.7 Z" fill="#000000" fill-rule="evenodd" fill-opacity="1" /><path clip-path="url(#clip860)" d="M100.76 699.633 Q97.1493 699.633 95.3206 703.198 Q93.515 706.739 93.515 713.869 Q93.515 720.975 95.3206 724.54 Q97.1493 728.082 100.76 728.082 Q104.395 728.082 106.2 724.54 Q108.029 720.975 108.029 713.869 Q108.029 706.739 106.2 703.198 Q104.395 699.633 100.76 699.633 M100.76 695.929 Q106.571 695.929 109.626 700.536 Q112.705 705.119 112.705 713.869 Q112.705 722.596 109.626 727.202 Q106.571 731.785 100.76 731.785 Q94.9502 731.785 91.8715 727.202 Q88.816 722.596 88.816 713.869 Q88.816 705.119 91.8715 700.536 Q94.9502 695.929 100.76 695.929 Z" fill="#000000" fill-rule="evenodd" fill-opacity="1" /><path clip-path="url(#clip860)" d="M120.922 725.235 L125.807 725.235 L125.807 731.114 L120.922 731.114 L120.922 725.235 Z" fill="#000000" fill-rule="evenodd" fill-opacity="1" /><path clip-path="url(#clip860)" d="M136.802 727.179 L144.441 727.179 L144.441 700.813 L136.131 702.48 L136.131 698.221 L144.394 696.554 L149.07 696.554 L149.07 727.179 L156.709 727.179 L156.709 731.114 L136.802 731.114 L136.802 727.179 Z" fill="#000000" fill-rule="evenodd" fill-opacity="1" /><path clip-path="url(#clip860)" d="M101.131 339.862 Q97.5197 339.862 95.691 343.427 Q93.8854 346.969 93.8854 354.098 Q93.8854 361.205 95.691 364.77 Q97.5197 368.311 101.131 368.311 Q104.765 368.311 106.571 364.77 Q108.399 361.205 108.399 354.098 Q108.399 346.969 106.571 343.427 Q104.765 339.862 101.131 339.862 M101.131 336.159 Q106.941 336.159 109.996 340.765 Q113.075 345.348 113.075 354.098 Q113.075 362.825 109.996 367.432 Q106.941 372.015 101.131 372.015 Q95.3206 372.015 92.2419 367.432 Q89.1864 362.825 89.1864 354.098 Q89.1864 345.348 92.2419 340.765 Q95.3206 336.159 101.131 336.159 Z" fill="#000000" fill-rule="evenodd" fill-opacity="1" /><path clip-path="url(#clip860)" d="M121.293 365.464 L126.177 365.464 L126.177 371.344 L121.293 371.344 L121.293 365.464 Z" fill="#000000" fill-rule="evenodd" fill-opacity="1" /><path clip-path="url(#clip860)" d="M140.39 367.408 L156.709 367.408 L156.709 371.344 L134.765 371.344 L134.765 367.408 Q137.427 364.654 142.01 360.024 Q146.617 355.371 147.797 354.029 Q150.043 351.506 150.922 349.77 Q151.825 348.01 151.825 346.321 Q151.825 343.566 149.88 341.83 Q147.959 340.094 144.857 340.094 Q142.658 340.094 140.205 340.858 Q137.774 341.622 134.996 343.172 L134.996 338.45 Q137.82 337.316 140.274 336.737 Q142.728 336.159 144.765 336.159 Q150.135 336.159 153.33 338.844 Q156.524 341.529 156.524 346.02 Q156.524 348.149 155.714 350.071 Q154.927 351.969 152.82 354.561 Q152.242 355.233 149.14 358.45 Q146.038 361.645 140.39 367.408 Z" fill="#000000" fill-rule="evenodd" fill-opacity="1" /><polyline clip-path="url(#clip862)" style="stroke:#009af9; stroke-linecap:butt; stroke-linejoin:round; stroke-width:4; stroke-opacity:1; fill:none" points="
  253.843,642.22 254.861,732.679 255.88,635.698 256.899,656.115 257.918,729.677 258.937,910.403 259.956,1064.9 260.975,1058.84 261.994,949.158 263.013,803.223 
  264.031,800.344 265.05,937.43 266.069,1045.48 267.088,949.181 268.107,868.049 269.126,861.691 270.145,920.781 271.164,998.703 272.183,1099.27 273.201,1156.36 
  274.22,1041.86 275.239,1057.51 276.258,953.186 277.277,1013.88 278.296,1160.86 279.315,1253.64 280.334,1318.64 281.353,1247.82 282.371,1134.82 283.39,1017.17 
  284.409,1044.72 285.428,876.329 286.447,729.093 287.466,726.029 288.485,720.923 289.504,818.838 290.523,714.806 291.541,689.472 292.56,692.508 293.579,816.541 
  294.598,891.921 295.617,879.364 296.636,981.492 297.655,1061.33 298.674,1044.5 299.693,847.944 300.711,872.12 301.73,887.555 302.749,804.177 303.768,861.923 
  304.787,899.039 305.806,957.078 306.825,981.687 307.844,1054.96 308.863,1116.26 309.881,986.535 310.9,1003.78 311.919,992.879 312.938,973.97 313.957,753.086 
  314.976,726.658 315.995,664.849 317.014,649.754 318.033,667.918 319.052,682.165 320.07,651.402 321.089,861.286 322.108,921.597 323.127,859.051 324.146,712.34 
  325.165,727.552 326.184,690.945 327.203,785.675 328.222,905.695 329.24,810.566 330.259,831.322 331.278,816.611 332.297,937.443 333.316,925.452 334.335,845.616 
  335.354,743.297 336.373,807.4 337.392,902.953 338.41,678.397 339.429,809.245 340.448,766.605 341.467,853.699 342.486,775.378 343.505,721.715 344.524,750.804 
  345.543,745.107 346.562,828.185 347.58,1056.66 348.599,1020.5 349.618,920.638 350.637,906.597 351.656,1156.38 352.675,1063.15 353.694,1167.14 354.713,1079.55 
  355.732,855.676 356.75,874.806 357.769,849.996 358.788,1024.56 359.807,884.459 360.826,799.124 361.845,821.567 362.864,811.194 363.883,792.153 364.902,681.063 
  365.92,542.736 366.939,785.078 367.958,675.921 368.977,755.325 369.996,764.334 371.015,699.641 372.034,622.589 373.053,755.427 374.072,832.246 375.09,734.343 
  376.109,637.535 377.128,671.594 378.147,690.568 379.166,768.363 380.185,779.104 381.204,828.601 382.223,800.77 383.242,801.007 384.26,868.107 385.279,894.022 
  386.298,836.957 387.317,949.368 388.336,1024.83 389.355,978.366 390.374,1188.27 391.393,1185.75 392.412,1092.7 393.43,1043.43 394.449,1012.69 395.468,939.494 
  396.487,1084.62 397.506,1145.74 398.525,1198.85 399.544,1020.47 400.563,1044.77 401.582,1014.37 402.6,990.937 403.619,1130.29 404.638,950.795 405.657,879.659 
  406.676,912.366 407.695,964.51 408.714,986.389 409.733,984.728 410.752,1062.57 411.77,1061.1 412.789,1295.52 413.808,960.408 414.827,902.699 415.846,892.271 
  416.865,923.436 417.884,865.043 418.903,888.264 419.922,883.656 420.941,890.473 421.959,944.888 422.978,1076.51 423.997,1066.01 425.016,1078.46 426.035,889.877 
  427.054,953.086 428.073,820.702 429.092,801.234 430.111,588.715 431.129,687.313 432.148,718.285 433.167,742.401 434.186,539.097 435.205,696.722 436.224,891.307 
  437.243,963.904 438.262,1092.46 439.281,1121.71 440.299,1178.18 441.318,1002.68 442.337,1062.43 443.356,966.964 444.375,923.633 445.394,991.821 446.413,1010.75 
  447.432,1029.26 448.451,1074.49 449.469,1101.2 450.488,1136.52 451.507,1063.71 452.526,1053.3 453.545,980.565 454.564,855.288 455.583,927.191 456.602,848.409 
  457.621,875.322 458.639,968.352 459.658,1063.75 460.677,1111.56 461.696,1016.39 462.715,692.532 463.734,595.083 464.753,610.549 465.772,626.289 466.791,544.39 
  467.809,585.415 468.828,587.106 469.847,582.194 470.866,558.621 471.885,588.316 472.904,608.477 473.923,705.12 474.942,643.533 475.961,741.26 476.979,882.909 
  477.998,833.706 479.017,949.931 480.036,950.927 481.055,885.024 482.074,921.913 483.093,959.672 484.112,1160.63 485.131,1044.03 486.149,1124.08 487.168,972.693 
  488.187,833.865 489.206,913.604 490.225,956.55 491.244,1126.2 492.263,1132.28 493.282,1011.59 494.301,1077.75 495.319,983.828 496.338,1060.92 497.357,1015.88 
  498.376,953.95 499.395,909.335 500.414,830.625 501.433,800.246 502.452,853.474 503.471,1038.54 504.489,930.397 505.508,901.598 506.527,858.413 507.546,816.967 
  508.565,717.811 509.584,709.384 510.603,650.754 511.622,590.224 512.641,651.726 513.659,661.923 514.678,766.922 515.697,756.135 516.716,749 517.735,737.782 
  518.754,751.972 519.773,841.05 520.792,815.643 521.811,790.479 522.83,752.845 523.848,712.503 524.867,801.945 525.886,790.61 526.905,776.603 527.924,826.037 
  528.943,999.632 529.962,798.228 530.981,708.516 532,601.292 533.018,569.712 534.037,965.848 535.056,865.7 536.075,868.918 537.094,817.939 538.113,761.93 
  539.132,956.916 540.151,932.382 541.17,1175.31 542.188,1267.7 543.207,1263.97 544.226,1141.27 545.245,1078.63 546.264,1038.9 547.283,1206.29 548.302,975.756 
  549.321,899.137 550.34,720.663 551.358,681.126 552.377,859.013 553.396,797.042 554.415,719.672 555.434,596.891 556.453,587.365 557.472,607.849 558.491,641.477 
  559.51,627.64 560.528,557.985 561.547,620.392 562.566,698.952 563.585,717.387 564.604,834.781 565.623,690.023 566.642,982.638 567.661,863.377 568.68,932.332 
  569.698,1035.19 570.717,1077.85 571.736,972.504 572.755,980.989 573.774,1019.59 574.793,959.751 575.812,953.968 576.831,667.677 577.85,754.662 578.868,787.539 
  579.887,894.026 580.906,893.336 581.925,781.395 582.944,807.172 583.963,874.128 584.982,725.703 586.001,876.333 587.02,965.393 588.038,703.011 589.057,705.168 
  590.076,678.172 591.095,775.55 592.114,605.822 593.133,538.698 594.152,737.911 595.171,764.339 596.19,641.184 597.208,641.924 598.227,611.197 599.246,652.087 
  600.265,680.224 601.284,669.177 602.303,674.359 603.322,579.408 604.341,648.825 605.36,700.442 606.378,667.933 607.397,759.375 608.416,846.856 609.435,957.095 
  610.454,908.725 611.473,887.759 612.492,1090.18 613.511,966.019 614.53,936.3 615.548,975.946 616.567,1012.71 617.586,800.367 618.605,814.589 619.624,720.607 
  620.643,874.442 621.662,900.111 622.681,906.455 623.7,859.555 624.719,851.099 625.737,833.168 626.756,881.718 627.775,887.499 628.794,1005.27 629.813,830.795 
  630.832,894.698 631.851,921.512 632.87,1018.71 633.889,954.098 634.907,945.896 635.926,1032.39 636.945,1066.8 637.964,1141.3 638.983,1106.78 640.002,1172.53 
  641.021,1066.27 642.04,1043.71 643.059,825.075 644.077,750.706 645.096,792.198 646.115,906.641 647.134,761.576 648.153,587.259 649.172,744.843 650.191,817.107 
  651.21,726.116 652.229,727.151 653.247,864.257 654.266,974.65 655.285,953.531 656.304,876.579 657.323,852.631 658.342,836.63 659.361,792.312 660.38,676.528 
  661.399,782.503 662.417,747.34 663.436,824.698 664.455,947.644 665.474,918.518 666.493,818.493 667.512,850.679 668.531,885.701 669.55,791.382 670.569,729.175 
  671.587,729.937 672.606,752.068 673.625,875.209 674.644,875.053 675.663,832.895 676.682,855.623 677.701,949.109 678.72,1060.26 679.739,958.932 680.757,865.717 
  681.776,915.797 682.795,809.111 683.814,1004.1 684.833,967.685 685.852,980.966 686.871,807.492 687.89,691.806 688.909,626.668 689.927,627.373 690.946,699.246 
  691.965,787.476 692.984,638.923 694.003,818.76 695.022,876.339 696.041,899.054 697.06,742.543 698.079,675.931 699.097,778.628 700.116,660.098 701.135,704.286 
  702.154,695.838 703.173,662.172 704.192,603.146 705.211,687.074 706.23,792.261 707.249,832.265 708.267,789.087 709.286,753.232 710.305,737.04 711.324,977.649 
  712.343,969.019 713.362,959.555 714.381,878.069 715.4,753.365 716.419,660.031 717.437,566.032 718.456,615.24 719.475,703.62 720.494,870.408 721.513,932.485 
  722.532,1019.65 723.551,953.593 724.57,662.808 725.589,659.547 726.608,756.385 727.626,870.64 728.645,790.693 729.664,736.005 730.683,808.764 731.702,601.152 
  732.721,514.166 733.74,575.368 734.759,500.744 735.778,656.37 736.796,553.564 737.815,481.434 738.834,840.001 739.853,688.521 740.872,807.924 741.891,970.205 
  742.91,943.836 743.929,1032.71 744.948,1039.97 745.966,1078.84 746.985,997.946 748.004,1020.96 749.023,867.05 750.042,915.628 751.061,1042.67 752.08,737.498 
  753.099,805.871 754.118,1098.94 755.136,1062.99 756.155,1073 757.174,1001.2 758.193,1103.31 759.212,999.608 760.231,926.88 761.25,835.98 762.269,856.832 
  763.288,769.861 764.306,663.466 765.325,755.547 766.344,902.96 767.363,834.084 768.382,741.352 769.401,763.135 770.42,678.589 771.439,535.395 772.458,547.824 
  773.476,611.188 774.495,578.415 775.514,595.558 776.533,641.893 777.552,570.96 778.571,657.885 779.59,721.092 780.609,644.238 781.628,682.456 782.646,854.648 
  783.665,833.559 784.684,742.842 785.703,821.19 786.722,777.541 787.741,889.864 788.76,832.273 789.779,919.622 790.798,895.663 791.816,1097.35 792.835,1091.75 
  793.854,991.645 794.873,931.485 795.892,835.21 796.911,783.839 797.93,774.928 798.949,669.262 799.968,821.661 800.986,950.892 802.005,983.913 803.024,990.605 
  804.043,1033.97 805.062,844.895 806.081,758.669 807.1,718.089 808.119,875.4 809.138,1014.44 810.156,879.638 811.175,932.759 812.194,917.969 813.213,881.685 
  814.232,1028.06 815.251,846.999 816.27,921.006 817.289,1007.12 818.308,898.53 819.326,884.344 820.345,821.53 821.364,1161.67 822.383,1100.42 823.402,1064.53 
  824.421,902.665 825.44,1038.87 826.459,1125.15 827.478,1112.29 828.496,1055.65 829.515,690.138 830.534,769.018 831.553,839.787 832.572,740.789 833.591,863.358 
  834.61,869.93 835.629,832.597 836.648,785.612 837.667,791.086 838.685,882.593 839.704,993.892 840.723,951.171 841.742,857.543 842.761,682.77 843.78,699.67 
  844.799,578.681 845.818,663.599 846.837,799.125 847.855,970.796 848.874,954.095 849.893,971.992 850.912,811.999 851.931,664.011 852.95,658.903 853.969,656.777 
  854.988,597.135 856.007,558.262 857.025,612.292 858.044,805.55 859.063,948.332 860.082,815.421 861.101,907.828 862.12,953.411 863.139,920.952 864.158,916.074 
  865.177,799.995 866.195,875.581 867.214,828.705 868.233,862.179 869.252,860.14 870.271,890.858 871.29,952.364 872.309,832.486 873.328,924.881 874.347,996.076 
  875.365,1107.51 876.384,1200.74 877.403,1355.51 878.422,1129.81 879.441,1129.43 880.46,1002.97 881.479,906.621 882.498,796.71 883.517,814.86 884.535,753.644 
  885.554,923.499 886.573,853.508 887.592,1055.3 888.611,921.546 889.63,962.458 890.649,1052.21 891.668,867.779 892.687,793.543 893.705,846.966 894.724,712.103 
  895.743,792.501 896.762,941.418 897.781,991.485 898.8,1117.48 899.819,1080.83 900.838,1013.43 901.857,993.28 902.875,1033.76 903.894,909.143 904.913,941.906 
  905.932,761.078 906.951,793.269 907.97,866.306 908.989,773.85 910.008,768.508 911.027,841.753 912.045,967.143 913.064,831.938 914.083,750.562 915.102,754.146 
  916.121,742.431 917.14,742.826 918.159,835.347 919.178,546.591 920.197,701.545 921.215,553.678 922.234,551.555 923.253,579.142 924.272,658.671 925.291,668.799 
  926.31,729.426 927.329,835.819 928.348,849.163 929.367,885.512 930.385,801.032 931.404,769.489 932.423,765.574 933.442,869.222 934.461,949.776 935.48,891.523 
  936.499,841.568 937.518,924.88 938.537,949.016 939.556,1047.26 940.574,1198.97 941.593,1382.34 942.612,1055.11 943.631,1131.32 944.65,1201.79 945.669,1087.65 
  946.688,1220.04 947.707,1212.09 948.726,1199.69 949.744,1316.63 950.763,1184.93 951.782,1180.3 952.801,1067.63 953.82,1047.35 954.839,1003.77 955.858,1037.01 
  956.877,1097.62 957.896,980.926 958.914,1033.93 959.933,1243.84 960.952,1246.54 961.971,1175.76 962.99,950.523 964.009,970.293 965.028,908.831 966.047,921.065 
  967.066,721.419 968.084,896.206 969.103,973.764 970.122,991.513 971.141,848.416 972.16,881.905 973.179,849.505 974.198,848.862 975.217,820.911 976.236,728.735 
  977.254,620.354 978.273,699.336 979.292,760.783 980.311,825.84 981.33,991.891 982.349,979.306 983.368,957.578 984.387,985.517 985.406,962.836 986.424,1040.08 
  987.443,1104.52 988.462,913.385 989.481,997.189 990.5,898.217 991.519,1019.05 992.538,980.688 993.557,836.22 994.576,665.143 995.594,675.482 996.613,782.285 
  997.632,582.838 998.651,616.92 999.67,683.083 1000.69,617.917 1001.71,575.297 1002.73,549.044 1003.75,508.518 1004.76,529.001 1005.78,595.086 1006.8,639.631 
  1007.82,633.813 1008.84,810.249 1009.86,952.676 1010.88,882.41 1011.9,831.034 1012.92,908.539 1013.93,1075.74 1014.95,895.833 1015.97,920.365 1016.99,883.146 
  1018.01,889.958 1019.03,946.611 1020.05,858.419 1021.07,955.301 1022.09,850.258 1023.1,874.741 1024.12,1106.48 1025.14,1097.8 1026.16,1149.07 1027.18,1149.07 
  1028.2,1180.67 1029.22,1145.53 1030.24,1265.32 1031.26,1263.03 1032.27,1344.64 1033.29,1445.72 1034.31,1393.18 1035.33,1294.24 1036.35,1206.84 1037.37,798.485 
  1038.39,825.491 1039.41,832.695 1040.43,851.154 1041.44,933.83 1042.46,1047.01 1043.48,1076.28 1044.5,1030.22 1045.52,1110.63 1046.54,1122.71 1047.56,1154.62 
  1048.58,1195.76 1049.6,1184.05 1050.61,1202.14 1051.63,1246.77 1052.65,1196.01 1053.67,1181.28 1054.69,1253.32 1055.71,1097.92 1056.73,1140.09 1057.75,1311.55 
  1058.77,1238.12 1059.78,1122.7 1060.8,1342.23 1061.82,1339.57 1062.84,1189.28 1063.86,878.183 1064.88,782.443 1065.9,948.531 1066.92,1059.63 1067.94,1031.64 
  1068.95,1135.83 1069.97,898.611 1070.99,845.019 1072.01,760.225 1073.03,663.548 1074.05,503.701 1075.07,491.654 1076.09,504.634 1077.11,446.46 1078.12,411.121 
  1079.14,557.062 1080.16,542.497 1081.18,558.293 1082.2,663.685 1083.22,568.104 1084.24,620.481 1085.26,640.488 1086.28,687.801 1087.29,690.251 1088.31,808.322 
  1089.33,869.84 1090.35,856.813 1091.37,783.696 1092.39,730.674 1093.41,656.009 1094.43,657.703 1095.45,799.263 1096.46,918.79 1097.48,889.875 1098.5,799.238 
  1099.52,816.542 1100.54,748.575 1101.56,892.051 1102.58,693.088 1103.6,821.505 1104.62,919.663 1105.63,841.095 1106.65,873.218 1107.67,841.605 1108.69,835.841 
  1109.71,991.306 1110.73,987.013 1111.75,1017.59 1112.77,1119.09 1113.79,1104.59 1114.8,1091.99 1115.82,1034.48 1116.84,839.216 1117.86,856.184 1118.88,822.273 
  1119.9,717.213 1120.92,747.271 1121.94,618.102 1122.96,708.538 1123.97,663.991 1124.99,653.448 1126.01,952.635 1127.03,853.887 1128.05,857.65 1129.07,1037.44 
  1130.09,1117.61 1131.11,1041.46 1132.13,954.108 1133.14,954.162 1134.16,918.167 1135.18,858.07 1136.2,910.839 1137.22,917.481 1138.24,1008.63 1139.26,1066.75 
  1140.28,983.877 1141.3,1083.72 1142.31,1049.43 1143.33,1122.25 1144.35,1043.32 1145.37,1180.05 1146.39,1075.72 1147.41,1151.73 1148.43,1082.37 1149.45,1137.41 
  1150.47,1127.63 1151.48,1166.63 1152.5,1147.96 1153.52,1195.34 1154.54,1176.09 1155.56,1162.31 1156.58,1123.01 1157.6,1033.49 1158.62,1059.63 1159.64,1123.82 
  1160.65,1061.95 1161.67,1039.6 1162.69,884.61 1163.71,1081.92 1164.73,1296.82 1165.75,1305.65 1166.77,1013.91 1167.79,921.566 1168.81,923.148 1169.82,985.101 
  1170.84,982.097 1171.86,894.183 1172.88,958.406 1173.9,917.481 1174.92,832.211 1175.94,995.881 1176.96,838.621 1177.98,1073.16 1178.99,1148.65 1180.01,1022.25 
  1181.03,1036.37 1182.05,1187.52 1183.07,1152.76 1184.09,1090.27 1185.11,969.68 1186.13,1079.78 1187.15,1144.23 1188.16,1173.36 1189.18,1039.28 1190.2,824.42 
  1191.22,640.694 1192.24,565.123 1193.26,694.631 1194.28,690.086 1195.3,625.846 1196.32,641.267 1197.33,577.015 1198.35,440.506 1199.37,624.497 1200.39,707.36 
  1201.41,690.776 1202.43,760.408 1203.45,761.898 1204.47,798.264 1205.49,720.009 1206.5,792.151 1207.52,929.799 1208.54,956.843 1209.56,914.224 1210.58,838.395 
  1211.6,939.468 1212.62,758.904 1213.64,817.886 1214.66,801.548 1215.67,724.355 1216.69,779.648 1217.71,623.97 1218.73,676.672 1219.75,818.812 1220.77,789.536 
  1221.79,779.508 1222.81,626.24 1223.83,634.976 1224.84,858.212 1225.86,1045.43 1226.88,1037.93 1227.9,1067.63 1228.92,1057 1229.94,1166.09 1230.96,1166.47 
  1231.98,1039.7 1233,1108.39 1234.01,1242.82 1235.03,1153.36 1236.05,1330.45 1237.07,1257.23 1238.09,1380.1 1239.11,1065.18 1240.13,1102.45 1241.15,1082.52 
  1242.17,1207.01 1243.18,1158.79 1244.2,1053.1 1245.22,1061.31 1246.24,1109.13 1247.26,1144.34 1248.28,856.59 1249.3,899.63 1250.32,1000.38 1251.34,910.556 
  1252.35,900.365 1253.37,847.082 1254.39,767.02 1255.41,1002.06 1256.43,952.143 1257.45,946.649 1258.47,986.514 1259.49,1046.77 1260.51,868.465 1261.52,882.172 
  1262.54,859.547 1263.56,813.786 1264.58,787.795 1265.6,795.697 1266.62,831.537 1267.64,907.737 1268.66,855.19 1269.68,779.483 1270.69,959.722 1271.71,806.754 
  1272.73,1094.89 1273.75,1082.98 1274.77,1138.55 1275.79,1043.44 1276.81,940.917 1277.83,1054.76 1278.85,1059.71 1279.86,920.547 1280.88,880.189 1281.9,825.749 
  1282.92,773.963 1283.94,666.528 1284.96,627.646 1285.98,572.722 1287,666.486 1288.02,639.978 1289.03,719.897 1290.05,635.93 1291.07,671.355 1292.09,679.294 
  1293.11,636.538 1294.13,679.579 1295.15,686.925 1296.17,744.844 1297.19,746.713 1298.2,766.786 1299.22,768.885 1300.24,796.202 1301.26,850.594 1302.28,895.886 
  1303.3,729.904 1304.32,636.45 1305.34,666.149 1306.36,629.101 1307.37,786.979 1308.39,788.858 1309.41,699.776 1310.43,719.425 1311.45,756.713 1312.47,777.067 
  1313.49,760.711 1314.51,755.114 1315.53,711.882 1316.54,721.225 1317.56,762.237 1318.58,695.678 1319.6,627.987 1320.62,730.428 1321.64,723.539 1322.66,667.095 
  1323.68,664.476 1324.7,549.38 1325.71,506.913 1326.73,461.607 1327.75,590.034 1328.77,504.344 1329.79,577.691 1330.81,557.91 1331.83,543.84 1332.85,555.369 
  1333.87,540.306 1334.88,589.337 1335.9,665.379 1336.92,667.855 1337.94,629.972 1338.96,581.948 1339.98,733.88 1341,700.218 1342.02,809.454 1343.04,865.211 
  1344.05,912.35 1345.07,905.205 1346.09,931.697 1347.11,984.513 1348.13,977.544 1349.15,857.346 1350.17,752.21 1351.19,1007.19 1352.21,1162.24 1353.22,1041.36 
  1354.24,1059.61 1355.26,790.569 1356.28,676.761 1357.3,728.452 1358.32,819.99 1359.34,732.879 1360.36,654.498 1361.38,624.972 1362.39,579.954 1363.41,508.732 
  1364.43,449.248 1365.45,525.963 1366.47,427.629 1367.49,449.02 1368.51,596.179 1369.53,658.816 1370.55,749.908 1371.56,817.569 1372.58,786.229 1373.6,713.357 
  1374.62,728.278 1375.64,760.458 1376.66,857.373 1377.68,1002.18 1378.7,993.537 1379.72,1041.72 1380.73,1121.35 1381.75,845.11 1382.77,844.782 1383.79,719.815 
  1384.81,765.948 1385.83,769.037 1386.85,856.263 1387.87,974.791 1388.89,788.214 1389.9,897.89 1390.92,1045.46 1391.94,1151.41 1392.96,1070.69 1393.98,1061.45 
  1395,872.609 1396.02,860.181 1397.04,802.63 1398.06,696.788 1399.07,698.172 1400.09,732.005 1401.11,723.965 1402.13,891.035 1403.15,1015.18 1404.17,878.937 
  1405.19,837.27 1406.21,792.869 1407.23,711.298 1408.24,832.682 1409.26,582.64 1410.28,804.203 1411.3,864.623 1412.32,897.699 1413.34,823.48 1414.36,818.756 
  1415.38,847.973 1416.4,810.498 1417.41,889.963 1418.43,897.047 1419.45,953.596 1420.47,938.147 1421.49,1077.7 1422.51,1199.48 1423.53,1069.46 1424.55,1081.83 
  1425.57,1108.33 1426.58,1177.47 1427.6,1274.54 1428.62,1127.36 1429.64,1268.07 1430.66,1197.25 1431.68,1134.99 1432.7,984.094 1433.72,846.364 1434.74,753.226 
  1435.75,605.142 1436.77,644.012 1437.79,639.355 1438.81,631.227 1439.83,766.992 1440.85,795.748 1441.87,710.27 1442.89,911.282 1443.91,917.445 1444.92,781.704 
  1445.94,781.742 1446.96,981.374 1447.98,1099.61 1449,1168.45 1450.02,1097.87 1451.04,1069.25 1452.06,1120.13 1453.08,949.553 1454.09,942.101 1455.11,1094.14 
  1456.13,999.273 1457.15,1079.35 1458.17,1004.52 1459.19,946.768 1460.21,760.485 1461.23,833.461 1462.25,856.273 1463.26,1085.74 1464.28,1155.19 1465.3,1045.36 
  1466.32,892.629 1467.34,999.983 1468.36,908.253 1469.38,883.882 1470.4,926.775 1471.42,836.356 1472.43,825.15 1473.45,878.358 1474.47,922.648 1475.49,997.355 
  1476.51,1129.54 1477.53,1015.31 1478.55,866.102 1479.57,877.96 1480.59,1102.46 1481.6,995.781 1482.62,918.674 1483.64,861.974 1484.66,983.519 1485.68,1061.75 
  1486.7,1017.56 1487.72,969.297 1488.74,954.041 1489.76,906.308 1490.77,688.945 1491.79,654.806 1492.81,623.898 1493.83,604.752 1494.85,755.71 1495.87,704.86 
  1496.89,697.527 1497.91,714.196 1498.93,806.291 1499.94,1089.43 1500.96,956.324 1501.98,963.096 1503,1022.29 1504.02,913.151 1505.04,715.456 1506.06,785.712 
  1507.08,676.058 1508.1,794.753 1509.12,688.624 1510.13,672.899 1511.15,740.632 1512.17,741.569 1513.19,758.118 1514.21,766.418 1515.23,704.006 1516.25,712.906 
  1517.27,701.634 1518.29,864.435 1519.3,819.027 1520.32,962.483 1521.34,958.626 1522.36,916.573 1523.38,838.95 1524.4,768.963 1525.42,804.25 1526.44,775.237 
  1527.46,652.577 1528.47,768.41 1529.49,648.867 1530.51,683.869 1531.53,695.33 1532.55,759.692 1533.57,832.584 1534.59,924.82 1535.61,925.315 1536.63,1010.51 
  1537.64,1099.7 1538.66,937.964 1539.68,949.44 1540.7,1170.11 1541.72,1059.22 1542.74,1133.48 1543.76,1084.37 1544.78,941.877 1545.8,945.809 1546.81,909.575 
  1547.83,882.361 1548.85,995.951 1549.87,941.65 1550.89,802.098 1551.91,860.76 1552.93,956.392 1553.95,830.342 1554.97,860.166 1555.98,823.792 1557,755.536 
  1558.02,669.395 1559.04,688.35 1560.06,857.878 1561.08,833.438 1562.1,749.764 1563.12,731.031 1564.14,852.016 1565.15,933 1566.17,908.27 1567.19,1014.48 
  1568.21,994.1 1569.23,822.178 1570.25,925.655 1571.27,840.543 1572.29,785.065 1573.31,811.614 1574.32,821.681 1575.34,747.26 1576.36,735.874 1577.38,671.138 
  1578.4,802.882 1579.42,857.238 1580.44,966.932 1581.46,1019.54 1582.48,1001.62 1583.49,1037.62 1584.51,1110.12 1585.53,1124.46 1586.55,1149.65 1587.57,1035.39 
  1588.59,1072.86 1589.61,1054.7 1590.63,1001.38 1591.65,933.566 1592.66,948.378 1593.68,985.337 1594.7,797.469 1595.72,785.049 1596.74,765.863 1597.76,795.406 
  1598.78,920.195 1599.8,876.856 1600.82,915.843 1601.83,973.259 1602.85,1114.19 1603.87,1085.95 1604.89,1155.43 1605.91,1032.8 1606.93,936.96 1607.95,898.055 
  1608.97,898.251 1609.99,866.444 1611,878.343 1612.02,897.195 1613.04,1010.55 1614.06,982.177 1615.08,1191.83 1616.1,1143.51 1617.12,1150.1 1618.14,1231.47 
  1619.16,1216.82 1620.17,1218.56 1621.19,1127.99 1622.21,1092.99 1623.23,955.608 1624.25,940.066 1625.27,823.782 1626.29,832.544 1627.31,676.677 1628.33,714.453 
  1629.34,652.079 1630.36,770.754 1631.38,614.654 1632.4,718.312 1633.42,610.484 1634.44,959.143 1635.46,868.151 1636.48,952.186 1637.5,1064.47 1638.51,1048.04 
  1639.53,1004.4 1640.55,938.201 1641.57,948.032 1642.59,949.775 1643.61,952.186 1644.63,863.28 1645.65,801.464 1646.67,936.149 1647.68,976.534 1648.7,982.031 
  1649.72,1004.3 1650.74,1054.3 1651.76,1035.35 1652.78,1022.3 1653.8,1070.09 1654.82,918.282 1655.84,1061.19 1656.85,1062.53 1657.87,973.604 1658.89,881.75 
  1659.91,925.388 1660.93,985.564 1661.95,1165.05 1662.97,1302.5 1663.99,1123.4 1665.01,1103.84 1666.02,1113.78 1667.04,1182.22 1668.06,1072.61 1669.08,851.117 
  1670.1,826.908 1671.12,879.548 1672.14,1014.54 1673.16,1015.26 1674.18,996.731 1675.19,961.404 1676.21,1142.58 1677.23,1179.29 1678.25,1167.23 1679.27,915.39 
  1680.29,757.346 1681.31,866.122 1682.33,1043.82 1683.35,963.835 1684.36,874.13 1685.38,858.402 1686.4,699.974 1687.42,765.637 1688.44,734.417 1689.46,715.1 
  1690.48,755.443 1691.5,838.152 1692.52,860.431 1693.53,874.463 1694.55,874.763 1695.57,1028.58 1696.59,1010.71 1697.61,926.055 1698.63,862.943 1699.65,983.161 
  1700.67,982.433 1701.69,988.312 1702.7,988.592 1703.72,904.788 1704.74,934.035 1705.76,921.878 1706.78,952.078 1707.8,818.197 1708.82,935.274 1709.84,1054.59 
  1710.86,1049.38 1711.87,1039.83 1712.89,1006.59 1713.91,1139.43 1714.93,1135.59 1715.95,1011.73 1716.97,944.094 1717.99,834.499 1719.01,787.504 1720.03,893.298 
  1721.04,841.056 1722.06,925.286 1723.08,736.234 1724.1,798.02 1725.12,850.454 1726.14,861.969 1727.16,623.726 1728.18,684.417 1729.2,756.944 1730.21,991.6 
  1731.23,1047.94 1732.25,962.346 1733.27,1060.91 1734.29,1195.29 1735.31,1280.12 1736.33,1259.41 1737.35,1400.67 1738.37,1290.62 1739.38,971.228 1740.4,1098.68 
  1741.42,1178.63 1742.44,1045.33 1743.46,1093.48 1744.48,1144.86 1745.5,994.897 1746.52,830.999 1747.54,941.886 1748.55,994.078 1749.57,908.916 1750.59,1012.85 
  1751.61,994.446 1752.63,1101.4 1753.65,1061.45 1754.67,1090.19 1755.69,990.611 1756.71,896.808 1757.72,908.68 1758.74,1091.54 1759.76,1068.9 1760.78,863.354 
  1761.8,943.152 1762.82,877.408 1763.84,1032.94 1764.86,1131.69 1765.88,888.527 1766.89,863.096 1767.91,913.832 1768.93,875.384 1769.95,1103.08 1770.97,997.669 
  1771.99,1244.3 1773.01,1188.4 1774.03,1280.14 1775.05,1237.89 1776.06,1223.88 1777.08,1290.58 1778.1,1132.85 1779.12,1049.06 1780.14,1021.1 1781.16,1067.09 
  1782.18,1042.73 1783.2,953.493 1784.22,977.463 1785.23,1010.72 1786.25,1072.18 1787.27,1206.35 1788.29,993.035 1789.31,902.3 1790.33,1003.77 1791.35,941.719 
  1792.37,1039.61 1793.39,1027.54 1794.4,1069.28 1795.42,1190.98 1796.44,957.932 1797.46,916.231 1798.48,900.964 1799.5,836.915 1800.52,915.386 1801.54,800.658 
  1802.56,786.606 1803.57,684.975 1804.59,686.966 1805.61,835.874 1806.63,830.273 1807.65,992.227 1808.67,867.658 1809.69,715.398 1810.71,792.738 1811.73,879.66 
  1812.74,1030.77 1813.76,1003.98 1814.78,961.198 1815.8,936.804 1816.82,1037.81 1817.84,970.015 1818.86,990.239 1819.88,912.458 1820.9,868.248 1821.91,936.849 
  1822.93,911.69 1823.95,951.193 1824.97,895.965 1825.99,910.715 1827.01,984.298 1828.03,960.758 1829.05,937.016 1830.07,1005.24 1831.08,961.005 1832.1,1091.65 
  1833.12,1052.49 1834.14,911.762 1835.16,870.989 1836.18,932.859 1837.2,942.67 1838.22,1058.6 1839.24,1211.9 1840.25,1138.92 1841.27,1183.8 1842.29,1057.6 
  1843.31,990.282 1844.33,956.945 1845.35,807.066 1846.37,771.952 1847.39,745.171 1848.41,812.419 1849.42,719.538 1850.44,710.163 1851.46,707.844 1852.48,654.103 
  1853.5,761.785 1854.52,813.536 1855.54,638.109 1856.56,583.766 1857.58,699.088 1858.59,675.906 1859.61,762.261 1860.63,733.065 1861.65,816.158 1862.67,800.869 
  1863.69,898.543 1864.71,891.201 1865.73,908.261 1866.75,868.269 1867.76,796.529 1868.78,828.022 1869.8,752.66 1870.82,876.213 1871.84,769.587 1872.86,800.884 
  1873.88,766.568 1874.9,656.616 1875.92,688.746 1876.93,639.555 1877.95,682.175 1878.97,678.599 1879.99,594.185 1881.01,490.707 1882.03,525.966 1883.05,471.256 
  1884.07,619.183 1885.09,568.048 1886.1,528.545 1887.12,620.131 1888.14,654.674 1889.16,740.839 1890.18,851.951 1891.2,815.139 1892.22,910.837 1893.24,960.761 
  1894.26,855.501 1895.27,910.735 1896.29,869.633 1897.31,808.272 1898.33,699.904 1899.35,833.507 1900.37,652.057 1901.39,767.627 1902.41,701.369 1903.43,622.732 
  1904.44,628.097 1905.46,767.252 1906.48,695.195 1907.5,759.534 1908.52,784.769 1909.54,914.492 1910.56,900.01 1911.58,850.332 1912.6,687.831 1913.61,631.459 
  1914.63,658.209 1915.65,693.008 1916.67,680.589 1917.69,871.934 1918.71,865.186 1919.73,871.795 1920.75,980.492 1921.77,890.293 1922.78,930.145 1923.8,1039.81 
  1924.82,918.946 1925.84,982.71 1926.86,1024.35 1927.88,1077.85 1928.9,837.009 1929.92,877.268 1930.94,844.569 1931.95,1095.01 1932.97,1006.8 1933.99,901.849 
  1935.01,941.308 1936.03,1078.54 1937.05,1118.05 1938.07,1163.39 1939.09,1178.49 1940.11,1111.21 1941.12,1152.38 1942.14,992.918 1943.16,950.955 1944.18,882.359 
  1945.2,848.692 1946.22,894.412 1947.24,778.828 1948.26,838.102 1949.28,826.531 1950.29,746.255 1951.31,722.499 1952.33,755.62 1953.35,816.753 1954.37,967.878 
  1955.39,880.235 1956.41,940.519 1957.43,962.71 1958.45,844.418 1959.46,930.174 1960.48,759.184 1961.5,853.69 1962.52,872.42 1963.54,918.689 1964.56,878.373 
  1965.58,727.875 1966.6,755.579 1967.62,791.802 1968.63,890.582 1969.65,714.524 1970.67,762.661 1971.69,719.534 1972.71,897.907 1973.73,840.562 1974.75,782.126 
  1975.77,878.576 1976.79,850.986 1977.8,988.509 1978.82,923.405 1979.84,924.905 1980.86,951.366 1981.88,1095.57 1982.9,1047.1 1983.92,1067.5 1984.94,1033.92 
  1985.96,953.246 1986.97,1119.17 1987.99,1030.67 1989.01,1112.71 1990.03,962.036 1991.05,1051.15 1992.07,955.062 1993.09,942.763 1994.11,771.997 1995.13,826.568 
  1996.14,871.014 1997.16,968.56 1998.18,1023.45 1999.2,1042.62 2000.22,1069.43 2001.24,1078.53 2002.26,1004.75 2003.28,881.004 2004.3,764.175 2005.31,738.097 
  2006.33,849.898 2007.35,879.152 2008.37,861.012 2009.39,924.729 2010.41,787.859 2011.43,958.392 2012.45,968.221 2013.47,965.147 2014.48,1076.48 2015.5,916.094 
  2016.52,640.519 2017.54,799.042 2018.56,641.629 2019.58,675.416 2020.6,669.395 2021.62,718.979 2022.64,875.551 2023.65,1038.34 2024.67,1034.43 2025.69,1137.33 
  2026.71,1019.75 2027.73,908.686 2028.75,801.668 2029.77,723.827 2030.79,628.828 2031.81,606.212 2032.82,740.361 2033.84,844.153 2034.86,752.711 2035.88,651.986 
  2036.9,709.861 2037.92,840.873 2038.94,802.523 2039.96,682.07 2040.98,668.874 2041.99,698.271 2043.01,554.048 2044.03,514.418 2045.05,615.759 2046.07,599.033 
  2047.09,647.086 2048.11,678.803 2049.13,738.462 2050.15,773.782 2051.16,842.868 2052.18,924.478 2053.2,887.98 2054.22,668.434 2055.24,733.281 2056.26,728.316 
  2057.28,782.595 2058.3,993.595 2059.32,1012.57 2060.33,859.111 2061.35,969.191 2062.37,1071.61 2063.39,955.535 2064.41,1057.31 2065.43,926.266 2066.45,1112.74 
  2067.47,968.937 2068.49,1004.42 2069.5,1030.23 2070.52,998.803 2071.54,1049.46 2072.56,965.234 2073.58,1011.38 2074.6,1044.38 2075.62,1137.92 2076.64,1128.79 
  2077.66,1110.78 2078.67,1175.36 2079.69,976.277 2080.71,855.405 2081.73,912.159 2082.75,783.255 2083.77,655.759 2084.79,915.457 2085.81,876.923 2086.83,977.894 
  2087.84,995.752 2088.86,949.498 2089.88,981.539 2090.9,1031.01 2091.92,1020.32 2092.94,1163.92 2093.96,1225.46 2094.98,1289.33 2096,1165.43 2097.01,843.922 
  2098.03,845.483 2099.05,702.704 2100.07,754.142 2101.09,844.727 2102.11,865.868 2103.13,785.619 2104.15,652.638 2105.17,701.732 2106.18,795.655 2107.2,741.073 
  2108.22,845.237 2109.24,1019.02 2110.26,893.965 2111.28,893.02 2112.3,885.393 2113.32,937.183 2114.34,831.615 2115.35,780.176 2116.37,669.94 2117.39,801.896 
  2118.41,886.807 2119.43,853.717 2120.45,791.679 2121.47,845.34 2122.49,855.735 2123.51,789.964 2124.52,740.704 2125.54,773.398 2126.56,860.136 2127.58,875.188 
  2128.6,965.01 2129.62,1041.03 2130.64,1019.75 2131.66,883.434 2132.68,868.554 2133.69,827.705 2134.71,788.31 2135.73,757.431 2136.75,677.082 2137.77,775.516 
  2138.79,767.569 2139.81,740.036 2140.83,601.895 2141.85,564.377 2142.86,580.517 2143.88,647.991 2144.9,640.79 2145.92,632.364 2146.94,722.598 2147.96,784.373 
  2148.98,815.021 2150,798.67 2151.02,682.368 2152.03,687.331 2153.05,721.192 2154.07,742.65 2155.09,665.095 2156.11,595.382 2157.13,606.727 2158.15,586.91 
  2159.17,656.949 2160.19,646.54 2161.2,712.32 2162.22,639.856 2163.24,605.28 2164.26,640.933 2165.28,645.417 2166.3,613.729 2167.32,597.284 2168.34,672.637 
  2169.36,625.786 2170.37,617.751 2171.39,606.953 2172.41,606.125 2173.43,681.063 2174.45,780.085 2175.47,731.378 2176.49,743.403 2177.51,911.913 2178.53,1049.16 
  2179.54,1070.67 2180.56,965.678 2181.58,948.407 2182.6,961.721 2183.62,718.763 2184.64,820.673 2185.66,800.1 2186.68,505.122 2187.7,500.871 2188.71,568.22 
  2189.73,707.17 2190.75,768.361 2191.77,880.097 2192.79,928.318 2193.81,1019.3 2194.83,1036.49 2195.85,961.88 2196.87,867.934 2197.88,967.674 2198.9,888.188 
  2199.92,930.18 2200.94,962.325 2201.96,1052.88 2202.98,1038.12 2204,1028.69 2205.02,1055.77 2206.04,1007.27 2207.05,999.726 2208.07,973.829 2209.09,907.628 
  2210.11,827.418 2211.13,689.321 2212.15,638.233 2213.17,585.229 2214.19,593.802 2215.21,563.553 2216.22,728.532 2217.24,646.253 2218.26,819.956 2219.28,784.125 
  2220.3,601.082 2221.32,661.017 2222.34,679.311 2223.36,622.036 2224.38,606.626 2225.39,785.532 2226.41,836.584 2227.43,859.593 2228.45,778.029 2229.47,686.614 
  2230.49,688.614 2231.51,667.759 2232.53,689.09 2233.55,824.264 2234.56,890.244 2235.58,1121.38 2236.6,852.477 2237.62,865.934 2238.64,965.705 2239.66,950.093 
  2240.68,921.405 2241.7,954.325 2242.72,1024.37 2243.73,982.306 2244.75,1047.67 2245.77,1035.58 2246.79,1158.37 2247.81,1073.36 2248.83,1203.22 2249.85,1420.22 
  2250.87,1175.47 2251.89,1158.36 2252.9,1134.99 2253.92,861.167 2254.94,789.376 2255.96,816.318 2256.98,811.162 2258,972.108 2259.02,913.656 2260.04,955.593 
  2261.06,919.996 2262.07,911.438 2263.09,873.128 2264.11,1060.83 2265.13,913.553 2266.15,1012.41 2267.17,1145.59 2268.19,1073.42 2269.21,935.728 2270.23,960.367 
  2271.24,888.584 2272.26,861.335 2273.28,993.064 2274.3,973.521 2275.32,767.988 2276.34,766.539 2277.36,783.238 2278.38,718.551 2279.4,794.733 2280.41,817.951 
  2281.43,723.778 2282.45,735.79 2283.47,873.408 2284.49,919.62 2285.51,823.257 2286.53,781.835 2287.55,927.588 2288.57,912.793 2289.58,1017.88 2290.6,935.97 
  2291.62,1019.58 
  "/>
<polyline clip-path="url(#clip862)" style="stroke:#e26f46; stroke-linecap:butt; stroke-linejoin:round; stroke-width:4; stroke-opacity:1; fill:none" points="
  253.843,811.055 254.861,840.122 255.88,925.197 256.899,848.429 257.918,695.027 258.937,643.366 259.956,676.943 260.975,623.937 261.994,636.461 263.013,497.172 
  264.031,569.139 265.05,733.133 266.069,728.576 267.088,828.092 268.107,844.666 269.126,954.297 270.145,914.925 271.164,875.676 272.183,917.786 273.201,854.69 
  274.22,849.582 275.239,682.05 276.258,522.065 277.277,481.81 278.296,377.147 279.315,431.691 280.334,319.99 281.353,236.881 282.371,438.489 283.39,320.002 
  284.409,496.186 285.428,557.334 286.447,591.964 287.466,551.056 288.485,545.91 289.504,640.482 290.523,881.409 291.541,810.745 292.56,832.367 293.579,774.68 
  294.598,653.112 295.617,594.502 296.636,500.038 297.655,721.864 298.674,519.114 299.693,615.686 300.711,782.742 301.73,860.981 302.749,861.165 303.768,835.257 
  304.787,899.263 305.806,845.164 306.825,872.502 307.844,925.05 308.863,856.014 309.881,837.286 310.9,819.425 311.919,749.512 312.938,830.627 313.957,791.59 
  314.976,765.324 315.995,727.503 317.014,643.238 318.033,574.744 319.052,623.294 320.07,585.135 321.089,654.671 322.108,817.641 323.127,815.144 324.146,819.471 
  325.165,503.555 326.184,445.657 327.203,544.652 328.222,329.556 329.24,267.934 330.259,382.267 331.278,600.922 332.297,542.469 333.316,580.948 334.335,537.877 
  335.354,714.282 336.373,663.453 337.392,612.746 338.41,405.028 339.429,123.748 340.448,160.952 341.467,512.679 342.486,571.99 343.505,603.626 344.524,699.967 
  345.543,686.291 346.562,625.871 347.58,613.607 348.599,612.028 349.618,547.048 350.637,583.459 351.656,601.44 352.675,637.505 353.694,745.764 354.713,705.435 
  355.732,793.252 356.75,938.442 357.769,881.859 358.788,727.961 359.807,711.532 360.826,691.812 361.845,700.785 362.864,660.691 363.883,580.615 364.902,614.097 
  365.92,641.34 366.939,598.162 367.958,586.639 368.977,436.972 369.996,478.467 371.015,493.504 372.034,661.287 373.053,625.094 374.072,540.713 375.09,510.387 
  376.109,638.178 377.128,629.254 378.147,603.31 379.166,580.184 380.185,614.77 381.204,708.144 382.223,691.932 383.242,785.916 384.26,738.838 385.279,623.964 
  386.298,690.892 387.317,627.967 388.336,544.531 389.355,620.554 390.374,745.816 391.393,580.955 392.412,537.046 393.43,491.793 394.449,443.458 395.468,375.147 
  396.487,406.489 397.506,492.197 398.525,586.62 399.544,670.327 400.563,575.43 401.582,358.544 402.6,325.45 403.619,361.303 404.638,442.534 405.657,425.522 
  406.676,416.618 407.695,451.655 408.714,608.375 409.733,494.835 410.752,512.43 411.77,651.125 412.789,705.542 413.808,702.289 414.827,785.965 415.846,854.78 
  416.865,910.17 417.884,796.267 418.903,696.444 419.922,757.367 420.941,700.697 421.959,613.254 422.978,634.612 423.997,698.962 425.016,866.934 426.035,845.733 
  427.054,576.416 428.073,461.705 429.092,472.222 430.111,635.991 431.129,743.767 432.148,737.347 433.167,665.718 434.186,876.149 435.205,941.44 436.224,911.698 
  437.243,992.942 438.262,818.928 439.281,889.785 440.299,846.418 441.318,675.666 442.337,610.664 443.356,680.108 444.375,724.622 445.394,705.838 446.413,643.172 
  447.432,400.627 448.451,420.809 449.469,540.633 450.488,486.866 451.507,691.318 452.526,654.413 453.545,732.939 454.564,486.343 455.583,668.092 456.602,650.832 
  457.621,610.639 458.639,506.617 459.658,558.031 460.677,618.744 461.696,695.908 462.715,567.872 463.734,741.961 464.753,853.503 465.772,901.053 466.791,887.865 
  467.809,770.52 468.828,769.308 469.847,812.443 470.866,761.11 471.885,666.854 472.904,694.961 473.923,577.578 474.942,601.861 475.961,571.466 476.979,534.121 
  477.998,588.31 479.017,412.614 480.036,405.528 481.055,449.952 482.074,588.357 483.093,575.37 484.112,529.828 485.131,731.755 486.149,673.221 487.168,663.575 
  488.187,625.501 489.206,644.751 490.225,696.542 491.244,725.155 492.263,772.801 493.282,805.158 494.301,679.171 495.319,584.296 496.338,754.342 497.357,701.041 
  498.376,574.199 499.395,508.624 500.414,726.273 501.433,780.06 502.452,820.978 503.471,795.488 504.489,768.796 505.508,679.119 506.527,658.581 507.546,483.571 
  508.565,611.829 509.584,599.93 510.603,442.807 511.622,432.83 512.641,627.002 513.659,796.161 514.678,862.844 515.697,978.875 516.716,956.6 517.735,950.208 
  518.754,951.143 519.773,939.006 520.792,868.71 521.811,759.369 522.83,539.972 523.848,461.421 524.867,509.94 525.886,369.644 526.905,307.109 527.924,277.018 
  528.943,391.68 529.962,383.258 530.981,533.71 532,689.072 533.018,738.281 534.037,777.507 535.056,751.667 536.075,751.963 537.094,577.567 538.113,543.798 
  539.132,561.185 540.151,337.603 541.17,278.815 542.188,479.784 543.207,450.858 544.226,439.296 545.245,624.836 546.264,511.81 547.283,465.418 548.302,358.869 
  549.321,504.677 550.34,571.889 551.358,689.362 552.377,753.583 553.396,694.831 554.415,603.302 555.434,453.2 556.453,629.485 557.472,580.065 558.491,558.606 
  559.51,694.287 560.528,788.435 561.547,726.561 562.566,732.699 563.585,653.163 564.604,648.048 565.623,582.573 566.642,482.151 567.661,742.512 568.68,631.919 
  569.698,673.098 570.717,791.968 571.736,830.441 572.755,725.885 573.774,623.19 574.793,714.695 575.812,573.907 576.831,580.231 577.85,555.81 578.868,573.972 
  579.887,626.107 580.906,725.152 581.925,840.645 582.944,770.562 583.963,810.536 584.982,823.44 586.001,918.753 587.02,823.774 588.038,829.098 589.057,620.625 
  590.076,440.472 591.095,558.247 592.114,710.442 593.133,604.261 594.152,609.432 595.171,641.492 596.19,722.299 597.208,705.21 598.227,651.778 599.246,589.33 
  600.265,526.722 601.284,494.196 602.303,495.594 603.322,473.928 604.341,437.531 605.36,430.671 606.378,361.505 607.397,393.099 608.416,384.472 609.435,608.375 
  610.454,434.966 611.473,443.615 612.492,506.742 613.511,494.864 614.53,514.757 615.548,533.729 616.567,585.71 617.586,512.33 618.605,618.193 619.624,588.59 
  620.643,686.132 621.662,742.486 622.681,731.579 623.7,602.414 624.719,667.816 625.737,668.64 626.756,455.011 627.775,556.126 628.794,488.879 629.813,467.977 
  630.832,363.637 631.851,482.301 632.87,387.667 633.889,494.462 634.907,543.752 635.926,611.767 636.945,596.375 637.964,534.101 638.983,457.058 640.002,506.052 
  641.021,574.459 642.04,563.982 643.059,552.111 644.077,508.409 645.096,542.769 646.115,515.196 647.134,586.498 648.153,584.06 649.172,498.875 650.191,353.243 
  651.21,324.075 652.229,345.035 653.247,491.065 654.266,588.89 655.285,619.582 656.304,772.481 657.323,816.758 658.342,740.137 659.361,858.041 660.38,778.848 
  661.399,872.855 662.417,731.061 663.436,680.464 664.455,520.705 665.474,601.371 666.493,678.476 667.512,627.232 668.531,712.732 669.55,707.806 670.569,809.958 
  671.587,842.433 672.606,816.806 673.625,632.595 674.644,513.55 675.663,429.475 676.682,395.991 677.701,223.998 678.72,131.977 679.739,216.587 680.757,402.985 
  681.776,543.801 682.795,493.188 683.814,342.771 684.833,333.697 685.852,269.134 686.871,349.094 687.89,600.771 688.909,648.45 689.927,872.657 690.946,817.084 
  691.965,992.334 692.984,771.058 694.003,856.969 695.022,1187.98 696.041,1218.44 697.06,1098.84 698.079,1019.38 699.097,1002.13 700.116,1117.37 701.135,926.985 
  702.154,866.061 703.173,794.93 704.192,827.127 705.211,788.658 706.23,670.265 707.249,604.469 708.267,585.539 709.286,719.946 710.305,809.112 711.324,822.783 
  712.343,941.949 713.362,649.277 714.381,576.734 715.4,343.253 716.419,87.9763 717.437,215.709 718.456,335.167 719.475,340.922 720.494,393.304 721.513,410.042 
  722.532,584.416 723.551,441.646 724.57,425.778 725.589,361.783 726.608,349.786 727.626,214.77 728.645,284.341 729.664,417.762 730.683,627.039 731.702,625.277 
  732.721,639.161 733.74,615.676 734.759,647.089 735.778,566.585 736.796,511.231 737.815,584.764 738.834,660.007 739.853,710.113 740.872,702.414 741.891,682.174 
  742.91,506.946 743.929,362.971 744.948,370.947 745.966,430.697 746.985,354.691 748.004,384.428 749.023,558.582 750.042,550.564 751.061,466.989 752.08,722.148 
  753.099,758.962 754.118,749.685 755.136,666.52 756.155,674.997 757.174,710.533 758.193,762.502 759.212,735.619 760.231,786.576 761.25,553.858 762.269,378.682 
  763.288,578.994 764.306,608.89 765.325,449.124 766.344,454.935 767.363,512.201 768.382,430.994 769.401,460.847 770.42,531.466 771.439,582.929 772.458,563.496 
  773.476,644.741 774.495,633.98 775.514,559.258 776.533,650.054 777.552,612.521 778.571,471.505 779.59,600.086 780.609,513.562 781.628,426.41 782.646,477.636 
  783.665,700.737 784.684,661.309 785.703,815.003 786.722,789.804 787.741,739.13 788.76,886.561 789.779,915.867 790.798,934.734 791.816,960.102 792.835,861.035 
  793.854,861.498 794.873,892.692 795.892,902.345 796.911,794.142 797.93,794.104 798.949,813.559 799.968,889.194 800.986,692.965 802.005,689.893 803.024,725.531 
  804.043,744.661 805.062,785.126 806.081,785.674 807.1,888.077 808.119,697.998 809.138,694.295 810.156,790.878 811.175,906.635 812.194,837.382 813.213,914.046 
  814.232,845.864 815.251,880.781 816.27,923.74 817.289,963.012 818.308,889.561 819.326,900.831 820.345,866.766 821.364,857.722 822.383,738.245 823.402,620.307 
  824.421,717.346 825.44,684.325 826.459,421.26 827.478,470.92 828.496,615.466 829.515,789.338 830.534,659.334 831.553,855.135 832.572,709.596 833.591,707.932 
  834.61,797.667 835.629,769.11 836.648,730.048 837.667,788.16 838.685,777.864 839.704,758.623 840.723,747.154 841.742,696.953 842.761,782.419 843.78,870.01 
  844.799,851.288 845.818,794.254 846.837,779.414 847.855,553.666 848.874,507.187 849.893,682.421 850.912,770.634 851.931,725.9 852.95,597.494 853.969,555.958 
  854.988,577.968 856.007,673.614 857.025,750.354 858.044,794.377 859.063,668.948 860.082,622.112 861.101,654.866 862.12,673.29 863.139,497.349 864.158,635.093 
  865.177,716.317 866.195,537.912 867.214,603.812 868.233,597.372 869.252,442.603 870.271,484.339 871.29,419.713 872.309,266.97 873.328,329.079 874.347,413.635 
  875.365,413.796 876.384,220.376 877.403,251.43 878.422,339.496 879.441,509.215 880.46,439.108 881.479,553.086 882.498,556.318 883.517,551.137 884.535,612.304 
  885.554,498.834 886.573,423.711 887.592,372.434 888.611,452.191 889.63,388.65 890.649,194.701 891.668,370.195 892.687,452.674 893.705,365.778 894.724,577.697 
  895.743,547.172 896.762,478.037 897.781,565.933 898.8,478.775 899.819,598.404 900.838,595.352 901.857,822.037 902.875,898.377 903.894,727.367 904.913,730.004 
  905.932,643.339 906.951,495.739 907.97,506.838 908.989,446.194 910.008,514.06 911.027,548.307 912.045,567.337 913.064,481.785 914.083,479.413 915.102,591.435 
  916.121,676.77 917.14,780.687 918.159,601.179 919.178,752.83 920.197,744.208 921.215,791.131 922.234,876.472 923.253,878.72 924.272,738.054 925.291,780.712 
  926.31,762.638 927.329,770.212 928.348,663.229 929.367,655.676 930.385,659.457 931.404,641.258 932.423,620.074 933.442,669.356 934.461,701.305 935.48,555.588 
  936.499,459.801 937.518,522.373 938.537,433.149 939.556,359.729 940.574,498.427 941.593,459.188 942.612,389.573 943.631,598.66 944.65,608.439 945.669,592.939 
  946.688,587.539 947.707,518.513 948.726,502.862 949.744,550.291 950.763,570.145 951.782,582.54 952.801,678.615 953.82,757.278 954.839,803.02 955.858,818.908 
  956.877,836.737 957.896,895.713 958.914,831.783 959.933,764.421 960.952,626.143 961.971,622.193 962.99,657.595 964.009,688.451 965.028,711.285 966.047,659.55 
  967.066,711.148 968.084,788.776 969.103,627.735 970.122,440.954 971.141,495.367 972.16,606.795 973.179,586.595 974.198,531.446 975.217,401.279 976.236,517.61 
  977.254,652.521 978.273,876.184 979.292,807.885 980.311,762.578 981.33,708.622 982.349,595.923 983.368,636.538 984.387,662.17 985.406,525.398 986.424,391.346 
  987.443,398.605 988.462,341.31 989.481,491.235 990.5,410.174 991.519,406.356 992.538,631.3 993.557,710.891 994.576,758.863 995.594,831.508 996.613,879.614 
  997.632,879.985 998.651,641.366 999.67,545.919 1000.69,422.541 1001.71,501.288 1002.73,550.225 1003.75,441.692 1004.76,587.632 1005.78,619.788 1006.8,538.102 
  1007.82,554.811 1008.84,564.848 1009.86,695.402 1010.88,556.034 1011.9,416.989 1012.92,487.318 1013.93,521.072 1014.95,587.38 1015.97,547.745 1016.99,613.574 
  1018.01,554.846 1019.03,751.673 1020.05,891.587 1021.07,933.203 1022.09,935.534 1023.1,1023.05 1024.12,886.17 1025.14,958.692 1026.16,876.377 1027.18,767.369 
  1028.2,775.477 1029.22,866.53 1030.24,845.814 1031.26,751.154 1032.27,940.693 1033.29,952.828 1034.31,963.819 1035.33,882.566 1036.35,844.588 1037.37,903.874 
  1038.39,856.537 1039.41,856.774 1040.43,703.393 1041.44,525.713 1042.46,735.169 1043.48,667.688 1044.5,694.35 1045.52,685.754 1046.54,531.528 1047.56,482.233 
  1048.58,452.742 1049.6,559.458 1050.61,627.162 1051.63,670.738 1052.65,619.008 1053.67,618.316 1054.69,727.475 1055.71,735.397 1056.73,751.796 1057.75,801.27 
  1058.77,708.776 1059.78,771.084 1060.8,890.579 1061.82,827.439 1062.84,859.562 1063.86,713.16 1064.88,714.023 1065.9,715.397 1066.92,760.455 1067.94,668.96 
  1068.95,783.945 1069.97,567.12 1070.99,473.86 1072.01,482.701 1073.03,399.322 1074.05,365.956 1075.07,312.561 1076.09,316.379 1077.11,389.023 1078.12,616.47 
  1079.14,660.346 1080.16,637.456 1081.18,759.272 1082.2,722.32 1083.22,629.75 1084.24,719.033 1085.26,637.386 1086.28,450.453 1087.29,359.716 1088.31,521.797 
  1089.33,420.34 1090.35,582.714 1091.37,424.946 1092.39,576.308 1093.41,719.024 1094.43,706.649 1095.45,672.305 1096.46,771.712 1097.48,700.699 1098.5,691.2 
  1099.52,699.73 1100.54,699.825 1101.56,737.059 1102.58,795.483 1103.6,701.175 1104.62,789.752 1105.63,654.26 1106.65,658.321 1107.67,776.335 1108.69,742.5 
  1109.71,719.224 1110.73,936.402 1111.75,833.608 1112.77,754.793 1113.79,899.327 1114.8,886.68 1115.82,853.405 1116.84,828.558 1117.86,862.503 1118.88,938.961 
  1119.9,966.708 1120.92,952.843 1121.94,831.717 1122.96,629.858 1123.97,627.131 1124.99,597.521 1126.01,708.903 1127.03,671.446 1128.05,708.334 1129.07,670.206 
  1130.09,673.765 1131.11,654.273 1132.13,624.05 1133.14,817.9 1134.16,777.667 1135.18,809.478 1136.2,860.275 1137.22,984.553 1138.24,948.612 1139.26,879.564 
  1140.28,819.427 1141.3,831.278 1142.31,784.514 1143.33,792.793 1144.35,577.698 1145.37,592.107 1146.39,547.021 1147.41,574.466 1148.43,555.94 1149.45,525.887 
  1150.47,664.981 1151.48,739.777 1152.5,730.791 1153.52,856.639 1154.54,843.526 1155.56,722.066 1156.58,722.432 1157.6,740.03 1158.62,734.445 1159.64,710.713 
  1160.65,807.711 1161.67,659.161 1162.69,619.832 1163.71,773.458 1164.73,686.46 1165.75,740.021 1166.77,773.304 1167.79,846.524 1168.81,764.656 1169.82,712.816 
  1170.84,778.04 1171.86,591.43 1172.88,488.287 1173.9,582.722 1174.92,399.969 1175.94,367.529 1176.96,396.966 1177.98,244.17 1178.99,360.964 1180.01,413.457 
  1181.03,275.766 1182.05,456.99 1183.07,482.699 1184.09,298.349 1185.11,276.143 1186.13,523.592 1187.15,643.988 1188.16,628.252 1189.18,686.317 1190.2,639.886 
  1191.22,588.108 1192.24,540.363 1193.26,645.125 1194.28,471.998 1195.3,297.305 1196.32,489.488 1197.33,636.778 1198.35,686.267 1199.37,754.27 1200.39,847.935 
  1201.41,785.003 1202.43,859.984 1203.45,675.933 1204.47,677.071 1205.49,744.43 1206.5,785.196 1207.52,864.558 1208.54,776.402 1209.56,694.4 1210.58,687.078 
  1211.6,720.925 1212.62,728.237 1213.64,714.379 1214.66,785.477 1215.67,726.315 1216.69,707.224 1217.71,748.613 1218.73,724.54 1219.75,807.605 1220.77,919.428 
  1221.79,936.276 1222.81,793.95 1223.83,846.016 1224.84,749.947 1225.86,756.736 1226.88,572.845 1227.9,553.55 1228.92,717.566 1229.94,697.132 1230.96,609.049 
  1231.98,551.675 1233,485.579 1234.01,530.124 1235.03,477.363 1236.05,518.275 1237.07,694.809 1238.09,627.2 1239.11,623.93 1240.13,583.119 1241.15,633.518 
  1242.17,694.162 1243.18,801.448 1244.2,678.967 1245.22,689.311 1246.24,587.536 1247.26,650.18 1248.28,796.009 1249.3,727.889 1250.32,668.201 1251.34,605.114 
  1252.35,555.441 1253.37,561.5 1254.39,389.691 1255.41,526.377 1256.43,560.165 1257.45,668.505 1258.47,502.448 1259.49,413.686 1260.51,360.334 1261.52,625.668 
  1262.54,728.575 1263.56,672.094 1264.58,570.291 1265.6,653.821 1266.62,686.333 1267.64,713.688 1268.66,604.835 1269.68,630.439 1270.69,540.906 1271.71,667.73 
  1272.73,543.013 1273.75,521.962 1274.77,501.543 1275.79,435.098 1276.81,440.043 1277.83,418.5 1278.85,441.291 1279.86,498.068 1280.88,620.346 1281.9,646.324 
  1282.92,607.962 1283.94,588.276 1284.96,652.039 1285.98,585.984 1287,725.188 1288.02,741.425 1289.03,740.668 1290.05,785.053 1291.07,692.199 1292.09,624.4 
  1293.11,650.036 1294.13,685.286 1295.15,838.661 1296.17,812.939 1297.19,771.704 1298.2,650.127 1299.22,489.359 1300.24,433.939 1301.26,459.253 1302.28,345.925 
  1303.3,259.19 1304.32,365.273 1305.34,250.257 1306.36,419.351 1307.37,325.013 1308.39,502.439 1309.41,485.622 1310.43,556.546 1311.45,497.045 1312.47,555.986 
  1313.49,538.914 1314.51,553.255 1315.53,481.842 1316.54,315.082 1317.56,500.343 1318.58,528.08 1319.6,483.732 1320.62,468.002 1321.64,502.225 1322.66,473.613 
  1323.68,606.845 1324.7,599.827 1325.71,721.353 1326.73,712.572 1327.75,704.263 1328.77,765.562 1329.79,816.768 1330.81,693.541 1331.83,618.228 1332.85,734.711 
  1333.87,780.218 1334.88,759.094 1335.9,792.245 1336.92,931.87 1337.94,861.965 1338.96,899.562 1339.98,924.528 1341,734.859 1342.02,541.603 1343.04,440.272 
  1344.05,544.431 1345.07,409.651 1346.09,423.309 1347.11,458.036 1348.13,538.085 1349.15,471.282 1350.17,436.067 1351.19,332.284 1352.21,645.823 1353.22,654.673 
  1354.24,600.282 1355.26,521.547 1356.28,505.596 1357.3,509.731 1358.32,622.032 1359.34,582.552 1360.36,571.939 1361.38,709.225 1362.39,727.427 1363.41,749.012 
  1364.43,712.527 1365.45,722.961 1366.47,779.365 1367.49,753.386 1368.51,745.771 1369.53,677.792 1370.55,577.349 1371.56,626.751 1372.58,652.155 1373.6,656.023 
  1374.62,646.34 1375.64,722.737 1376.66,568.146 1377.68,397.58 1378.7,248.796 1379.72,379.257 1380.73,478.608 1381.75,560.178 1382.77,541.985 1383.79,705.675 
  1384.81,699.874 1385.83,713.052 1386.85,723.093 1387.87,689.026 1388.89,775.116 1389.9,740.86 1390.92,719.276 1391.94,739.723 1392.96,807.064 1393.98,792.888 
  1395,761.658 1396.02,676.689 1397.04,599.659 1398.06,664.136 1399.07,703.249 1400.09,651.099 1401.11,715.621 1402.13,483.236 1403.15,626.319 1404.17,660.41 
  1405.19,832.018 1406.21,781.206 1407.23,705.254 1408.24,744.757 1409.26,866.607 1410.28,847.54 1411.3,685.54 1412.32,722.549 1413.34,695.191 1414.36,499.595 
  1415.38,707.903 1416.4,828.271 1417.41,887.942 1418.43,643.793 1419.45,672.365 1420.47,572.356 1421.49,490.732 1422.51,420.474 1423.53,502.882 1424.55,668.254 
  1425.57,752.007 1426.58,846.739 1427.6,851.911 1428.62,845.433 1429.64,877.533 1430.66,915.398 1431.68,1012.62 1432.7,1010.33 1433.72,951.721 1434.74,1036.66 
  1435.75,899.219 1436.77,975.98 1437.79,858.837 1438.81,791.171 1439.83,688.375 1440.85,760.618 1441.87,558.437 1442.89,720.757 1443.91,683.446 1444.92,790.536 
  1445.94,636.304 1446.96,604.736 1447.98,744.754 1449,682.287 1450.02,607.063 1451.04,528.029 1452.06,476.395 1453.08,552.047 1454.09,521.241 1455.11,621.35 
  1456.13,684.82 1457.15,686.961 1458.17,583.641 1459.19,518.309 1460.21,410.059 1461.23,387.576 1462.25,395.657 1463.26,257.347 1464.28,353.99 1465.3,493.853 
  1466.32,510.833 1467.34,588.547 1468.36,558.624 1469.38,710.902 1470.4,729.608 1471.42,633.476 1472.43,668.014 1473.45,682.682 1474.47,661.833 1475.49,541.232 
  1476.51,548.222 1477.53,493.688 1478.55,536.815 1479.57,526.149 1480.59,448.406 1481.6,558.332 1482.62,626.181 1483.64,689.36 1484.66,644.446 1485.68,557.404 
  1486.7,468.22 1487.72,711.413 1488.74,513.866 1489.76,490.924 1490.77,704.205 1491.79,791.514 1492.81,748.286 1493.83,672.377 1494.85,633.297 1495.87,560.769 
  1496.89,461.547 1497.91,451.914 1498.93,367.161 1499.94,514.323 1500.96,366.416 1501.98,345.863 1503,368.185 1504.02,601.865 1505.04,407.913 1506.06,469.255 
  1507.08,481.125 1508.1,334.307 1509.12,390.601 1510.13,488.476 1511.15,596.584 1512.17,465.624 1513.19,368.079 1514.21,526.448 1515.23,868.921 1516.25,889.994 
  1517.27,875.166 1518.29,900.9 1519.3,689.257 1520.32,721.676 1521.34,645.29 1522.36,668.784 1523.38,743.957 1524.4,633.511 1525.42,699.116 1526.44,608.422 
  1527.46,569.585 1528.47,853.741 1529.49,647.941 1530.51,725.515 1531.53,700.132 1532.55,656.445 1533.57,725.614 1534.59,701.537 1535.61,779.999 1536.63,775.821 
  1537.64,711.958 1538.66,634.955 1539.68,566.101 1540.7,658.587 1541.72,758.306 1542.74,766.007 1543.76,794.901 1544.78,919.895 1545.8,693.965 1546.81,787.457 
  1547.83,759.564 1548.85,844.231 1549.87,788.302 1550.89,845.741 1551.91,586.698 1552.93,491.682 1553.95,660.334 1554.97,729.305 1555.98,467.04 1557,566.597 
  1558.02,721.945 1559.04,733.375 1560.06,461.473 1561.08,411.741 1562.1,399.58 1563.12,400.554 1564.14,557.975 1565.15,617.332 1566.17,572.758 1567.19,582.132 
  1568.21,800.634 1569.23,660.782 1570.25,612.951 1571.27,717.146 1572.29,706.874 1573.31,760.783 1574.32,611.079 1575.34,674.018 1576.36,622.683 1577.38,683.394 
  1578.4,917.255 1579.42,935.024 1580.44,978.022 1581.46,943.27 1582.48,796.993 1583.49,879.349 1584.51,735.31 1585.53,768.212 1586.55,712.294 1587.57,696.634 
  1588.59,612.979 1589.61,434.502 1590.63,342.884 1591.65,264.564 1592.66,559.494 1593.68,592.332 1594.7,628.557 1595.72,686.85 1596.74,413.251 1597.76,286.526 
  1598.78,581.608 1599.8,527.498 1600.82,627.281 1601.83,752.817 1602.85,715.041 1603.87,863.783 1604.89,852.411 1605.91,744.176 1606.93,660.969 1607.95,618.055 
  1608.97,712.345 1609.99,697.885 1611,798.757 1612.02,786.742 1613.04,684.494 1614.06,692.21 1615.08,831.083 1616.1,841.728 1617.12,821.055 1618.14,909.058 
  1619.16,797.154 1620.17,913.065 1621.19,784.571 1622.21,786.499 1623.23,845.748 1624.25,892.238 1625.27,948.239 1626.29,1007.6 1627.31,932.313 1628.33,964.39 
  1629.34,844.73 1630.36,736.574 1631.38,538.451 1632.4,479.111 1633.42,688.034 1634.44,619.207 1635.46,645.785 1636.48,765.034 1637.5,824.411 1638.51,842.818 
  1639.53,688.389 1640.55,737.83 1641.57,609.81 1642.59,690.232 1643.61,820.237 1644.63,662.721 1645.65,781.715 1646.67,737.12 1647.68,662.379 1648.7,561.224 
  1649.72,562.878 1650.74,494.797 1651.76,294.525 1652.78,419.326 1653.8,541.719 1654.82,412.02 1655.84,381.992 1656.85,337.358 1657.87,278.628 1658.89,392.504 
  1659.91,679.838 1660.93,708.986 1661.95,575.207 1662.97,479.254 1663.99,448.077 1665.01,364.437 1666.02,543.355 1667.04,625.256 1668.06,556.717 1669.08,473.48 
  1670.1,709.437 1671.12,760.652 1672.14,666.564 1673.16,747.647 1674.18,628.865 1675.19,748.018 1676.21,747.367 1677.23,935.809 1678.25,861.855 1679.27,847.747 
  1680.29,753.175 1681.31,849.733 1682.33,799.241 1683.35,775.711 1684.36,701.593 1685.38,734.998 1686.4,608.143 1687.42,336.499 1688.44,384.662 1689.46,471.861 
  1690.48,418.855 1691.5,318.498 1692.52,419.187 1693.53,485.833 1694.55,537.162 1695.57,488.23 1696.59,571.488 1697.61,670.046 1698.63,689.147 1699.65,668.089 
  1700.67,507.12 1701.69,325.686 1702.7,485.362 1703.72,486.173 1704.74,421.886 1705.76,498.21 1706.78,516.993 1707.8,678.546 1708.82,624.65 1709.84,496.21 
  1710.86,743.946 1711.87,731.752 1712.89,891.297 1713.91,753.962 1714.93,892.741 1715.95,773.435 1716.97,781.015 1717.99,789.978 1719.01,833.308 1720.03,833.138 
  1721.04,653.659 1722.06,668.101 1723.08,604.841 1724.1,460.071 1725.12,318.328 1726.14,289.909 1727.16,373.304 1728.18,414.089 1729.2,563.463 1730.21,756.135 
  1731.23,692.389 1732.25,640.948 1733.27,668.024 1734.29,757.117 1735.31,627.085 1736.33,727.857 1737.35,869.563 1738.37,689.651 1739.38,657.299 1740.4,670.747 
  1741.42,760.396 1742.44,774.009 1743.46,680.327 1744.48,599.189 1745.5,484.887 1746.52,643.962 1747.54,621.457 1748.55,715.637 1749.57,610.115 1750.59,497.969 
  1751.61,561.035 1752.63,604.803 1753.65,635.794 1754.67,529.725 1755.69,525.565 1756.71,663.309 1757.72,664.322 1758.74,637.764 1759.76,639.021 1760.78,664.259 
  1761.8,830.563 1762.82,643.485 1763.84,736.014 1764.86,676.89 1765.88,679.797 1766.89,602.003 1767.91,683.16 1768.93,736.136 1769.95,599.74 1770.97,555.394 
  1771.99,639.665 1773.01,653.617 1774.03,807.476 1775.05,541.832 1776.06,592.141 1777.08,695.749 1778.1,609.972 1779.12,592.212 1780.14,472.105 1781.16,542.799 
  1782.18,404.143 1783.2,668.416 1784.22,638.017 1785.23,655.099 1786.25,655.677 1787.27,386.687 1788.29,529.273 1789.31,492.892 1790.33,586.895 1791.35,560.186 
  1792.37,718.467 1793.39,728.289 1794.4,705.861 1795.42,821.718 1796.44,710.946 1797.46,745.387 1798.48,703.962 1799.5,792.098 1800.52,704.335 1801.54,661.087 
  1802.56,704.763 1803.57,857.743 1804.59,790.596 1805.61,882.372 1806.63,789.784 1807.65,763.729 1808.67,831.875 1809.69,806.341 1810.71,790.665 1811.73,745.511 
  1812.74,877.714 1813.76,809.521 1814.78,789.8 1815.8,797.285 1816.82,855.847 1817.84,835.795 1818.86,830.982 1819.88,911.703 1820.9,900.538 1821.91,1039.69 
  1822.93,927.947 1823.95,978.724 1824.97,966.123 1825.99,913.018 1827.01,966.731 1828.03,940.392 1829.05,826.304 1830.07,721.833 1831.08,669.624 1832.1,564.24 
  1833.12,652.147 1834.14,608.147 1835.16,495.244 1836.18,638.813 1837.2,618.074 1838.22,559.037 1839.24,668.653 1840.25,717.449 1841.27,711.332 1842.29,778.376 
  1843.31,878.042 1844.33,812.108 1845.35,743.323 1846.37,761.474 1847.39,829.011 1848.41,464.538 1849.42,556.155 1850.44,492.69 1851.46,579.448 1852.48,569.837 
  1853.5,754.746 1854.52,666.732 1855.54,702.043 1856.56,573.732 1857.58,561.651 1858.59,651.271 1859.61,534.764 1860.63,596.456 1861.65,709.506 1862.67,533.762 
  1863.69,375.91 1864.71,441.995 1865.73,521.119 1866.75,591.102 1867.76,279.987 1868.78,325.404 1869.8,310.354 1870.82,541.733 1871.84,607.82 1872.86,629.236 
  1873.88,842.754 1874.9,671.432 1875.92,724.663 1876.93,763.037 1877.95,766.344 1878.97,697.483 1879.99,413.382 1881.01,456.569 1882.03,479.257 1883.05,610.374 
  1884.07,683.376 1885.09,665.487 1886.1,898.806 1887.12,916.676 1888.14,941.979 1889.16,892.308 1890.18,801.895 1891.2,715.562 1892.22,760.395 1893.24,722.399 
  1894.26,562.043 1895.27,523.186 1896.29,530.301 1897.31,359.071 1898.33,442.482 1899.35,497.941 1900.37,462.042 1901.39,494.225 1902.41,534.525 1903.43,568.775 
  1904.44,753.447 1905.46,637.178 1906.48,437.948 1907.5,613.358 1908.52,683.69 1909.54,565.078 1910.56,575.473 1911.58,722.391 1912.6,768.913 1913.61,686.308 
  1914.63,761.501 1915.65,873.708 1916.67,823.801 1917.69,830.868 1918.71,855.286 1919.73,928.048 1920.75,867.909 1921.77,766.424 1922.78,720.216 1923.8,616.885 
  1924.82,674.375 1925.84,818.888 1926.86,837.89 1927.88,834.446 1928.9,913.05 1929.92,801.933 1930.94,470.687 1931.95,555.572 1932.97,575.571 1933.99,534.222 
  1935.01,563.2 1936.03,712.225 1937.05,745.348 1938.07,596.768 1939.09,602.458 1940.11,691.593 1941.12,522.621 1942.14,585.878 1943.16,621.596 1944.18,562.224 
  1945.2,689.94 1946.22,627.175 1947.24,672.767 1948.26,716.383 1949.28,688.505 1950.29,544.208 1951.31,557.93 1952.33,536.82 1953.35,699.689 1954.37,652.939 
  1955.39,772.761 1956.41,810.14 1957.43,813.452 1958.45,758.166 1959.46,773.577 1960.48,707.08 1961.5,773.391 1962.52,792.622 1963.54,696.265 1964.56,646.658 
  1965.58,845.06 1966.6,956.027 1967.62,758.392 1968.63,782.333 1969.65,621.108 1970.67,659.846 1971.69,615.818 1972.71,695.099 1973.73,715.479 1974.75,806.56 
  1975.77,715.088 1976.79,765.444 1977.8,536.158 1978.82,509.825 1979.84,551.294 1980.86,410.574 1981.88,438.278 1982.9,119.006 1983.92,181.543 1984.94,352.892 
  1985.96,436.511 1986.97,271.946 1987.99,262.254 1989.01,280.861 1990.03,422.639 1991.05,660.575 1992.07,631.735 1993.09,681.787 1994.11,613.876 1995.13,522.901 
  1996.14,467.418 1997.16,462.743 1998.18,540.946 1999.2,544.146 2000.22,737.724 2001.24,775.811 2002.26,825.464 2003.28,698.347 2004.3,620.328 2005.31,646.082 
  2006.33,577.741 2007.35,615.001 2008.37,671.386 2009.39,693.515 2010.41,750.667 2011.43,775.775 2012.45,754.11 2013.47,680.883 2014.48,699.346 2015.5,907.13 
  2016.52,934.937 2017.54,831.462 2018.56,782.092 2019.58,754.744 2020.6,788.265 2021.62,724.151 2022.64,745.246 2023.65,703.155 2024.67,787.891 2025.69,745.362 
  2026.71,637.059 2027.73,588.926 2028.75,441.432 2029.77,459.137 2030.79,554.506 2031.81,744.637 2032.82,622.826 2033.84,680.948 2034.86,598.316 2035.88,612.436 
  2036.9,745.585 2037.92,621.859 2038.94,597.149 2039.96,675.631 2040.98,665.555 2041.99,640.129 2043.01,580.807 2044.03,570.511 2045.05,674.054 2046.07,560.49 
  2047.09,427.144 2048.11,407.833 2049.13,514.231 2050.15,457.8 2051.16,375.776 2052.18,466.703 2053.2,506.617 2054.22,636.879 2055.24,685.924 2056.26,784.612 
  2057.28,836.54 2058.3,821.411 2059.32,939.453 2060.33,839.385 2061.35,840.505 2062.37,649.345 2063.39,499.986 2064.41,568.545 2065.43,637.463 2066.45,562.837 
  2067.47,515.205 2068.49,479.767 2069.5,619.482 2070.52,526.298 2071.54,586.787 2072.56,691.969 2073.58,704.557 2074.6,679.8 2075.62,676.037 2076.64,712.724 
  2077.66,622.613 2078.67,510.147 2079.69,475.29 2080.71,498.643 2081.73,586.54 2082.75,685.089 2083.77,796.786 2084.79,657.155 2085.81,515 2086.83,500.043 
  2087.84,475.366 2088.86,490.194 2089.88,657.097 2090.9,603.222 2091.92,694.764 2092.94,695.604 2093.96,616.704 2094.98,645.626 2096,899.875 2097.01,922.583 
  2098.03,889.553 2099.05,799.786 2100.07,647.648 2101.09,607.6 2102.11,415.189 2103.13,493.191 2104.15,349.327 2105.17,571.049 2106.18,633.207 2107.2,659.78 
  2108.22,661.391 2109.24,502.72 2110.26,481.002 2111.28,395.286 2112.3,408.754 2113.32,486.792 2114.34,619.444 2115.35,561.692 2116.37,646.895 2117.39,472.331 
  2118.41,592.293 2119.43,559.797 2120.45,603.729 2121.47,495.907 2122.49,468.473 2123.51,499.873 2124.52,621.284 2125.54,674.072 2126.56,670.866 2127.58,749.386 
  2128.6,840.635 2129.62,815.764 2130.64,999.059 2131.66,829.31 2132.68,777.719 2133.69,605.176 2134.71,374.51 2135.73,372.843 2136.75,461.285 2137.77,530.331 
  2138.79,421.498 2139.81,381.367 2140.83,502.324 2141.85,544.018 2142.86,641.967 2143.88,689.315 2144.9,593.61 2145.92,636.461 2146.94,718.888 2147.96,729.624 
  2148.98,793.411 2150,874.278 2151.02,855.748 2152.03,826.036 2153.05,862.417 2154.07,746.911 2155.09,712.078 2156.11,520.015 2157.13,519.874 2158.15,479.234 
  2159.17,494.941 2160.19,564.002 2161.2,479.541 2162.22,687.549 2163.24,569.265 2164.26,697.855 2165.28,568.819 2166.3,453.365 2167.32,508.994 2168.34,516.548 
  2169.36,583.181 2170.37,466.393 2171.39,402.162 2172.41,559.36 2173.43,608.441 2174.45,769.395 2175.47,810.038 2176.49,668.738 2177.51,656.212 2178.53,623.457 
  2179.54,561.059 2180.56,539.499 2181.58,598.146 2182.6,613.672 2183.62,576.756 2184.64,535.442 2185.66,637.658 2186.68,559.543 2187.7,565.058 2188.71,465.346 
  2189.73,552.054 2190.75,485.925 2191.77,491.361 2192.79,528.63 2193.81,582.714 2194.83,592.145 2195.85,534.62 2196.87,636.085 2197.88,762.088 2198.9,682.839 
  2199.92,659.037 2200.94,716.327 2201.96,691.492 2202.98,753.356 2204,632.716 2205.02,550.805 2206.04,548.668 2207.05,405.338 2208.07,287.203 2209.09,259.481 
  2210.11,333.449 2211.13,258.846 2212.15,364.115 2213.17,541.183 2214.19,520.992 2215.21,708.889 2216.22,907.378 2217.24,486.607 2218.26,348.934 2219.28,375.017 
  2220.3,500.999 2221.32,510.374 2222.34,463.297 2223.36,268.418 2224.38,537.472 2225.39,464.166 2226.41,320.583 2227.43,421.86 2228.45,492.54 2229.47,467.132 
  2230.49,518.447 2231.51,469.114 2232.53,286.58 2233.55,328.978 2234.56,383.297 2235.58,503.819 2236.6,464.227 2237.62,422.349 2238.64,533.572 2239.66,425.133 
  2240.68,458.477 2241.7,497.858 2242.72,503.841 2243.73,672.493 2244.75,719.737 2245.77,710.841 2246.79,713.179 2247.81,703.082 2248.83,719.362 2249.85,854.574 
  2250.87,930.325 2251.89,876.547 2252.9,874.743 2253.92,1040.59 2254.94,924.131 2255.96,829.112 2256.98,807.902 2258,923.48 2259.02,839.274 2260.04,706 
  2261.06,675.882 2262.07,872.176 2263.09,829.126 2264.11,887.864 2265.13,814.735 2266.15,802.612 2267.17,703.657 2268.19,770.984 2269.21,808.742 2270.23,802.811 
  2271.24,789.03 2272.26,803.055 2273.28,791.284 2274.3,791.27 2275.32,823.219 2276.34,861.937 2277.36,674.375 2278.38,731.095 2279.4,683.193 2280.41,631.194 
  2281.43,714.679 2282.45,798.356 2283.47,816.014 2284.49,795.786 2285.51,754.866 2286.53,711.912 2287.55,823.818 2288.57,704.105 2289.58,685.604 2290.6,657.377 
  2291.62,703.874 
  "/>
<path clip-path="url(#clip860)" d="
M1872.6 250.738 L2280.75 250.738 L2280.75 95.2176 L1872.6 95.2176  Z
  " fill="#ffffff" fill-rule="evenodd" fill-opacity="1"/>
<polyline clip-path="url(#clip860)" style="stroke:#000000; stroke-linecap:butt; stroke-linejoin:round; stroke-width:4; stroke-opacity:1; fill:none" points="
  1872.6,250.738 2280.75,250.738 2280.75,95.2176 1872.6,95.2176 1872.6,250.738 
  "/>
<polyline clip-path="url(#clip860)" style="stroke:#009af9; stroke-linecap:butt; stroke-linejoin:round; stroke-width:4; stroke-opacity:1; fill:none" points="
  1896.6,147.058 2040.61,147.058 
  "/>
<path clip-path="url(#clip860)" d="M2079.47 159.615 Q2080.3 160.726 2082.8 160.726 L2084.86 160.726 L2084.86 164.338 L2082.29 164.338 Q2078.12 164.338 2076.23 162.115 Q2074.33 159.847 2074.33 154.939 L2074.33 142.671 L2064.61 142.671 L2064.61 138.412 L2088.52 138.412 L2088.52 142.671 L2078.68 142.671 L2078.68 155.194 Q2078.68 158.551 2079.47 159.615 Z" fill="#000000" fill-rule="evenodd" fill-opacity="1" /><path clip-path="url(#clip860)" d="M2110.93 142.81 L2140.6 142.81 L2140.6 146.699 L2110.93 146.699 L2110.93 142.81 M2110.93 152.254 L2140.6 152.254 L2140.6 156.189 L2110.93 156.189 L2110.93 152.254 Z" fill="#000000" fill-rule="evenodd" fill-opacity="1" /><path clip-path="url(#clip860)" d="M2175.76 132.856 Q2172.15 132.856 2170.32 136.421 Q2168.52 139.963 2168.52 147.092 Q2168.52 154.199 2170.32 157.764 Q2172.15 161.305 2175.76 161.305 Q2179.4 161.305 2181.2 157.764 Q2183.03 154.199 2183.03 147.092 Q2183.03 139.963 2181.2 136.421 Q2179.4 132.856 2175.76 132.856 M2175.76 129.153 Q2181.57 129.153 2184.63 133.759 Q2187.71 138.342 2187.71 147.092 Q2187.71 155.819 2184.63 160.426 Q2181.57 165.009 2175.76 165.009 Q2169.95 165.009 2166.87 160.426 Q2163.82 155.819 2163.82 147.092 Q2163.82 138.342 2166.87 133.759 Q2169.95 129.153 2175.76 129.153 Z" fill="#000000" fill-rule="evenodd" fill-opacity="1" /><path clip-path="url(#clip860)" d="M2195.92 158.458 L2200.81 158.458 L2200.81 164.338 L2195.92 164.338 L2195.92 158.458 Z" fill="#000000" fill-rule="evenodd" fill-opacity="1" /><path clip-path="url(#clip860)" d="M2211.8 160.402 L2219.44 160.402 L2219.44 134.037 L2211.13 135.703 L2211.13 131.444 L2219.4 129.778 L2224.07 129.778 L2224.07 160.402 L2231.71 160.402 L2231.71 164.338 L2211.8 164.338 L2211.8 160.402 Z" fill="#000000" fill-rule="evenodd" fill-opacity="1" /><polyline clip-path="url(#clip860)" style="stroke:#e26f46; stroke-linecap:butt; stroke-linejoin:round; stroke-width:4; stroke-opacity:1; fill:none" points="
  1896.6,198.898 2040.61,198.898 
  "/>
<path clip-path="url(#clip860)" d="M2079.47 211.455 Q2080.3 212.566 2082.8 212.566 L2084.86 212.566 L2084.86 216.178 L2082.29 216.178 Q2078.12 216.178 2076.23 213.955 Q2074.33 211.687 2074.33 206.779 L2074.33 194.511 L2064.61 194.511 L2064.61 190.252 L2088.52 190.252 L2088.52 194.511 L2078.68 194.511 L2078.68 207.034 Q2078.68 210.391 2079.47 211.455 Z" fill="#000000" fill-rule="evenodd" fill-opacity="1" /><path clip-path="url(#clip860)" d="M2110.93 194.65 L2140.6 194.65 L2140.6 198.539 L2110.93 198.539 L2110.93 194.65 M2110.93 204.094 L2140.6 204.094 L2140.6 208.029 L2110.93 208.029 L2110.93 204.094 Z" fill="#000000" fill-rule="evenodd" fill-opacity="1" /><path clip-path="url(#clip860)" d="M2175.76 184.696 Q2172.15 184.696 2170.32 188.261 Q2168.52 191.803 2168.52 198.932 Q2168.52 206.039 2170.32 209.604 Q2172.15 213.145 2175.76 213.145 Q2179.4 213.145 2181.2 209.604 Q2183.03 206.039 2183.03 198.932 Q2183.03 191.803 2181.2 188.261 Q2179.4 184.696 2175.76 184.696 M2175.76 180.993 Q2181.57 180.993 2184.63 185.599 Q2187.71 190.182 2187.71 198.932 Q2187.71 207.659 2184.63 212.266 Q2181.57 216.849 2175.76 216.849 Q2169.95 216.849 2166.87 212.266 Q2163.82 207.659 2163.82 198.932 Q2163.82 190.182 2166.87 185.599 Q2169.95 180.993 2175.76 180.993 Z" fill="#000000" fill-rule="evenodd" fill-opacity="1" /><path clip-path="url(#clip860)" d="M2195.92 210.298 L2200.81 210.298 L2200.81 216.178 L2195.92 216.178 L2195.92 210.298 Z" fill="#000000" fill-rule="evenodd" fill-opacity="1" /><path clip-path="url(#clip860)" d="M2211.13 215.46 L2211.13 211.201 Q2212.89 212.034 2214.7 212.474 Q2216.5 212.914 2218.24 212.914 Q2222.87 212.914 2225.3 209.812 Q2227.75 206.687 2228.1 200.344 Q2226.76 202.335 2224.7 203.4 Q2222.64 204.465 2220.14 204.465 Q2214.95 204.465 2211.92 201.34 Q2208.91 198.192 2208.91 192.752 Q2208.91 187.428 2212.06 184.21 Q2215.21 180.993 2220.44 180.993 Q2226.43 180.993 2229.58 185.599 Q2232.75 190.182 2232.75 198.932 Q2232.75 207.104 2228.86 211.988 Q2225 216.849 2218.45 216.849 Q2216.69 216.849 2214.88 216.502 Q2213.08 216.154 2211.13 215.46 M2220.44 200.807 Q2223.59 200.807 2225.42 198.654 Q2227.27 196.502 2227.27 192.752 Q2227.27 189.025 2225.42 186.872 Q2223.59 184.696 2220.44 184.696 Q2217.29 184.696 2215.44 186.872 Q2213.61 189.025 2213.61 192.752 Q2213.61 196.502 2215.44 198.654 Q2217.29 200.807 2220.44 200.807 Z" fill="#000000" fill-rule="evenodd" fill-opacity="1" /></svg>
